<?xml version="1.0"?>
<svg xmlns="http://www.w3.org/2000/svg" xmlns:xlink="http://www.w3.org/1999/xlink" width="343.567963" height="514.523499">
	<defs>
		<marker id="CustomMarker-01" markerUnits="strokeWidth" markerWidth="15.000001" markerHeight="9" viewBox="-15 -4.5 15 9" orient="auto-start-reverse">
			<path d="M 0 -0 L -10 -3, -8 -0.5, -8 0.5, -10 3 Z" fill="#000000" stroke="#000000" stroke-linejoin="round" />
		</marker>
		<marker id="CustomMarker-02" markerUnits="strokeWidth" markerWidth="15.000001" markerHeight="9" viewBox="-15 -4.5 15 9" orient="auto-start-reverse">
			<path d="M 0 -0 L -10 -3, -8 -0.5, -8 0.5, -10 3 Z" fill="#000000" stroke="#000000" stroke-linejoin="round" />
		</marker>
		<marker id="CustomMarker-03" markerUnits="strokeWidth" markerWidth="15.000001" markerHeight="9" viewBox="-15 -4.5 15 9" orient="auto-start-reverse">
			<path d="M 0 -0 L -10 -3, -8 -0.5, -8 0.5, -10 3 Z" fill="#000000" stroke="#000000" stroke-linejoin="round" />
		</marker>
		<marker id="CustomMarker-04" markerUnits="strokeWidth" markerWidth="15.000001" markerHeight="9" viewBox="-15 -4.5 15 9" orient="auto-start-reverse">
			<path d="M 0 -0 L -10 -3, -8 -0.5, -8 0.5, -10 3 Z" fill="#000000" stroke="#000000" stroke-linejoin="round" />
		</marker>
		<marker id="CustomMarker-05" markerUnits="strokeWidth" markerWidth="15.000001" markerHeight="9" viewBox="-15 -4.5 15 9" orient="auto-start-reverse">
			<path d="M 0 -0 L -10 -3, -8 -0.5, -8 0.5, -10 3 Z" fill="#000000" stroke="#000000" stroke-linejoin="round" />
		</marker>
	</defs>
	<path d="M 32.6568 -0 C 32.6568 17.2625, 18.0359 31.2564, -0 31.2564, -18.0359 31.2564, -32.6568 17.2625, -32.6568 -0, -32.6568 -17.2625, -18.0359 -31.2564, -0 -31.2564, 18.0359 -31.2564, 32.6568 -17.2625, 32.6568 -0 Z" stroke="none" fill="#C774C1" fill-opacity="0.392156839" transform="matrix(5 0 -0 5 171.784 304.279)" />
	<path d="M 32.6568 -0 C 32.6568 17.2625, 18.0359 31.2564, -0 31.2564, -18.0359 31.2564, -32.6568 17.2625, -32.6568 -0, -32.6568 -17.2625, -18.0359 -31.2564, -0 -31.2564, 18.0359 -31.2564, 32.6568 -17.2625, 32.6568 -0 Z" fill="none" stroke="#000000" stroke-width="0.266666681" stroke-linecap="round" stroke-linejoin="round" transform="matrix(5 0 -0 5 171.784 304.279)" />
	<path d="M 32.6568 -1.2266e-006 C 32.6568 7.23654, 18.0359 13.1029, 6.77118e-006 13.1029, -18.0358 13.1029, -32.6568 7.23655, -32.6568 -0, -32.6568 -0, -32.6568 -0, -32.6568 -0" fill="none" stroke="#000000" stroke-width="0.186666667" stroke-linecap="round" stroke-linejoin="round" transform="matrix(5 0 -0 5 171.784 304.279)" />
	<path d="M -32.6568 4.59834e-006 C -32.6568 -7.23654, -18.0359 -13.1029, -2.29556e-005 -13.1029, 18.0358 -13.1029, 32.6568 -7.23655, 32.6568 -0, 32.6568 -0, 32.6568 -0, 32.6568 -0" fill="none" stroke="#000000" stroke-width="0.200000003" stroke-linecap="round" stroke-linejoin="round" stroke-dasharray="0.301, 0.499" transform="matrix(5 0 -0 5 171.784 304.279)" />
	<path d="M 32.6568 -0 C 32.6568 7.23654, 18.0359 13.1029, -0 13.1029, -18.0359 13.1029, -32.6568 7.23654, -32.6568 -0, -32.6568 -7.23654, -18.0359 -13.1029, -0 -13.1029, 18.0359 -13.1029, 32.6568 -7.23654, 32.6568 -0 Z" stroke="none" fill="#C774C1" fill-opacity="0.392156839" transform="matrix(5 0 -0 5 171.784 304.279)" />
	<path d="M 7.53003e-006 31.2564 C -5.88838 31.2564, -10.6619 17.2625, -10.6619 2.97341e-005, -10.6619 -17.2624, -5.8884 -31.2564, -1.20255e-005 -31.2564" fill="none" stroke="#000000" stroke-width="0.186666667" stroke-linecap="round" stroke-linejoin="round" transform="matrix(5 0 -0 5 171.784 304.279)" />
	<path d="M -1.76453e-005 -31.2564 C 5.88837 -31.2565, 10.6619 -17.2625, 10.6619 -4.58244e-005, 10.6619 17.2624, 5.8884 31.2564, 2.30896e-005 31.2564, 2.22423e-005 31.2564, 2.1395e-005 31.2564, 2.05477e-005 31.2564" fill="none" stroke="#000000" stroke-width="0.200000003" stroke-linecap="round" stroke-linejoin="round" stroke-dasharray="0.301, 0.499" transform="matrix(5 0 -0 5 171.784 304.279)" />
	<path d="M 10.6619 -0 C 10.6619 17.2625, 5.88839 31.2564, -0 31.2564, -5.88839 31.2564, -10.6619 17.2625, -10.6619 -0, -10.6619 -17.2625, -5.88839 -31.2564, -0 -31.2564, 5.88839 -31.2564, 10.6619 -17.2625, 10.6619 -0 Z" stroke="none" fill="#C774C1" fill-opacity="0.392156839" transform="matrix(5 0 -0 5 171.784 304.279)" />
	<path d="M -4.8858 6.25134 L 4.88586 -6.25134" fill="none" stroke="#000000" stroke-width="0.200000003" stroke-linecap="round" stroke-linejoin="round" stroke-dasharray="0.701, 0.499" transform="matrix(5 0 0 5 147.354 335.536)" />
	<path d="M 3.98486 10.2092 L -3.98499 -10.2091" fill="none" stroke="#000000" stroke-width="0.200000003" stroke-linecap="round" stroke-linejoin="round" stroke-dasharray="0.701, 0.499" transform="matrix(5 0 0 5 151.859 253.234)" />
	<g transform="matrix(1 0 -0 1 106.537 199.814)">
		<svg width="54.0697556" height="60.0777054">
			<defs />
			<path d="M 15.7673 13.3871 C 15.4758 14.5265, 15.0047 15.6255, 14.354 16.6855, 13.7033 17.7454, 12.8841 18.7148, 11.8977 19.5937, 11.0085 20.3872, 10.0354 21.0181, 8.97987 21.4847, 7.92432 21.9514, 6.8673 22.1847, 5.80808 22.1847, 4.74076 22.1847, 3.79195 21.9499, 2.96311 21.4788, 2.13428 21.0077, 1.47328 20.3718, 0.980105 19.5702, 0.438347 18.6839, 0.126983 17.702, 0.0460142 16.6258, 0.0136265 16.3675, -0.00256741 16.1084, -0.00256741 15.8485, -0.00256741 15.0403, 0.102693 14.2041, 0.312477 13.34, 0.62016 12.1865, 1.09493 11.0662, 1.73827 9.97827, 2.38161 8.89107, 3.20381 7.90766, 4.20636 7.0273, 5.09629 6.23528, 6.06865 5.59709, 7.1242 5.11422, 8.17974 4.63135, 9.24486 4.38992, 10.3203 4.38918, 11.3876 4.38992, 12.332 4.63356, 13.1527 5.12011, 13.9742 5.6074, 14.6308 6.25074, 15.124 7.05086, 15.6657 7.93858, 15.9852 8.92787, 16.0823 10.0188, 16.0985 10.2867, 16.1066 10.5495, 16.1066 10.8078, 16.1066 11.6484, 15.994 12.5082, 15.7673 13.3871 Z M 13.3169 7.45129 C 13.0504 6.79249, 12.65 6.25662, 12.1156 5.84442, 11.5819 5.43221, 10.9268 5.22611, 10.1502 5.22537, 9.3825 5.22611, 8.61845 5.43663, 7.85807 5.85619, 7.09843 6.2765, 6.41903 6.81973, 5.81986 7.48662, 5.06758 8.29631, 4.47356 9.17373, 4.03706 10.1196, 3.60056 11.0662, 3.26049 12.0253, 3.01758 12.9984, 2.73493 14.0591, 2.56121 15.0918, 2.49644 16.0959, 2.48024 16.285, 2.47215 16.4735, 2.47215 16.6612, 2.47215 17.4473, 2.6017 18.2165, 2.86006 18.9695, 3.11107 19.6379, 3.4953 20.1973, 4.01277 20.6485, 4.53024 21.1005, 5.17726 21.3257, 5.95309 21.325, 6.75395 21.3257, 7.53714 21.0961, 8.3012 20.6368, 9.06525 20.1774, 9.75055 19.6099, 10.3571 18.9342, 11.1417 18.0244, 11.752 17.0623, 12.1885 16.0495, 12.6257 15.0366, 12.9812 14.0039, 13.2558 12.9513, 13.5068 11.9708, 13.6643 11.0051, 13.7291 10.0541 L 13.7291 9.64188 C 13.7291 8.85721, 13.5922 8.12701, 13.3169 7.45129 Z" stroke="none" fill="#000000" />
			<rect />
		</svg>
	</g>
	<g transform="matrix(1 0 -0 1 64.9913 38.1939)">
		<svg width="35.9860382" height="38.9253845">
			<defs />
			<path d="M 10.2364 11.2436 C 9.76747 12.0768, 9.21173 12.8483, 8.56839 13.5586, 7.92579 14.2696, 7.25227 14.9542, 6.54857 15.6137, 5.84488 16.2733, 5.14192 16.9291, 4.43822 17.5805, 3.73453 18.2327, 3.16038 18.8172, 2.71505 19.3346, 2.69149 19.3435, 2.78056 19.3471, 2.98225 19.3464, 3.29729 19.3471, 3.57848 19.3884, 3.82506 19.4708, 4.07239 19.5532, 4.30646 19.6475, 4.52876 19.7535, 4.75106 19.8595, 4.97556 19.95, 5.20228 20.0243, 5.42899 20.0994, 5.65497 20.1362, 5.88095 20.1355, 6.16434 20.1362, 6.4492 20.0832, 6.73628 19.9772, 7.02335 19.8712, 7.28024 19.7225, 7.50696 19.5297, 7.73367 19.3376, 7.93536 19.1138, 8.11349 18.8584, 8.29162 18.6037, 8.42044 18.338, 8.50141 18.0627, 8.54999 17.8433, 8.68764 17.7336, 8.91361 17.7329 L 9.19333 17.7329 C 9.40384 17.7336, 9.50837 17.8198, 9.50837 17.992, 9.50837 18.0399, 9.49659 18.0833, 9.4723 18.1216, 9.35894 18.5934, 9.17934 19.0549, 8.93275 19.5061, 8.68616 19.9581, 8.38879 20.36, 8.04062 20.7133, 7.69319 21.0666, 7.30306 21.3574, 6.87024 21.5841, 6.43743 21.8123, 5.97885 21.9256, 5.49303 21.9256, 5.09702 21.9256, 4.78639 21.8255, 4.55968 21.6253, 4.33296 21.4258, 4.13716 21.208, 3.97081 20.9724, 3.80519 20.7369, 3.63957 20.5352, 3.47322 20.3659, 3.3076 20.1973, 3.09119 20.1127, 2.82473 20.1119, 2.47729 20.1127, 2.14532 20.2658, 1.82954 20.572, 1.5145 20.8782, 1.2311 21.2514, 0.980836 21.6901, 0.89177 21.8395, 0.762219 21.9183, 0.592184 21.9256 L 0.240335 21.9256 C 0.079133 21.8476, -0.00110015 21.749, -0.00183623 21.6312, -0.00110015 21.5767, 0.0187741 21.5179, 0.0585227 21.4545, 0.528144 20.6463, 1.08021 19.8852, 1.71471 19.1705, 2.34922 18.4565, 3.01022 17.769, 3.69772 17.1094, 4.38522 16.4499, 5.08082 15.8007, 5.78452 15.1603, 6.48822 14.5206, 7.08665 13.9178, 7.57983 13.3517 L 7.70055 13.3517 C 7.3855 13.3525, 7.10505 13.3076, 6.85773 13.217, 6.61114 13.1272, 6.37486 13.033, 6.14815 12.9344, 5.92217 12.8365, 5.69766 12.7459, 5.47536 12.6635, 5.25307 12.5811, 5.02415 12.5398, 4.78933 12.5391, 4.38522 12.5398, 4.01718 12.6517, 3.68594 12.8755, 3.35471 13.0993, 3.14419 13.3723, 3.05512 13.6933, 3.00654 13.9141, 2.86521 14.0275, 2.6304 14.0348 L 2.35142 14.0348 C 2.1571 14.0356, 2.05993 13.9377, 2.05993 13.7404 L 2.05993 13.6579 C 2.14974 13.2818, 2.29107 12.9248, 2.48539 12.5869, 2.67972 12.2498, 2.91379 11.9451, 3.18835 11.6742, 3.46365 11.4033, 3.77059 11.184, 4.11066 11.0147, 4.45074 10.8461, 4.80994 10.7615, 5.18976 10.7607, 5.58651 10.7615, 5.89567 10.8638, 6.11797 11.0677, 6.34026 11.2723, 6.53901 11.488, 6.71272 11.7154, 6.88644 11.9436, 7.05427 12.1453, 7.2162 12.322, 7.37814 12.4986, 7.58793 12.5869, 7.84629 12.5862, 8.0892 12.5869, 8.32401 12.4419, 8.55072 12.1512, 8.77744 11.8612, 9.03139 11.4718, 9.31404 10.9845, 9.42004 10.8358, 9.54517 10.7615, 9.69018 10.7607 L 9.95738 10.7607 C 10.0869 10.7615, 10.1797 10.8167, 10.2364 10.9256, 10.2525 10.9654, 10.2687 11.0088, 10.2849 11.0552, 10.2849 11.1111, 10.2687 11.1737, 10.2364 11.2436 Z" stroke="none" fill="#000000" />
			<rect />
		</svg>
	</g>
	<path d="M 20.3236 -0 C 20.3236 1.9842, 11.2244 3.59271, -0 3.59271, -11.2244 3.59271, -20.3236 1.9842, -20.3236 -0, -20.3236 -1.9842, -11.2244 -3.59271, -0 -3.59271, 11.2244 -3.59271, 20.3236 -1.9842, 20.3236 -0 Z" stroke="none" fill="#C949A3" fill-opacity="0.392156839" transform="matrix(5 0 0 5 171.784 184.947)" />
	<path d="M 20.3236 -0 C 20.3236 1.9842, 11.2244 3.59271, -0 3.59271, -11.2244 3.59271, -20.3236 1.9842, -20.3236 -0, -20.3236 -1.9842, -11.2244 -3.59271, -0 -3.59271, 11.2244 -3.59271, 20.3236 -1.9842, 20.3236 -0 Z" fill="none" stroke="#000000" stroke-width="0.200000003" stroke-linecap="round" stroke-linejoin="round" transform="matrix(5 0 0 5 171.784 184.947)" />
	<path d="M 0 -49.5001 L 0 49.4998" fill="none" stroke="#000000" stroke-width="0.266666681" stroke-linecap="round" stroke-linejoin="round" stroke-dasharray="2.00133, 1.19867" transform="matrix(5 0 0 5 171.784 258.524)" />
	<path d="M -14.1001 -0.514099 L 14.1001 0.51416" fill="none" stroke="#000000" stroke-width="0.266666681" stroke-linecap="round" stroke-linejoin="round" marker-end="url(#CustomMarker-01)" transform="matrix(5 0 0 5 202.901 204.759)" />
	<g transform="matrix(1 0 -0 1 277.684 192.92)">
		<svg width="38.9999924" height="38.9253845">
			<defs />
			<path d="M 11.7339 12.7275 C 11.6456 13.0816, 11.4652 13.3466, 11.1944 13.5232, 10.9235 13.6999, 10.6511 13.7882, 10.3758 13.7875, 10.0932 13.7882, 9.85837 13.6977, 9.67215 13.5166, 9.53523 13.3841, 9.46236 13.2111, 9.45353 12.9984, 9.45353 12.913, 9.46972 12.8026, 9.50211 12.6687, 9.59118 12.3713, 9.72882 12.1453, 9.91432 11.9922, 10.1005 11.8391, 10.2301 11.7508, 10.303 11.7265, 10.1499 11.6094, 9.83408 11.5505, 9.35637 11.5498, 8.93606 11.5505, 8.55992 11.7684, 8.22868 12.2042, 7.89745 12.6399, 7.65012 13.164, 7.48818 13.7757 L 6.37228 18.0862 C 6.25892 18.519, 6.17427 18.9313, 6.1176 19.3229, 6.08521 19.4568, 6.06902 19.5746, 6.06902 19.6762, 6.06902 19.9206, 6.1095 20.1517, 6.19047 20.371, 6.27144 20.6073, 6.39289 20.7958, 6.55483 20.9371, 6.71677 21.0784, 6.92287 21.1491, 7.17314 21.1483, 7.49702 21.1491, 7.80838 21.0652, 8.10723 20.8959, 8.40682 20.7273, 8.68211 20.4998, 8.93238 20.2128, 9.18265 19.9264, 9.40495 19.593, 9.59927 19.2117, 9.7936 18.8311, 9.9467 18.4403, 10.0601 18.0391, 10.1086 17.836, 10.2463 17.7336, 10.4723 17.7329 L 10.7512 17.7329 C 10.9618 17.7336, 11.067 17.8124, 11.067 17.9685, 11.067 18.0163, 11.0552 18.0597, 11.031 18.098, 10.9176 18.5698, 10.7336 19.035, 10.4789 19.4944, 10.2242 19.9537, 9.92757 20.36, 9.5875 20.7133, 9.24743 21.0666, 8.86172 21.3574, 8.4289 21.5841, 7.99608 21.8123, 7.53309 21.9256, 7.03991 21.9256, 6.53864 21.9256, 6.10582 21.8182, 5.74219 21.6018, 5.37857 21.3868, 5.08266 21.1056, 4.85595 20.7597, 4.78381 20.6743, 4.72713 20.586, 4.68665 20.4954, 4.64616 20.4056, 4.63365 20.3916, 4.64985 20.4535, 4.45625 20.7759, 4.14931 21.102, 3.72827 21.4317, 3.30796 21.7615, 2.82288 21.9256, 2.27229 21.9256, 1.96535 21.9256, 1.66208 21.8866, 1.36249 21.8079, 1.06364 21.7298, 0.802334 21.6084, 0.580037 21.4435, 0.357739 21.2786, 0.189912 21.0784, 0.0765553 20.8421, 0.020613 20.7015, -0.00735823 20.5484, -0.00809431 20.3828, -0.00735823 20.2658, 0.00883562 20.1281, 0.0404872 19.9706, 0.129553 19.618, 0.311366 19.353, 0.586662 19.1764, 0.861957 18.9997, 1.13652 18.9114, 1.41108 18.9106, 1.69447 18.9114, 1.93738 19.0019, 2.13906 19.1815, 2.27671 19.3155, 2.34517 19.4885, 2.34517 19.6997, 2.34517 19.8101, 2.32897 19.9206, 2.29658 20.0295, 2.22445 20.3048, 2.09269 20.5271, 1.90278 20.6956, 1.71287 20.8649, 1.57669 20.957, 1.49573 20.9717, 1.64957 21.0983, 1.96093 21.1572, 2.42982 21.1483, 2.85086 21.1491, 3.23067 20.9297, 3.57001 20.4895, 3.91008 20.0501, 4.15667 19.5238, 4.31051 18.9106 L 5.43819 14.5766 C 5.55155 14.1688, 5.64061 13.7684, 5.70539 13.3753, 5.72158 13.2502, 5.72968 13.1324, 5.72968 13.022, 5.72968 12.7791, 5.69361 12.5516, 5.62 12.3389, 5.53977 12.1041, 5.41464 11.9142, 5.2446 11.7684, 5.07457 11.6234, 4.86405 11.5505, 4.61378 11.5498, 4.2899 11.5505, 3.97633 11.6352, 3.67306 11.8038, 3.36979 11.9731, 3.09303 12.1983, 2.84276 12.481, 2.59249 12.7636, 2.37019 13.0919, 2.17587 13.4644, 1.98154 13.8376, 1.84021 14.2321, 1.75041 14.6472, 1.66208 14.86, 1.51266 14.9697, 1.30214 14.977 L 1.03494 14.977 C 0.841347 14.9777, 0.744183 14.8798, 0.744183 14.6826 L 0.744183 14.6001 C 0.865637 14.1143, 1.05187 13.641, 1.30214 13.1817, 1.5524 12.7224, 1.85199 12.3161, 2.19942 11.9627, 2.54759 11.6094, 2.93624 11.3209, 3.36464 11.0971, 3.79304 10.8733, 4.25825 10.7615, 4.75879 10.7607, 5.2446 10.7615, 5.673 10.8675, 6.04472 11.0794, 6.41718 11.2914, 6.72045 11.5741, 6.95452 11.9267, 7.00311 12.0135, 7.04801 12.1063, 7.08849 12.2042, 7.12898 12.3028, 7.14075 12.3278, 7.12456 12.28, 7.32698 11.9355, 7.63835 11.5962, 8.05865 11.262, 8.47969 10.9285, 8.96035 10.7615, 9.50211 10.7607, 9.80979 10.7615, 10.1145 10.799, 10.4178 10.8733, 10.7211 10.9484, 10.9846 11.0677, 11.2069 11.2326, 11.4292 11.3974, 11.5933 11.6013, 11.6978 11.8442, 11.7545 11.9863, 11.7825 12.1475, 11.7825 12.3271, 11.7825 12.4456, 11.7663 12.5788, 11.7339 12.7275 Z" stroke="none" fill="#000000" />
			<rect />
		</svg>
	</g>
	<g transform="matrix(1 0 -0 1 155.95 55.3368)">
		<svg width="35.9860382" height="54.0341873">
			<defs />
			<path d="M 8.46975 21.5605 C 8.30045 22.2201, 8.03325 22.8502, 7.66963 23.4508, 7.306 24.0515, 6.87687 24.5859, 6.38369 25.0525, 5.89051 25.5199, 5.33698 25.899, 4.72235 26.189, 4.10772 26.4798, 3.4688 26.6248, 2.80485 26.6248, 2.40884 26.6248, 2.04521 26.5527, 1.71324 26.4069, 1.382 26.2619, 1.11112 26.0654, 0.900601 25.8181, 0.690081 25.5707, 0.548753 25.2785, 0.475881 24.9406, 0.443493 24.792, 0.427299 24.6388, 0.427299 24.4813, 0.427299 24.2774, 0.45159 24.0691, 0.500172 23.8571, 0.589238 23.5038, 0.77105 23.2388, 1.04635 23.0622, 1.32164 22.8855, 1.59252 22.7972, 1.85898 22.7972, 2.14237 22.7972, 2.38087 22.8877, 2.57446 23.068, 2.7121 23.202, 2.78056 23.3743, 2.78056 23.5863, 2.78056 23.6731, 2.76437 23.7791, 2.73198 23.9042, 2.64365 24.2576, 2.46184 24.5225, 2.18654 24.6992, 1.91124 24.8759, 1.69336 24.9642, 1.53143 24.9642, 1.58001 25.1762, 1.73164 25.3749, 1.98633 25.559, 2.24101 25.7437, 2.56636 25.8357, 2.96237 25.8357, 3.39961 25.8357, 3.80813 25.7179, 4.18795 25.4824, 4.56851 25.2469, 4.91668 24.9311, 5.23172 24.5343, 5.54676 24.1383, 5.82353 23.679, 6.06202 23.1564, 6.30051 22.6345, 6.49263 22.0868, 6.63838 21.5134 L 6.71125 21.2308 C 6.59053 21.3412, 6.33585 21.4847, 5.94719 21.6607, 5.55928 21.8373, 5.13456 21.9256, 4.67303 21.9256, 4.12391 21.9256, 3.63221 21.8241, 3.19939 21.6194, 2.76657 21.4163, 2.42503 21.102, 2.17403 20.6772, 1.93185 20.2223, 1.81482 19.7203, 1.82218 19.1697 L 1.82218 19.0755 C 1.83837 18.5029, 1.91124 17.9339, 2.0408 17.3678, 2.17035 16.8268, 2.35878 16.2306, 2.60537 15.5784, 2.85196 14.927, 3.08824 14.2947, 3.31422 13.6815, 3.55713 13.0308, 3.67858 12.4964, 3.67858 12.0798, 3.67858 11.7272, 3.52916 11.5505, 3.22957 11.5498, 2.95501 11.5505, 2.70622 11.6293, 2.48392 11.7861, 2.26162 11.9436, 2.0592 12.1615, 1.87738 12.4397, 1.69557 12.7187, 1.53143 13.0485, 1.38568 13.429, 1.23994 13.8103, 1.11922 14.2159, 1.02206 14.6472, 0.932989 14.86, 0.783564 14.9697, 0.573044 14.977 L 0.294068 14.977 C 0.0997419 14.9777, 0.00257882 14.8798, 0.00257882 14.6826 L 0.00257882 14.6001 C 0.115936 14.1688, 0.266097 13.7279, 0.45159 13.2759, 0.637819 12.8247, 0.87263 12.4147, 1.15529 12.0452, 1.43868 11.6764, 1.76256 11.3702, 2.12618 11.1266, 2.48981 10.8836, 2.90643 10.7615, 3.37532 10.7607, 3.78016 10.7615, 4.12539 10.8483, 4.41246 11.0206, 4.69953 11.1935, 4.91815 11.4232, 5.06757 11.7095, 5.21773 11.9966, 5.30018 12.3197, 5.31637 12.6804 L 5.31637 12.7629 C 5.31637 13.1015, 5.24791 13.4504, 5.10953 13.8111, 4.87545 14.4242, 4.64359 15.0506, 4.41246 15.6903, 4.18206 16.3307, 4.00246 16.9056, 3.87291 17.4157, 3.74336 17.9265, 3.65429 18.4322, 3.60571 18.9342, 3.57332 19.0682, 3.55345 19.2139, 3.54535 19.37, 3.54535 19.6769, 3.59835 19.9794, 3.70287 20.2768, 3.77575 20.5448, 3.90898 20.7567, 4.1033 20.9135, 4.29763 21.0711, 4.52802 21.1491, 4.79449 21.1483, 5.31269 21.1491, 5.76538 20.996, 6.1533 20.6898, 6.54195 20.3835, 6.88128 19.9831, 7.17204 19.4877 L 9.12487 11.8913 C 9.19848 11.6013, 9.34569 11.3879, 9.56799 11.2502, 9.79029 11.1133, 10.0148 11.0441, 10.2408 11.0434, 10.4756 11.0441, 10.6699 11.1148, 10.8237 11.2554, 10.929 11.3584, 10.9813 11.4953, 10.9813 11.6676, 10.9813 11.7544, 10.9732 11.845, 10.957 11.9385 Z" stroke="none" fill="#000000" />
			<rect />
		</svg>
	</g>
	<path d="M 5.16132 13.2229 L -5.16125 -13.2229" fill="none" stroke="#000000" stroke-width="0.266666681" stroke-linecap="round" stroke-linejoin="round" marker-end="url(#CustomMarker-02)" transform="matrix(5 0 0 5 106.045 135.861)" />
	<path d="M 0 16.8638 L 0 -16.8638" fill="none" stroke="#000000" stroke-width="0.266666681" stroke-linecap="round" stroke-linejoin="round" marker-end="url(#CustomMarker-03)" transform="matrix(5 0 0 5 132.401 120.461)" />
	<path d="M -3.30762 11.9316 L 3.3075 -11.9316" fill="none" stroke="#000000" stroke-width="0.266666681" stroke-linecap="round" stroke-linejoin="round" marker-end="url(#CustomMarker-04)" transform="matrix(5 0 0 5 148.473 142.53)" />
	<g transform="matrix(1 0 -0 1 124.922 6.84835)">
		<svg width="48.041851" height="38.9253845">
			<defs />
			<path d="M 14.442 10.9727 C 14.693 11.1935, 14.8549 11.5034, 14.9271 11.9031, 14.9432 12.1078, 14.9513 12.3197, 14.9513 12.5391, 14.9513 12.7364, 14.9432 12.9322, 14.9271 13.128, 14.8785 13.5681, 14.7997 14.0179, 14.6908 14.4772, 14.5818 14.9365, 14.4788 15.3509, 14.3816 15.719, 14.1873 16.4654, 13.9164 17.2059, 13.569 17.9397, 13.2215 18.6744, 12.8027 19.3354, 12.3132 19.9242, 11.8245 20.5131, 11.2665 20.9945, 10.6394 21.367, 10.0122 21.7394, 9.33134 21.9256, 8.59526 21.9256, 7.81059 21.9256, 7.23645 21.7004, 6.87282 21.2492, 6.5092 20.798, 6.29868 20.3401, 6.24126 19.8764, 5.91002 20.3799, 5.43304 20.8473, 4.81032 21.2786, 4.18759 21.71, 3.47579 21.9256, 2.67494 21.9256, 1.94768 21.9256, 1.37943 21.7298, 0.970901 21.3375, 0.56311 20.9452, 0.290023 20.4505, 0.152376 19.8528, 0.0552126 19.4612, 0.00295061 19.0255, -0.00588244 18.5455, -0.00588244 18.3188, 0.00221449 18.0906, 0.0184084 17.8625, 0.0831838 17.133, 0.209054 16.4028, 0.394547 15.6719, 0.605067 14.8953, 0.896556 14.1379, 1.26828 13.3996, 1.64074 12.662, 2.08533 11.951, 2.60206 11.2671, 2.68303 11.1501, 2.78829 11.0758, 2.91784 11.0434 L 3.00249 11.0434 C 3.06727 11.0441, 3.13204 11.0559, 3.19682 11.0787, 3.30208 11.1266, 3.36685 11.209, 3.39114 11.326 L 3.39114 11.3849 C 3.39114 11.4563, 3.35876 11.5388, 3.29398 11.6322, 2.8251 12.2925, 2.41289 12.9623, 2.05662 13.641, 1.7011 14.3204, 1.4339 15.0131, 1.25577 15.719, 1.11076 16.2615, 1.03788 16.7797, 1.03788 17.2736 L 1.06218 17.2971 C 1.06218 17.8477, 1.14094 18.3152, 1.29846 18.6994, 1.45598 19.0844, 1.68637 19.3884, 1.98964 19.6121, 2.29291 19.8359, 2.67125 19.9478, 3.12395 19.9471, 3.73048 19.9478, 4.30315 19.7697, 4.84049 19.4119, 5.37857 19.0549, 5.83347 18.5853, 6.20519 18.0038, 6.23758 17.6357, 6.29647 17.253, 6.38112 16.8562, 6.4665 16.4602, 6.55704 16.0649, 6.65421 15.6719, 6.6704 15.61, 6.6969 15.5099, 6.73297 15.3723, 6.76977 15.2354, 6.82424 15.0999, 6.89711 14.966, 6.96999 14.8327, 7.06715 14.7054, 7.18787 14.5832, 7.30932 14.4618, 7.47935 14.4007, 7.69724 14.3999, 7.90776 14.4007, 8.05571 14.4676, 8.14036 14.6009, 8.22574 14.7348, 8.2677 14.8754, 8.2677 15.0241, 8.2677 15.1581, 8.25151 15.2921, 8.21912 15.4253, 8.18673 15.5593, 8.16244 15.6572, 8.14625 15.719, 8.04908 16.1282, 7.92616 16.5368, 7.776 16.9446, 7.62657 17.3531, 7.46684 17.7417, 7.29681 18.1098, 7.36158 18.6442, 7.53383 19.0844, 7.8128 19.4296, 8.09178 19.7755, 8.4981 19.9478, 9.03176 19.9471, 9.52493 19.9478, 10.0107 19.8322, 10.4877 19.6004, 10.9647 19.3692, 11.4056 19.0586, 11.8097 18.6699, 12.2146 18.2813, 12.5642 17.8264, 12.8594 17.3038, 13.1546 16.7819, 13.371 16.2379, 13.5079 15.6719, 13.5889 15.3745, 13.6338 15.0801, 13.6411 14.7886, 13.6411 14.5221, 13.605 14.2674, 13.5322 14.023, 13.3791 13.5056, 13.1038 13.0698, 12.707 12.7158, 12.4972 12.5435, 12.392 12.3396, 12.392 12.1033, 12.392 12.0415, 12.4001 11.9863, 12.4163 11.9385, 12.4729 11.6565, 12.6047 11.4114, 12.8108 11.2031, 13.0169 10.9955, 13.2694 10.8476, 13.5682 10.7607, 13.6492 10.746, 13.7302 10.7379, 13.8111 10.7372, 14.046 10.7379, 14.2565 10.8167, 14.442 10.9727 Z" stroke="none" fill="#000000" />
			<rect />
		</svg>
	</g>
	<path d="M -3.09496 4.00932 C -4.59735 1.49007, -4.42961 -2.34722, -2.72031 -4.56151, -2.50916 -4.83504, -2.27958 -5.076, -2.03514 -5.28064" fill="none" stroke="#000000" stroke-width="0.231999993" stroke-linecap="round" stroke-linejoin="round" transform="matrix(5 0 -0 5 171.784 304.279)" />
	<g transform="matrix(1 0 -0 1 135.935 284.351)">
		<svg width="38.9999924" height="44.9689064">
			<defs />
			<path d="M 11.7841 13.0992 C 11.6025 13.8132, 11.2983 14.4824, 10.8701 15.1068, 10.442 15.7319, 9.93162 16.2796, 9.33846 16.7507, 8.7453 17.2218, 8.09509 17.5936, 7.38722 17.8647, 6.67936 18.1358, 5.95861 18.2714, 5.22375 18.2714 L 4.88024 18.2714 C 4.76554 18.2714, 4.6815 18.2683, 4.62752 18.2616 L 3.98038 21.6475 C 3.93376 21.9162, 3.81047 22.1125, 3.61172 22.2364, 3.41298 22.3609, 3.20565 22.4229, 2.98973 22.4229, 2.78118 22.4229, 2.61249 22.3542, 2.48429 22.2168, 2.39719 22.1518, 2.35302 22.0401, 2.35302 21.8831, 2.35302 21.7984, 2.36652 21.7034, 2.39351 21.5985 L 3.54548 18.0751 C 2.98605 17.9573, 2.45239 17.7537, 1.94327 17.4623, 1.43476 17.1715, 1.01887 16.8084, 0.694992 16.3729, 0.371729 15.938, 0.159491 15.4387, 0.0582796 14.8756, 0.0177951 14.667, -0.00244725 14.4443, -0.00244725 14.2082, -0.00244725 13.8555, 0.0447848 13.4727, 0.139249 13.0599, 0.307935 12.4128, 0.52692 11.7668, 0.796204 11.1222, 1.0661 10.4781, 1.4734 9.88062, 2.01933 9.3304, 2.07331 9.23962, 2.16471 9.19055, 2.29229 9.18319 L 2.39351 9.18319 C 2.46098 9.1838, 2.52109 9.21018, 2.57507 9.2617, 2.61556 9.3212, 2.6358 9.38315, 2.6358 9.44818 L 2.6358 9.48743 C 2.6358 9.55368, 2.60574 9.61563, 2.54502 9.67391, 2.07331 10.1585, 1.71631 10.6952, 1.4734 11.2841, 1.23111 11.873, 1.02562 12.4784, 0.856931 13.0992, 0.789456 13.3746, 0.755719 13.6297, 0.755719 13.8647, 0.755719 14.0745, 0.782709 14.2677, 0.836689 14.4437, 0.9379 14.8633, 1.1348 15.2283, 1.42801 15.5387, 1.72122 15.8497, 2.09232 16.1116, 2.54011 16.3238, 2.98789 16.5367, 3.46144 16.6851, 3.96014 16.7698 L 4.52631 15.0228 C 4.75572 14.356, 5.01519 13.6678, 5.30472 12.9575, 5.59424 12.2477, 5.93959 11.5969, 6.34076 11.0044, 6.74192 10.4124, 7.2075 9.92479, 7.73625 9.54203, 8.265 9.15926, 8.87656 8.96788, 9.57032 8.96727, 10.0893 8.96788, 10.5242 9.08565, 10.8744 9.3212, 11.2253 9.55675, 11.4897 9.87449, 11.6682 10.2732, 11.8473 10.6725, 11.943 11.1203, 11.9565 11.6172 L 11.9565 11.7546 C 11.9565 12.2067, 11.8994 12.655, 11.7841 13.0992 Z M 11.0664 13.0599 C 11.1339 12.8053, 11.1676 12.5532, 11.1676 12.3042, 11.1676 12.2067, 11.1609 12.1018, 11.1474 11.9901, 11.1069 11.6699, 11.0063 11.3859, 10.8444 11.1369, 10.6824 10.8884, 10.4671 10.6922, 10.1972 10.548, 9.92794 10.4045, 9.61817 10.3321, 9.2673 10.3315, 8.77535 10.3321, 8.31223 10.4615, 7.87733 10.7198, 7.44304 10.9786, 7.04862 11.3283, 6.69469 11.7699, 6.34137 12.2116, 6.04326 12.7207, 5.80035 13.2961, 5.55744 13.872, 5.37219 14.464, 5.24399 15.0719 L 4.89006 16.8973 C 4.93729 16.9047, 5.02133 16.9078, 5.14278 16.9072 L 5.5372 16.9072 C 6.14385 16.9078, 6.74683 16.8115, 7.34674 16.6182, 7.94665 16.4256, 8.49748 16.1588, 8.99925 15.8184, 9.50162 15.4785, 9.93653 15.0712, 10.3033 14.5965, 10.6708 14.1223, 10.9253 13.6101, 11.0664 13.0599 Z" stroke="none" fill="#000000" />
			<rect />
		</svg>
	</g>
	<path d="M -0.0270754 -14.9468 C 1.26087 -14.9516, 2.53825 -14.6132, 3.74018 -13.9486" fill="none" stroke="#000000" stroke-width="0.150000006" stroke-linecap="round" stroke-linejoin="round" transform="matrix(5 0 -0 5 132.401 201.975)" />
	<g transform="matrix(1 0 -0 1 135.935 98.6115)">
		<svg width="38.9999924" height="44.9689064">
			<defs />
			<path d="M 11.7841 13.0992 C 11.6025 13.8132, 11.2983 14.4824, 10.8701 15.1068, 10.442 15.7319, 9.93162 16.2796, 9.33846 16.7507, 8.7453 17.2218, 8.09509 17.5936, 7.38722 17.8647, 6.67936 18.1358, 5.95861 18.2714, 5.22375 18.2714 L 4.88024 18.2714 C 4.76554 18.2714, 4.6815 18.2683, 4.62752 18.2616 L 3.98038 21.6475 C 3.93376 21.9162, 3.81047 22.1125, 3.61172 22.2364, 3.41298 22.3609, 3.20565 22.4229, 2.98973 22.4229, 2.78118 22.4229, 2.61249 22.3542, 2.48429 22.2168, 2.39719 22.1518, 2.35302 22.0401, 2.35302 21.8831, 2.35302 21.7984, 2.36652 21.7034, 2.39351 21.5985 L 3.54548 18.0751 C 2.98605 17.9573, 2.45239 17.7537, 1.94327 17.4623, 1.43476 17.1715, 1.01887 16.8084, 0.694992 16.3729, 0.371729 15.938, 0.159491 15.4387, 0.0582796 14.8756, 0.0177951 14.667, -0.00244725 14.4443, -0.00244725 14.2082, -0.00244725 13.8555, 0.0447848 13.4727, 0.139249 13.0599, 0.307935 12.4128, 0.52692 11.7668, 0.796204 11.1222, 1.0661 10.4781, 1.4734 9.88062, 2.01933 9.3304, 2.07331 9.23962, 2.16471 9.19055, 2.29229 9.18319 L 2.39351 9.18319 C 2.46098 9.1838, 2.52109 9.21018, 2.57507 9.2617, 2.61556 9.3212, 2.6358 9.38315, 2.6358 9.44818 L 2.6358 9.48743 C 2.6358 9.55368, 2.60574 9.61563, 2.54502 9.67391, 2.07331 10.1585, 1.71631 10.6952, 1.4734 11.2841, 1.23111 11.873, 1.02562 12.4784, 0.856931 13.0992, 0.789456 13.3746, 0.755719 13.6297, 0.755719 13.8647, 0.755719 14.0745, 0.782709 14.2677, 0.836689 14.4437, 0.9379 14.8633, 1.1348 15.2283, 1.42801 15.5387, 1.72122 15.8497, 2.09232 16.1116, 2.54011 16.3238, 2.98789 16.5367, 3.46144 16.6851, 3.96014 16.7698 L 4.52631 15.0228 C 4.75572 14.356, 5.01519 13.6678, 5.30472 12.9575, 5.59424 12.2477, 5.93959 11.5969, 6.34076 11.0044, 6.74192 10.4124, 7.2075 9.92479, 7.73625 9.54203, 8.265 9.15926, 8.87656 8.96788, 9.57032 8.96727, 10.0893 8.96788, 10.5242 9.08565, 10.8744 9.3212, 11.2253 9.55675, 11.4897 9.87449, 11.6682 10.2732, 11.8473 10.6725, 11.943 11.1203, 11.9565 11.6172 L 11.9565 11.7546 C 11.9565 12.2067, 11.8994 12.655, 11.7841 13.0992 Z M 11.0664 13.0599 C 11.1339 12.8053, 11.1676 12.5532, 11.1676 12.3042, 11.1676 12.2067, 11.1609 12.1018, 11.1474 11.9901, 11.1069 11.6699, 11.0063 11.3859, 10.8444 11.1369, 10.6824 10.8884, 10.4671 10.6922, 10.1972 10.548, 9.92794 10.4045, 9.61817 10.3321, 9.2673 10.3315, 8.77535 10.3321, 8.31223 10.4615, 7.87733 10.7198, 7.44304 10.9786, 7.04862 11.3283, 6.69469 11.7699, 6.34137 12.2116, 6.04326 12.7207, 5.80035 13.2961, 5.55744 13.872, 5.37219 14.464, 5.24399 15.0719 L 4.89006 16.8973 C 4.93729 16.9047, 5.02133 16.9078, 5.14278 16.9072 L 5.5372 16.9072 C 6.14385 16.9078, 6.74683 16.8115, 7.34674 16.6182, 7.94665 16.4256, 8.49748 16.1588, 8.99925 15.8184, 9.50162 15.4785, 9.93653 15.0712, 10.3033 14.5965, 10.6708 14.1223, 10.9253 13.6101, 11.0664 13.0599 Z" stroke="none" fill="#000000" />
			<rect />
		</svg>
	</g>
	<path d="M -4.30206e-006 -1.92485 L 2.39869 -1.76888 C 4.55984 -1.47408, 6.073 -0.79305, 6.073 -1.85129e-006, 6.073 1.06306, 3.35403 1.92485, 1.26379e-005 1.92485, -3.35401 1.92485, -6.07299 1.06307, -6.073 -2.2946e-007, -6.073 -7.64867e-008, -6.073 7.64867e-008, -6.073 2.2946e-007" fill="none" stroke="#000000" stroke-width="0.266666681" stroke-linecap="round" stroke-linejoin="round" marker-start="url(#CustomMarker-05)" transform="matrix(5 0 -0 5 172.279 42.9793)" />
	<g transform="matrix(1 0 -0 1 206.458 28.5697)">
		<svg width="48.041851" height="38.9253845">
			<defs />
			<path d="M 14.442 10.9727 C 14.693 11.1935, 14.8549 11.5034, 14.9271 11.9031, 14.9432 12.1078, 14.9513 12.3197, 14.9513 12.5391, 14.9513 12.7364, 14.9432 12.9322, 14.9271 13.128, 14.8785 13.5681, 14.7997 14.0179, 14.6908 14.4772, 14.5818 14.9365, 14.4788 15.3509, 14.3816 15.719, 14.1873 16.4654, 13.9164 17.2059, 13.569 17.9397, 13.2215 18.6744, 12.8027 19.3354, 12.3132 19.9242, 11.8245 20.5131, 11.2665 20.9945, 10.6394 21.367, 10.0122 21.7394, 9.33134 21.9256, 8.59526 21.9256, 7.81059 21.9256, 7.23645 21.7004, 6.87282 21.2492, 6.5092 20.798, 6.29868 20.3401, 6.24126 19.8764, 5.91002 20.3799, 5.43304 20.8473, 4.81032 21.2786, 4.18759 21.71, 3.47579 21.9256, 2.67494 21.9256, 1.94768 21.9256, 1.37943 21.7298, 0.970901 21.3375, 0.56311 20.9452, 0.290023 20.4505, 0.152376 19.8528, 0.0552126 19.4612, 0.00295061 19.0255, -0.00588244 18.5455, -0.00588244 18.3188, 0.00221449 18.0906, 0.0184084 17.8625, 0.0831838 17.133, 0.209054 16.4028, 0.394547 15.6719, 0.605067 14.8953, 0.896556 14.1379, 1.26828 13.3996, 1.64074 12.662, 2.08533 11.951, 2.60206 11.2671, 2.68303 11.1501, 2.78829 11.0758, 2.91784 11.0434 L 3.00249 11.0434 C 3.06727 11.0441, 3.13204 11.0559, 3.19682 11.0787, 3.30208 11.1266, 3.36685 11.209, 3.39114 11.326 L 3.39114 11.3849 C 3.39114 11.4563, 3.35876 11.5388, 3.29398 11.6322, 2.8251 12.2925, 2.41289 12.9623, 2.05662 13.641, 1.7011 14.3204, 1.4339 15.0131, 1.25577 15.719, 1.11076 16.2615, 1.03788 16.7797, 1.03788 17.2736 L 1.06218 17.2971 C 1.06218 17.8477, 1.14094 18.3152, 1.29846 18.6994, 1.45598 19.0844, 1.68637 19.3884, 1.98964 19.6121, 2.29291 19.8359, 2.67125 19.9478, 3.12395 19.9471, 3.73048 19.9478, 4.30315 19.7697, 4.84049 19.4119, 5.37857 19.0549, 5.83347 18.5853, 6.20519 18.0038, 6.23758 17.6357, 6.29647 17.253, 6.38112 16.8562, 6.4665 16.4602, 6.55704 16.0649, 6.65421 15.6719, 6.6704 15.61, 6.6969 15.5099, 6.73297 15.3723, 6.76977 15.2354, 6.82424 15.0999, 6.89711 14.966, 6.96999 14.8327, 7.06715 14.7054, 7.18787 14.5832, 7.30932 14.4618, 7.47935 14.4007, 7.69724 14.3999, 7.90776 14.4007, 8.05571 14.4676, 8.14036 14.6009, 8.22574 14.7348, 8.2677 14.8754, 8.2677 15.0241, 8.2677 15.1581, 8.25151 15.2921, 8.21912 15.4253, 8.18673 15.5593, 8.16244 15.6572, 8.14625 15.719, 8.04908 16.1282, 7.92616 16.5368, 7.776 16.9446, 7.62657 17.3531, 7.46684 17.7417, 7.29681 18.1098, 7.36158 18.6442, 7.53383 19.0844, 7.8128 19.4296, 8.09178 19.7755, 8.4981 19.9478, 9.03176 19.9471, 9.52493 19.9478, 10.0107 19.8322, 10.4877 19.6004, 10.9647 19.3692, 11.4056 19.0586, 11.8097 18.6699, 12.2146 18.2813, 12.5642 17.8264, 12.8594 17.3038, 13.1546 16.7819, 13.371 16.2379, 13.5079 15.6719, 13.5889 15.3745, 13.6338 15.0801, 13.6411 14.7886, 13.6411 14.5221, 13.605 14.2674, 13.5322 14.023, 13.3791 13.5056, 13.1038 13.0698, 12.707 12.7158, 12.4972 12.5435, 12.392 12.3396, 12.392 12.1033, 12.392 12.0415, 12.4001 11.9863, 12.4163 11.9385, 12.4729 11.6565, 12.6047 11.4114, 12.8108 11.2031, 13.0169 10.9955, 13.2694 10.8476, 13.5682 10.7607, 13.6492 10.746, 13.7302 10.7379, 13.8111 10.7372, 14.046 10.7379, 14.2565 10.8167, 14.442 10.9727 Z" stroke="none" fill="#000000" />
			<rect />
		</svg>
	</g>
</svg>
