<?xml version="1.0"?>
<svg xmlns="http://www.w3.org/2000/svg" xmlns:xlink="http://www.w3.org/1999/xlink" width="821.094849" height="344.495392">
	<defs>
		<marker id="CustomMarker-01" markerUnits="strokeWidth" markerWidth="15.000001" markerHeight="9" viewBox="-15 -4.5 15 9" orient="auto-start-reverse">
			<path d="M 0 -0 L -10 -3, -8 -0.5, -8 0.5, -10 3 Z" fill="#000000" stroke="#000000" stroke-linejoin="round" />
		</marker>
		<marker id="CustomMarker-02" markerUnits="strokeWidth" markerWidth="21" markerHeight="9" viewBox="-21 -4.5 21 9" orient="auto-start-reverse">
			<path d="M 0 -0 L -14 -3, -14 -0.5, -14 0.5, -14 3 Z" fill="#000000" stroke="#000000" stroke-linejoin="round" />
		</marker>
		<marker id="CustomMarker-03" markerUnits="strokeWidth" markerWidth="21" markerHeight="9" viewBox="-21 -4.5 21 9" orient="auto-start-reverse">
			<path d="M 0 -0 L -14 -3, -14 -0.5, -14 0.5, -14 3 Z" fill="#000000" stroke="#000000" stroke-linejoin="round" />
		</marker>
		<marker id="CustomMarker-04" markerUnits="strokeWidth" markerWidth="21" markerHeight="9" viewBox="-21 -4.5 21 9" orient="auto-start-reverse">
			<path d="M 0 -0 L -14 -3, -14 -0.5, -14 0.5, -14 3 Z" fill="#000000" stroke="#000000" stroke-linejoin="round" />
		</marker>
		<marker id="CustomMarker-05" markerUnits="strokeWidth" markerWidth="21" markerHeight="9" viewBox="-21 -4.5 21 9" orient="auto-start-reverse">
			<path d="M 0 -0 L -14 -3, -14 -0.5, -14 0.5, -14 3 Z" fill="#000000" stroke="#000000" stroke-linejoin="round" />
		</marker>
		<marker id="CustomMarker-06" markerUnits="strokeWidth" markerWidth="21" markerHeight="12" viewBox="-21 -6 21 12" orient="auto-start-reverse">
			<path d="M 0 -0 L -14 -4, -14 -0.5, -14 0.5, -14 4 Z" fill="#000000" stroke="#000000" stroke-linejoin="round" />
		</marker>
		<marker id="CustomMarker-07" markerUnits="strokeWidth" markerWidth="21" markerHeight="12" viewBox="-21 -6 21 12" orient="auto-start-reverse">
			<path d="M 0 -0 L -14 -4, -14 -0.5, -14 0.5, -14 4 Z" fill="#000000" stroke="#000000" stroke-linejoin="round" />
		</marker>
	</defs>
	<path d="M 171 -0 C 171 94.4407, 94.4407 171, -0 171, -94.4407 171, -171 94.4407, -171 -0, -171 -94.4407, -94.4407 -171, -0 -171, 94.4407 -171, 171 -94.4407, 171 -0 Z" stroke="none" fill="#A5B882" fill-opacity="0.392156839" transform="matrix(0.555556 0 0 0.555556 156.125 156.024)" />
	<path d="M 171 -0 C 171 94.4407, 94.4407 171, -0 171, -94.4407 171, -171 94.4407, -171 -0, -171 -94.4407, -94.4407 -171, -0 -171, 94.4407 -171, 171 -94.4407, 171 -0 Z" fill="none" stroke="#000000" stroke-width="1.79999995" stroke-linecap="round" stroke-linejoin="round" transform="matrix(0.555556 0 0 0.555556 156.125 156.024)" />
	<g transform="matrix(1 0 -0 1 144.217 304.298)">
		<svg width="71.9860382" height="57.0559502">
			<defs />
			<path d="M 11.7339 14.1059 C 11.6456 14.46, 11.4652 14.725, 11.1944 14.9017, 10.9235 15.0783, 10.6511 15.1666, 10.3758 15.1659, 10.0932 15.1666, 9.85837 15.0761, 9.67215 14.895, 9.53523 14.7625, 9.46236 14.5896, 9.45353 14.3768, 9.45353 14.2914, 9.46972 14.181, 9.50211 14.0471, 9.59118 13.7497, 9.72882 13.5237, 9.91432 13.3706, 10.1005 13.2175, 10.2301 13.1292, 10.303 13.1049, 10.1499 12.9878, 9.83408 12.9289, 9.35637 12.9282, 8.93606 12.9289, 8.55992 13.1468, 8.22868 13.5826, 7.89745 14.0184, 7.65012 14.5424, 7.48818 15.1541 L 6.37228 19.4646 C 6.25892 19.8975, 6.17427 20.3097, 6.1176 20.7013, 6.08521 20.8352, 6.06902 20.953, 6.06902 21.0546, 6.06902 21.299, 6.1095 21.5301, 6.19047 21.7494, 6.27144 21.9857, 6.39289 22.1742, 6.55483 22.3155, 6.71677 22.4568, 6.92287 22.5275, 7.17314 22.5267, 7.49702 22.5275, 7.80838 22.4436, 8.10723 22.2743, 8.40682 22.1057, 8.68211 21.8783, 8.93238 21.5912, 9.18265 21.3048, 9.40495 20.9714, 9.59927 20.5901, 9.7936 20.2096, 9.9467 19.8187, 10.0601 19.4175, 10.1086 19.2144, 10.2463 19.1121, 10.4723 19.1113 L 10.7512 19.1113 C 10.9618 19.1121, 11.067 19.1908, 11.067 19.3469, 11.067 19.3947, 11.0552 19.4381, 11.031 19.4764, 10.9176 19.9482, 10.7336 20.4135, 10.4789 20.8728, 10.2242 21.3321, 9.92757 21.7384, 9.5875 22.0917, 9.24743 22.445, 8.86172 22.7358, 8.4289 22.9625, 7.99608 23.1907, 7.53309 23.3041, 7.03991 23.3041, 6.53864 23.3041, 6.10582 23.1966, 5.74219 22.9802, 5.37857 22.7652, 5.08266 22.4841, 4.85595 22.1381, 4.78381 22.0527, 4.72713 21.9644, 4.68665 21.8738, 4.64616 21.784, 4.63365 21.7701, 4.64985 21.8319, 4.45625 22.1543, 4.14931 22.4804, 3.72827 22.8101, 3.30796 23.1399, 2.82288 23.3041, 2.27229 23.3041, 1.96535 23.3041, 1.66208 23.265, 1.36249 23.1863, 1.06364 23.1083, 0.802334 22.9868, 0.580037 22.8219, 0.357739 22.657, 0.189912 22.4568, 0.0765553 22.2205, 0.020613 22.0799, -0.00735823 21.9268, -0.00809431 21.7612, -0.00735823 21.6442, 0.00883562 21.5065, 0.0404872 21.349, 0.129553 20.9964, 0.311366 20.7314, 0.586662 20.5548, 0.861957 20.3781, 1.13652 20.2898, 1.41108 20.2891, 1.69447 20.2898, 1.93738 20.3803, 2.13906 20.5599, 2.27671 20.6939, 2.34517 20.8669, 2.34517 21.0781, 2.34517 21.1885, 2.32897 21.299, 2.29658 21.4079, 2.22445 21.6832, 2.09269 21.9055, 1.90278 22.0741, 1.71287 22.2434, 1.57669 22.3354, 1.49573 22.3501, 1.64957 22.4767, 1.96093 22.5356, 2.42982 22.5267, 2.85086 22.5275, 3.23067 22.3081, 3.57001 21.868, 3.91008 21.4285, 4.15667 20.9022, 4.31051 20.2891 L 5.43819 15.955 C 5.55155 15.5472, 5.64061 15.1468, 5.70539 14.7537, 5.72158 14.6286, 5.72968 14.5108, 5.72968 14.4004, 5.72968 14.1575, 5.69361 13.93, 5.62 13.7173, 5.53977 13.4825, 5.41464 13.2926, 5.2446 13.1468, 5.07457 13.0018, 4.86405 12.9289, 4.61378 12.9282, 4.2899 12.9289, 3.97633 13.0136, 3.67306 13.1822, 3.36979 13.3515, 3.09303 13.5767, 2.84276 13.8594, 2.59249 14.142, 2.37019 14.4703, 2.17587 14.8428, 1.98154 15.216, 1.84021 15.6105, 1.75041 16.0257, 1.66208 16.2384, 1.51266 16.3481, 1.30214 16.3554 L 1.03494 16.3554 C 0.841347 16.3562, 0.744183 16.2583, 0.744183 16.061 L 0.744183 15.9785 C 0.865637 15.4927, 1.05187 15.0194, 1.30214 14.5601, 1.5524 14.1008, 1.85199 13.6945, 2.19942 13.3412, 2.54759 12.9878, 2.93624 12.6993, 3.36464 12.4755, 3.79304 12.2518, 4.25825 12.1399, 4.75879 12.1391, 5.2446 12.1399, 5.673 12.2459, 6.04472 12.4579, 6.41718 12.6698, 6.72045 12.9525, 6.95452 13.3051, 7.00311 13.3919, 7.04801 13.4847, 7.08849 13.5826, 7.12898 13.6812, 7.14075 13.7063, 7.12456 13.6584, 7.32698 13.3139, 7.63835 12.9746, 8.05865 12.6404, 8.47969 12.307, 8.96035 12.1399, 9.50211 12.1391, 9.80979 12.1399, 10.1145 12.1774, 10.4178 12.2518, 10.7211 12.3268, 10.9846 12.4461, 11.2069 12.611, 11.4292 12.7758, 11.5933 12.9797, 11.6978 13.2226, 11.7545 13.3647, 11.7825 13.5259, 11.7825 13.7055, 11.7825 13.824, 11.7663 13.9573, 11.7339 14.1059 Z" stroke="none" fill="#000000" />
			<path d="M 25.3307 -6.28359 C 25.4682 -5.74609, 25.2619 -5.34609, 24.7119 -5.08359 L 5.75566 3.41641, 15.9557 21.0164 C 16.2307 21.5539, 16.1619 22.0227, 15.7494 22.4164 L 15.5432 22.5164 C 14.9932 22.8539, 14.5119 22.7914, 14.0994 22.3164 L -0.00683784 7.51641, -14.1193 22.3164 C -14.4631 22.7914, -14.9443 22.8539, -15.5631 22.5164 L -15.7693 22.4164 C -16.1068 21.9539, -16.1756 21.4914, -15.9756 21.0164 L -5.77559 3.41641, -24.7318 -5.08359 C -25.2756 -5.34609, -25.4818 -5.74609, -25.3443 -6.28359 L -25.2443 -6.48359 C -24.9693 -7.07734, -24.5568 -7.27734, -24.0068 -7.08359 L -3.61309 -3.18359, -1.14434 -23.2836 C -1.00684 -23.8773, -0.663088 -24.1773, -0.113089 -24.1836 L 0.0931606 -24.1836 C 0.643162 -24.1773, 0.986912 -23.8773, 1.12441 -23.2836 L 3.59316 -3.18359, 23.9869 -7.08359 C 24.6119 -7.20859, 25.0244 -7.00859, 25.2244 -6.48359 L 25.3307 -6.28359 Z" stroke="none" fill="#000000" transform="matrix(0.135072 0 0 0.135072 19.371 9.54206)" />
			<rect />
		</svg>
	</g>
	<g transform="matrix(1 0 -0 1 314.152 137.353)">
		<svg width="68.9720764" height="71.9968796">
			<defs />
			<path d="M 8.46975 22.939 C 8.30045 23.5985, 8.03325 24.2286, 7.66963 24.8292, 7.306 25.4299, 6.87687 25.9643, 6.38369 26.4309, 5.89051 26.8984, 5.33698 27.2774, 4.72235 27.5675, 4.10772 27.8582, 3.4688 28.0032, 2.80485 28.0032, 2.40884 28.0032, 2.04521 27.9311, 1.71324 27.7853, 1.382 27.6403, 1.11112 27.4438, 0.900601 27.1965, 0.690081 26.9491, 0.548753 26.6569, 0.475881 26.3191, 0.443493 26.1704, 0.427299 26.0173, 0.427299 25.8597, 0.427299 25.6558, 0.45159 25.4475, 0.500172 25.2355, 0.589238 24.8822, 0.77105 24.6172, 1.04635 24.4406, 1.32164 24.2639, 1.59252 24.1756, 1.85898 24.1756, 2.14237 24.1756, 2.38087 24.2661, 2.57446 24.4465, 2.7121 24.5804, 2.78056 24.7527, 2.78056 24.9647, 2.78056 25.0515, 2.76437 25.1575, 2.73198 25.2826, 2.64365 25.636, 2.46184 25.901, 2.18654 26.0776, 1.91124 26.2543, 1.69336 26.3426, 1.53143 26.3426, 1.58001 26.5546, 1.73164 26.7533, 1.98633 26.9374, 2.24101 27.1221, 2.56636 27.2141, 2.96237 27.2141, 3.39961 27.2141, 3.80813 27.0964, 4.18795 26.8608, 4.56851 26.6253, 4.91668 26.3095, 5.23172 25.9127, 5.54676 25.5167, 5.82353 25.0574, 6.06202 24.5348, 6.30051 24.0129, 6.49263 23.4653, 6.63838 22.8918 L 6.71125 22.6092 C 6.59053 22.7196, 6.33585 22.8631, 5.94719 23.0391, 5.55928 23.2157, 5.13456 23.3041, 4.67303 23.3041, 4.12391 23.3041, 3.63221 23.2025, 3.19939 22.9978, 2.76657 22.7947, 2.42503 22.4804, 2.17403 22.0557, 1.93185 21.6008, 1.81482 21.0987, 1.82218 20.5482 L 1.82218 20.4539 C 1.83837 19.8813, 1.91124 19.3123, 2.0408 18.7462, 2.17035 18.2052, 2.35878 17.609, 2.60537 16.9568, 2.85196 16.3054, 3.08824 15.6731, 3.31422 15.0599, 3.55713 14.4092, 3.67858 13.8748, 3.67858 13.4582, 3.67858 13.1056, 3.52916 12.9289, 3.22957 12.9282, 2.95501 12.9289, 2.70622 13.0077, 2.48392 13.1645, 2.26162 13.322, 2.0592 13.5399, 1.87738 13.8181, 1.69557 14.0971, 1.53143 14.4269, 1.38568 14.8074, 1.23994 15.1887, 1.11922 15.5943, 1.02206 16.0257, 0.932989 16.2384, 0.783564 16.3481, 0.573044 16.3554 L 0.294068 16.3554 C 0.0997419 16.3562, 0.00257882 16.2583, 0.00257882 16.061 L 0.00257882 15.9785 C 0.115936 15.5472, 0.266097 15.1063, 0.45159 14.6543, 0.637819 14.2031, 0.87263 13.7931, 1.15529 13.4236, 1.43868 13.0548, 1.76256 12.7486, 2.12618 12.505, 2.48981 12.2621, 2.90643 12.1399, 3.37532 12.1391, 3.78016 12.1399, 4.12539 12.2267, 4.41246 12.399, 4.69953 12.5719, 4.91815 12.8016, 5.06757 13.0879, 5.21773 13.375, 5.30018 13.6982, 5.31637 14.0588 L 5.31637 14.1413 C 5.31637 14.4799, 5.24791 14.8288, 5.10953 15.1895, 4.87545 15.8026, 4.64359 16.429, 4.41246 17.0687, 4.18206 17.7091, 4.00246 18.284, 3.87291 18.7941, 3.74336 19.3049, 3.65429 19.8106, 3.60571 20.3126, 3.57332 20.4466, 3.55345 20.5923, 3.54535 20.7484, 3.54535 21.0553, 3.59835 21.3578, 3.70287 21.6552, 3.77575 21.9232, 3.90898 22.1352, 4.1033 22.2919, 4.29763 22.4495, 4.52802 22.5275, 4.79449 22.5267, 5.31269 22.5275, 5.76538 22.3744, 6.1533 22.0682, 6.54195 21.762, 6.88128 21.3615, 7.17204 20.8661 L 9.12487 13.2698 C 9.19848 12.9797, 9.34569 12.7663, 9.56799 12.6286, 9.79029 12.4917, 10.0148 12.4225, 10.2408 12.4218, 10.4756 12.4225, 10.6699 12.4932, 10.8237 12.6338, 10.929 12.7368, 10.9813 12.8737, 10.9813 13.046, 10.9813 13.1328, 10.9732 13.2234, 10.957 13.3169 Z" stroke="none" fill="#000000" />
			<path d="M 25.3307 -6.28359 C 25.4682 -5.74609, 25.2619 -5.34609, 24.7119 -5.08359 L 5.75566 3.41641, 15.9557 21.0164 C 16.2307 21.5539, 16.1619 22.0227, 15.7494 22.4164 L 15.5432 22.5164 C 14.9932 22.8539, 14.5119 22.7914, 14.0994 22.3164 L -0.00683784 7.51641, -14.1193 22.3164 C -14.4631 22.7914, -14.9443 22.8539, -15.5631 22.5164 L -15.7693 22.4164 C -16.1068 21.9539, -16.1756 21.4914, -15.9756 21.0164 L -5.77559 3.41641, -24.7318 -5.08359 C -25.2756 -5.34609, -25.4818 -5.74609, -25.3443 -6.28359 L -25.2443 -6.48359 C -24.9693 -7.07734, -24.5568 -7.27734, -24.0068 -7.08359 L -3.61309 -3.18359, -1.14434 -23.2836 C -1.00684 -23.8773, -0.663088 -24.1773, -0.113089 -24.1836 L 0.0931606 -24.1836 C 0.643162 -24.1773, 0.986912 -23.8773, 1.12441 -23.2836 L 3.59316 -3.18359, 23.9869 -7.08359 C 24.6119 -7.20859, 25.0244 -7.00859, 25.2244 -6.48359 L 25.3307 -6.28359 Z" stroke="none" fill="#000000" transform="matrix(0.135072 0 0 0.135072 18.5591 9.54206)" />
			<rect />
		</svg>
	</g>
	<path d="M 89.22 -0 C 89.22 77.1082, 49.2748 139.617, -0 139.617, -49.2748 139.617, -89.22 77.1082, -89.22 -0, -89.22 -77.1082, -49.2748 -139.617, -0 -139.617, 49.2748 -139.617, 89.22 -77.1082, 89.22 -0 Z" stroke="none" fill="#F87790" fill-opacity="0.392156839" transform="matrix(0.555556 0 0 0.555556 156.125 200.5)" />
	<path d="M 89.22 -0 C 89.22 77.1082, 49.2748 139.617, -0 139.617, -49.2748 139.617, -89.22 77.1082, -89.22 -0, -89.22 -77.1082, -49.2748 -139.617, -0 -139.617, 49.2748 -139.617, 89.22 -77.1082, 89.22 -0 Z" fill="none" stroke="#000000" stroke-width="1.79999995" stroke-linecap="round" stroke-linejoin="round" transform="matrix(0.555556 0 0 0.555556 156.125 200.5)" />
	<g transform="matrix(1 0 -0 1 159.338 133.882)">
		<svg width="48.041851" height="48.158535">
			<defs />
			<path d="M 13.5341 8.56487 C 13.5145 8.65075, 13.4722 8.72436, 13.4084 8.78631, 13.3446 8.84888, 13.2753 8.87955, 13.2011 8.87894, 13.1876 8.89243, 13.1538 8.89918, 13.0998 8.89857, 13.0189 8.89918, 12.9784 8.89243, 12.9784 8.87894 L 12.9581 8.87894 C 12.7833 8.87955, 12.6956 8.80778, 12.6956 8.66302 L 12.6956 8.59432 C 12.7361 8.28762, 12.7692 7.97662, 12.7962 7.66195, 12.8232 7.42026, 12.8367 7.19821, 12.8367 6.99456 L 12.8367 6.82772 C 12.8232 6.56641, 12.7931 6.33147, 12.7459 6.12169, 12.6993 5.91252, 12.6183 5.73893, 12.503 5.60091, 12.2472 5.30034, 11.8816 5.12246, 11.4069 5.06664, 10.9321 5.01143, 10.4144 4.98321, 9.85494 4.9826 L 7.8025 4.9826 C 7.44549 4.98321, 7.23694 5.00959, 7.17621 5.06112, 7.14247 5.0881, 7.075 5.28071, 6.97379 5.64017 L 5.65988 10.6946, 7.01427 10.6946 C 7.37127 10.6952, 7.70006 10.6823, 8.00001 10.656, 8.29996 10.6302, 8.55759 10.5284, 8.7729 10.3511, 8.96183 10.2014, 9.11027 9.97386, 9.21823 9.66961, 9.32619 9.36537, 9.43353 9.02983, 9.54149 8.66302, 9.56174 8.57224, 9.61081 8.49863, 9.6881 8.44281, 9.76538 8.3876, 9.84819 8.35938, 9.93591 8.35877 L 10.0972 8.35877 C 10.1917 8.35938, 10.2764 8.3919, 10.35 8.45692, 10.3769 8.50967, 10.3904 8.55874, 10.3904 8.60413, 10.3904 8.644, 10.3806 8.68019, 10.3604 8.71209 L 9.12683 13.5702 C 9.05322 13.7671, 8.92134 13.8653, 8.73241 13.8647 L 8.57109 13.8647 C 8.38952 13.8653, 8.29138 13.78, 8.27788 13.6095 L 8.27788 13.531 C 8.38584 13.139, 8.46374 12.7888, 8.51036 12.4808, 8.52386 12.4097, 8.5306 12.341, 8.5306 12.2747, 8.5306 12.0919, 8.49012 11.9447, 8.40915 11.8331, 8.29506 11.6767, 8.09447 11.5834, 7.80802 11.554, 7.52156 11.5245, 7.2032 11.5098, 6.85233 11.5092 L 5.43721 11.5092, 4.13312 16.6225 C 4.10613 16.7213, 4.09263 16.8164, 4.09263 16.9072, 4.09263 17.0127, 4.11962 17.0746, 4.1736 17.0936, 4.3153 17.1531, 4.56986 17.1912, 4.93667 17.2071, 5.3041 17.2237, 5.68012 17.2316, 6.06411 17.231, 6.25304 17.2316, 6.34689 17.3102, 6.34689 17.4666, 6.34689 17.5065, 6.34014 17.5488, 6.32665 17.5942 L 6.28616 17.7512 C 6.21255 17.9475, 6.08435 18.0456, 5.90217 18.0456, 4.979 18.0199, 4.05215 18.0002, 3.12223 17.9867 L 2.70757 17.9867 C 1.90585 17.9867, 1.10045 18.0064, 0.291985 18.0456, 0.190773 18.0456, 0.116552 18.0162, 0.0693194 17.9573, 0.0227008 17.9119, -0.00060853 17.8628, -0.00122194 17.8101, -0.00060853 17.7714, 0.00613891 17.7322, 0.0190204 17.6923 L 0.059505 17.5451 C 0.0797473 17.4604, 0.126979 17.3875, 0.201201 17.3249, 0.275423 17.2629, 0.359459 17.2316, 0.45331 17.231, 0.770439 17.2316, 1.06733 17.2267, 1.34336 17.2169, 1.61939 17.2071, 1.82856 17.1728, 1.96964 17.1133, 2.0911 17.0482, 2.18556 16.8716, 2.25304 16.5833 L 5.09371 5.59109 C 5.13419 5.44756, 5.15443 5.33347, 5.15443 5.24759, 5.15443 5.16969, 5.13787 5.12368, 5.10352 5.11019, 5.00906 5.05191, 4.82381 5.01634, 4.54778 5.00284, 4.27175 4.98996, 3.97486 4.98321, 3.65773 4.9826, 3.46941 4.98321, 3.37495 4.89488, 3.37495 4.71761 L 3.37495 4.64891, 3.41543 4.48206 C 3.46941 4.26676, 3.6013 4.1588, 3.80985 4.15819 L 13.7869 4.15819 C 13.9758 4.1588, 14.0702 4.26369, 14.0702 4.47225 Z" stroke="none" fill="#000000" />
			<rect />
		</svg>
	</g>
	<ellipse cx="548.91933584213257" cy="326.51653432846069" rx="4.7249999046325684" ry="4.7249999046325684" stroke="none" fill="#000000" transform="matrix(0.555556 0 0 0.555556 -148.83 -25.3745)" />
	<ellipse cx="626.20595693588257" cy="479.05413198471069" rx="4.7249999046325684" ry="4.7249999046325684" stroke="none" fill="#000000" transform="matrix(0.555556 0 0 0.555556 -148.83 -25.3745)" />
	<path d="M -38.6433 -76.268 L 38.6433 76.2696" fill="none" stroke="#000000" stroke-width="1.79999995" stroke-linecap="round" stroke-linejoin="round" transform="matrix(0.555556 0 0 0.555556 177.593 198.395)" />
	<path d="M 24.7033 48.7562 C 17.0465 52.6357, 8.58356 54.6572, 8.98383e-006 54.6573" fill="none" stroke="#000000" stroke-width="1.3499999" stroke-linecap="round" stroke-linejoin="round" transform="matrix(0.555556 0 -0 0.555556 156.125 156.024)" />
	<g transform="matrix(1 0 -0 1 158.994 181.388)">
		<svg width="38.9999924" height="33.049736">
			<defs />
			<path d="M 11.8114 10.2628 C 11.5691 11.1792, 11.2256 12.0631, 10.7803 12.9133, 10.3355 13.7641, 9.80986 14.5357, 9.2032 15.2289, 9.2032 15.5503, 9.20995 15.8613, 9.22345 16.1619, 9.23694 16.4631, 9.26761 16.7262, 9.31484 16.9519, 9.36208 17.1777, 9.4228 17.3464, 9.49641 17.4574, 9.57063 17.569, 9.66816 17.6242, 9.78962 17.6236, 10.0123 17.6242, 10.2245 17.5359, 10.4269 17.3592, 10.6294 17.1826, 10.7606 16.9697, 10.8207 16.7207, 10.8612 16.5379, 10.9796 16.4465, 11.1747 16.4459 L 11.2961 16.4459 C 11.4513 16.4465, 11.5354 16.525, 11.5489 16.6814 L 11.5489 16.7501 C 11.5016 16.9599, 11.4176 17.1568, 11.2961 17.3396, 11.1747 17.523, 11.0281 17.685, 10.8563 17.8254, 10.6846 17.9659, 10.4975 18.0751, 10.2951 18.1536, 10.0933 18.2321, 9.88101 18.2714, 9.65835 18.2714, 9.07194 18.2714, 8.62722 18.0953, 8.3242 17.742, 8.02118 17.3887, 7.8255 17.0188, 7.73778 16.6324, 7.15137 17.1108, 6.48092 17.5034, 5.72582 17.8107, 4.97133 18.118, 4.18618 18.2714, 3.37035 18.2714, 2.7778 18.2714, 2.23862 18.1505, 1.75342 17.9088, 1.26822 17.6672, 0.884228 17.32, 0.600836 16.8679, 0.297815 16.4299, 0.108887 15.9233, 0.0346648 15.3467, 0.00767505 15.1835, -0.00581986 15.0068, -0.00581986 14.8167, -0.00581986 14.4247, 0.0518401 14.0193, 0.165933 13.5997, 0.327872 12.9918, 0.586114 12.4078, 0.939435 11.8484, 1.29337 11.289, 1.73318 10.7836, 2.25825 10.3315, 2.77106 9.91314, 3.32557 9.58128, 3.9218 9.33592, 4.51803 9.09056, 5.11303 8.96788, 5.70558 8.96727, 6.27175 8.96788, 6.77229 9.07461, 7.20658 9.28685, 7.64148 9.4997, 8.00891 9.78616, 8.30886 10.1456, 8.60882 10.5057, 8.83271 10.9259, 8.98115 11.4068, 9.1296 11.8877, 9.2032 12.3931, 9.2032 12.9225 L 9.2032 14.218 C 9.56082 13.7543, 9.91782 13.1623, 10.2748 12.4422, 10.6318 11.7227, 10.9048 10.9866, 11.0937 10.2333, 11.1342 10.0505, 11.2526 9.95607, 11.4476 9.94871 L 11.5489 9.94871 C 11.7243 9.94933, 11.8114 10.0278, 11.8114 10.1843 L 11.8114 10.2628 Z M 7.6059 15.9355 C 7.59977 15.8901, 7.59302 15.822, 7.58627 15.73, 7.57952 15.6386, 7.57584 15.5466, 7.57584 15.4546 L 7.57584 13.2464 C 7.57584 12.7691, 7.54395 12.3134, 7.48015 11.8779, 7.41636 11.443, 7.31147 11.0553, 7.16671 10.7149, 7.02194 10.375, 6.82259 10.1082, 6.56986 9.91498, 6.31714 9.72237, 5.98897 9.62545, 5.58412 9.62484, 5.20688 9.62545, 4.82596 9.72543, 4.44197 9.92479, 4.05798 10.1248, 3.71447 10.3977, 3.41084 10.7437, 3.03359 11.1633, 2.74529 11.6196, 2.54655 12.1134, 2.34781 12.6078, 2.18096 13.1194, 2.04601 13.6488, 1.91168 14.1726, 1.81415 14.6768, 1.75281 15.1602, 1.73931 15.2853, 1.73257 15.4092, 1.73257 15.5331, 1.73257 15.8803, 1.79023 16.214, 1.90493 16.5342, 2.03313 16.8618, 2.23188 17.1255, 2.50116 17.3249, 2.77106 17.5249, 3.09432 17.6242, 3.47156 17.6236, 4.23341 17.6242, 4.96643 17.4739, 5.67061 17.1728, 6.3748 16.8722, 7.0201 16.4594, 7.6059 15.9355 Z" stroke="none" fill="#000000" />
			<rect />
		</svg>
	</g>
	<g transform="matrix(1 0 -0 1 201.512 237.577)">
		<svg width="261.027832" height="68.9751129">
			<defs />
			<path d="M 13.9062 9.72768 C 13.7583 10.2583, 13.5056 10.7478, 13.1486 11.1956, 12.7916 11.644, 12.3665 12.0316, 11.8746 12.358, 11.3421 12.7248, 10.7747 13.0014, 10.1711 13.1879, 9.56817 13.3744, 8.97011 13.4676, 8.37694 13.467 L 5.37434 13.467, 4.11072 18.3742 C 4.07024 18.519, 4.05 18.6331, 4.05 18.7177, 4.05 18.7969, 4.06717 18.8459, 4.10091 18.8649, 4.19537 18.9244, 4.38062 18.9588, 4.65665 18.9686, 4.9333 18.9784, 5.22957 18.9833, 5.54609 18.9827, 5.73502 18.9833, 5.82948 19.0747, 5.82948 19.2575 L 5.82948 19.3262, 5.789 19.5029 C 5.71477 19.6992, 5.58351 19.7973, 5.39458 19.7973, 4.55237 19.7581, 3.70649 19.7384, 2.85754 19.7384, 2.00184 19.7384, 1.14615 19.7581, 0.289836 19.7973, 0.108268 19.7973, 0.0107371 19.7127, -0.00337116 19.5421 L -0.00337116 19.4636, 0.0371135 19.2968 C 0.091093 19.0815, 0.222361 18.9766, 0.430918 18.9827, 0.748048 18.9833, 1.048 18.9784, 1.33078 18.9686, 1.61417 18.9588, 1.82273 18.9244, 1.95768 18.8649, 2.08588 18.7938, 2.18341 18.6171, 2.25089 18.335 L 5.09156 7.27407 C 5.13204 7.13053, 5.15167 7.01951, 5.15167 6.94038, 5.15167 6.86248, 5.13511 6.81647, 5.10137 6.80297, 5.00691 6.7447, 4.8235 6.70912, 4.55053 6.69563, 4.27757 6.68275, 3.97946 6.676, 3.65558 6.67539, 3.46726 6.676, 3.3728 6.58767, 3.3728 6.4104 L 3.3728 6.33188, 3.43353 6.16504 C 3.47401 5.96936, 3.59915 5.87122, 3.8077 5.8706 L 10.2871 5.8706 C 10.8809 5.87122, 11.4317 5.96445, 11.9402 6.15093, 12.4493 6.3374, 12.8855 6.61711, 13.2492 6.98945, 13.5792 7.33664, 13.8117 7.74884, 13.9466 8.22607, 13.9871 8.44935, 14.0074 8.67508, 14.0074 8.90327, 14.0074 9.1658, 13.9736 9.44061, 13.9062 9.72768 Z M 11.7531 9.67861 C 11.8678 9.26702, 11.9451 8.86769, 11.9856 8.48125 L 11.9856 8.30459 C 11.9856 8.00402, 11.9016 7.72921, 11.7329 7.48017, 11.5108 7.18635, 11.2139 6.97902, 10.8434 6.85757, 10.4729 6.73673, 10.0718 6.676, 9.64056 6.67539 L 7.73962 6.67539 C 7.39611 6.676, 7.19062 6.70238, 7.12315 6.75452, 7.05567 6.80727, 6.98513 6.99313, 6.91091 7.31333 L 5.5056 12.7309, 8.03283 12.7309 C 8.47079 12.7315, 8.90938 12.6696, 9.34735 12.545, 9.78532 12.4211, 10.1963 12.2083, 10.5803 11.9065, 10.9244 11.6127, 11.179 11.2692, 11.344 10.8766, 11.509 10.484, 11.6452 10.0847, 11.7531 9.67861 Z" stroke="none" fill="#000000" />
			<path d="M 34.5425 12.358 C 34.4689 12.653, 34.3186 12.8738, 34.0929 13.021, 33.8672 13.1683, 33.6402 13.2419, 33.4108 13.2413, 33.1752 13.2419, 32.9796 13.1664, 32.8244 13.0155, 32.7103 12.9051, 32.6495 12.761, 32.6422 12.5837, 32.6422 12.5125, 32.6557 12.4205, 32.6827 12.3089, 32.7569 12.0611, 32.8716 11.8728, 33.0262 11.7452, 33.1814 11.6176, 33.2893 11.544, 33.3501 11.5237, 33.2225 11.4262, 32.9593 11.3771, 32.5612 11.3765, 32.211 11.3771, 31.8975 11.5587, 31.6215 11.9218, 31.3455 12.285, 31.1393 12.7217, 31.0044 13.2314 L 30.0745 16.8235 C 29.98 17.1842, 29.9095 17.5277, 29.8622 17.854, 29.8353 17.9657, 29.8218 18.0638, 29.8218 18.1485, 29.8218 18.3521, 29.8555 18.5447, 29.923 18.7275, 29.9904 18.9244, 30.0917 19.0815, 30.2266 19.1992, 30.3616 19.317, 30.5333 19.3759, 30.7419 19.3753, 31.0118 19.3759, 31.2712 19.306, 31.5203 19.1649, 31.7699 19.0244, 31.9993 18.8349, 32.2079 18.5957, 32.4165 18.357, 32.6017 18.0792, 32.7636 17.7614, 32.9256 17.4443, 33.0532 17.1186, 33.1476 16.7843, 33.1881 16.615, 33.3028 16.5297, 33.4911 16.5291 L 33.7236 16.5291 C 33.899 16.5297, 33.9868 16.5953, 33.9868 16.7254, 33.9868 16.7653, 33.977 16.8014, 33.9567 16.8333, 33.8622 17.2265, 33.7089 17.6142, 33.4967 17.997, 33.2844 18.3797, 33.0372 18.7183, 32.7538 19.0128, 32.4704 19.3072, 32.149 19.5495, 31.7883 19.7384, 31.4276 19.9286, 31.0418 20.023, 30.6308 20.023, 30.2131 20.023, 29.8524 19.9335, 29.5494 19.7531, 29.2464 19.574, 28.9998 19.3397, 28.8109 19.0514, 28.7508 18.9803, 28.7035 18.9066, 28.6698 18.8312, 28.636 18.7564, 28.6256 18.7447, 28.6391 18.7962, 28.4778 19.0649, 28.222 19.3366, 27.8711 19.6115, 27.5209 19.8863, 27.1166 20.023, 26.6578 20.023, 26.402 20.023, 26.1493 19.9905, 25.8997 19.9249, 25.6506 19.8599, 25.4329 19.7587, 25.2476 19.6213, 25.0624 19.4839, 24.9225 19.317, 24.828 19.1201, 24.7814 19.003, 24.7581 18.8754, 24.7575 18.7374, 24.7581 18.6398, 24.7716 18.5251, 24.798 18.3938, 24.8722 18.1, 25.0237 17.8792, 25.2531 17.732, 25.4825 17.5848, 25.7113 17.5112, 25.9401 17.5105, 26.1763 17.5112, 26.3787 17.5866, 26.5468 17.7363, 26.6615 17.8479, 26.7185 17.9921, 26.7185 18.1681, 26.7185 18.2601, 26.7051 18.3521, 26.6781 18.4429, 26.618 18.6723, 26.5082 18.8576, 26.3499 18.998, 26.1916 19.1391, 26.0782 19.2158, 26.0107 19.2281, 26.1389 19.3336, 26.3984 19.3827, 26.7891 19.3753, 27.14 19.3759, 27.4565 19.1931, 27.7393 18.8263, 28.0226 18.4601, 28.2281 18.0215, 28.3563 17.5105 L 29.2961 13.8988 C 29.3905 13.559, 29.4648 13.2253, 29.5187 12.8978, 29.5322 12.7935, 29.539 12.6953, 29.539 12.6033, 29.539 12.4009, 29.5089 12.2114, 29.4476 12.0341, 29.3807 11.8384, 29.2764 11.6801, 29.1347 11.5587, 28.993 11.4379, 28.8176 11.3771, 28.6091 11.3765, 28.3392 11.3771, 28.0779 11.4477, 27.8251 11.5881, 27.5724 11.7292, 27.3418 11.9169, 27.1332 12.1525, 26.9247 12.388, 26.7394 12.6616, 26.5775 12.972, 26.4155 13.283, 26.2978 13.6118, 26.2229 13.9577, 26.1493 14.135, 26.0248 14.2264, 25.8494 14.2325 L 25.6267 14.2325 C 25.4654 14.2331, 25.3844 14.1515, 25.3844 13.9872 L 25.3844 13.9185 C 25.4856 13.5136, 25.6408 13.1192, 25.8494 12.7364, 26.0579 12.3537, 26.3076 12.0151, 26.5971 11.7206, 26.8872 11.4262, 27.2111 11.1857, 27.5681 10.9993, 27.9251 10.8128, 28.3128 10.7196, 28.7299 10.7189, 29.1347 10.7196, 29.4917 10.8079, 29.8015 10.9845, 30.1119 11.1612, 30.3646 11.3968, 30.5597 11.6906, 30.6002 11.763, 30.6376 11.8402, 30.6713 11.9218, 30.7051 12.004, 30.7149 12.0249, 30.7014 11.985, 30.8701 11.6979, 31.1295 11.4152, 31.4798 11.1367, 31.8307 10.8588, 32.2312 10.7196, 32.6827 10.7189, 32.9391 10.7196, 33.193 10.7508, 33.4457 10.8128, 33.6985 10.8754, 33.9181 10.9747, 34.1033 11.1121, 34.2886 11.2495, 34.4254 11.4194, 34.5125 11.6219, 34.5597 11.7403, 34.583 11.8746, 34.583 12.0243, 34.583 12.123, 34.5695 12.234, 34.5425 12.358 Z" stroke="none" fill="#000000" />
			<path d="M 25.3307 -6.28359 C 25.4682 -5.74609, 25.2619 -5.34609, 24.7119 -5.08359 L 5.75566 3.41641, 15.9557 21.0164 C 16.2307 21.5539, 16.1619 22.0227, 15.7494 22.4164 L 15.5432 22.5164 C 14.9932 22.8539, 14.5119 22.7914, 14.0994 22.3164 L -0.00683784 7.51641, -14.1193 22.3164 C -14.4631 22.7914, -14.9443 22.8539, -15.5631 22.5164 L -15.7693 22.4164 C -16.1068 21.9539, -16.1756 21.4914, -15.9756 21.0164 L -5.77559 3.41641, -24.7318 -5.08359 C -25.2756 -5.34609, -25.4818 -5.74609, -25.3443 -6.28359 L -25.2443 -6.48359 C -24.9693 -7.07734, -24.5568 -7.27734, -24.0068 -7.08359 L -3.61309 -3.18359, -1.14434 -23.2836 C -1.00684 -23.8773, -0.663088 -24.1773, -0.113089 -24.1836 L 0.0931606 -24.1836 C 0.643162 -24.1773, 0.986912 -23.8773, 1.12441 -23.2836 L 3.59316 -3.18359, 23.9869 -7.08359 C 24.6119 -7.20859, 25.0244 -7.00859, 25.2244 -6.48359 L 25.3307 -6.28359 Z" stroke="none" fill="#000000" transform="matrix(0.11256 0 0 0.11256 40.9068 8.55472)" />
			<path d="M 50.6541 19.6403 C 50.6541 20.4058, 50.4977 21.129, 50.1843 21.8093, 49.8708 22.4902, 49.431 23.0919, 48.8648 23.6151, 48.8047 23.6544, 48.7373 23.674, 48.6624 23.674, 48.6091 23.674, 48.5385 23.6544, 48.4502 23.6151 L 48.3999 23.5366 C 48.3459 23.4845, 48.3189 23.4256, 48.3189 23.36, 48.3189 23.3011, 48.3459 23.2324, 48.3999 23.1539, 48.9121 22.6828, 49.3047 22.1466, 49.5776 21.5443, 49.8506 20.9425, 49.9868 20.3077, 49.9868 19.6403, 49.9868 19.5949, 49.9837 19.5446, 49.977 19.4888, 49.9702 19.4336, 49.9665 19.4673, 49.9665 19.5912, 49.8592 19.7157, 49.6101 19.7777, 49.2188 19.7777, 48.828 19.7777, 48.5318 19.6575, 48.3293 19.4152, 48.1269 19.1735, 48.0257 18.9048, 48.0257 18.6098, 48.0257 18.3159, 48.1269 18.0497, 48.3293 17.8105, 48.5318 17.5719, 48.828 17.4523, 49.2188 17.4517, 49.5083 17.4523, 49.7445 17.5259, 49.926 17.6731, 50.1082 17.8203, 50.253 17.9988, 50.3609 18.208, 50.4689 18.4178, 50.545 18.6496, 50.5885 18.9048, 50.6327 19.16, 50.6541 19.4053, 50.6541 19.6403 Z" stroke="none" fill="#000000" />
			<path d="M 61.6938 19.7188 C 61.5527 20.2684, 61.3301 20.7935, 61.027 21.294, 60.724 21.7946, 60.3664 22.2399, 59.9554 22.6288, 59.5444 23.0183, 59.0832 23.3342, 58.571 23.5759, 58.0588 23.8182, 57.5263 23.939, 56.9731 23.939, 56.643 23.939, 56.34 23.8789, 56.0634 23.7574, 55.7873 23.6366, 55.5616 23.4728, 55.3862 23.2667, 55.2108 23.0606, 55.093 22.8171, 55.0322 22.5355, 55.0053 22.4116, 54.9918 22.284, 54.9918 22.1528, 54.9918 21.9829, 55.012 21.8093, 55.0525 21.6326, 55.1267 21.3382, 55.2782 21.1174, 55.5076 20.9701, 55.737 20.8229, 55.9628 20.7493, 56.1848 20.7493, 56.421 20.7493, 56.6197 20.8248, 56.7811 20.975, 56.8958 21.0867, 56.9528 21.2302, 56.9528 21.4069, 56.9528 21.4793, 56.9393 21.5676, 56.9123 21.6719, 56.8387 21.9663, 56.6872 22.1871, 56.4578 22.3343, 56.2284 22.4816, 56.0468 22.5552, 55.9119 22.5552, 55.9524 22.7318, 56.0787 22.8975, 56.291 23.0508, 56.5032 23.2048, 56.7743 23.2814, 57.1043 23.2814, 57.4687 23.2814, 57.8091 23.1833, 58.1256 22.987, 58.4428 22.7907, 58.7329 22.5276, 58.9954 22.1969, 59.258 21.8669, 59.4886 21.4842, 59.6874 21.0487, 59.8861 20.6138, 60.0462 20.1574, 60.1677 19.6795 L 60.2284 19.444 C 60.1278 19.536, 59.9156 19.6556, 59.5917 19.8022, 59.2684 19.9494, 58.9145 20.023, 58.5299 20.023, 58.0723 20.023, 57.6625 19.9384, 57.3018 19.7679, 56.9412 19.5986, 56.6565 19.3366, 56.4474 18.9827, 56.2456 18.6036, 56.148 18.1853, 56.1542 17.7265 L 56.1542 17.6479 C 56.1677 17.1707, 56.2284 16.6966, 56.3363 16.2248, 56.4443 15.774, 56.6013 15.2771, 56.8068 14.7337, 57.0123 14.1908, 57.2092 13.6639, 57.3975 13.1529, 57.6 12.6107, 57.7012 12.1653, 57.7012 11.8182, 57.7012 11.5243, 57.5766 11.3771, 57.327 11.3765, 57.0982 11.3771, 56.8909 11.4428, 56.7056 11.5734, 56.5204 11.7047, 56.3517 11.8862, 56.2002 12.1181, 56.0487 12.3506, 55.9119 12.6254, 55.7904 12.9425, 55.669 13.2603, 55.5684 13.5983, 55.4874 13.9577, 55.4132 14.135, 55.2887 14.2264, 55.1132 14.2325 L 54.8807 14.2325 C 54.7188 14.2331, 54.6378 14.1515, 54.6378 13.9872 L 54.6378 13.9185 C 54.7323 13.559, 54.8574 13.1916, 55.012 12.8149, 55.1672 12.4389, 55.3629 12.0973, 55.5984 11.7893, 55.8346 11.482, 56.1045 11.2268, 56.4075 11.0238, 56.7105 10.8214, 57.0577 10.7196, 57.4484 10.7189, 57.7858 10.7196, 58.0735 10.7919, 58.3127 10.9355, 58.552 11.0796, 58.7341 11.271, 58.8587 11.5096, 58.9838 11.7488, 59.0525 12.0181, 59.066 12.3187 L 59.066 12.3874 C 59.066 12.6696, 59.0089 12.9603, 58.8936 13.2609, 58.6986 13.7719, 58.5053 14.2939, 58.3127 14.8269, 58.1207 15.3606, 57.9711 15.8396, 57.8631 16.2647, 57.7551 16.6904, 57.6809 17.1118, 57.6404 17.5302, 57.6135 17.6418, 57.5969 17.7633, 57.5901 17.8933, 57.5901 18.1491, 57.6343 18.4012, 57.7214 18.649, 57.7821 18.8723, 57.8932 19.049, 58.0551 19.1796, 58.217 19.3109, 58.409 19.3759, 58.6311 19.3753, 59.0629 19.3759, 59.4402 19.2483, 59.7634 18.9931, 60.0873 18.738, 60.3701 18.4043, 60.6124 17.9915 L 62.2397 11.6611 C 62.3011 11.4194, 62.4238 11.2416, 62.609 11.1269, 62.7943 11.0128, 62.9813 10.9551, 63.1697 10.9545, 63.3653 10.9551, 63.5273 11.014, 63.6555 11.1311, 63.7432 11.217, 63.7867 11.3311, 63.7867 11.4747, 63.7867 11.547, 63.78 11.6225, 63.7665 11.7004 Z" stroke="none" fill="#000000" />
			<path d="M 25.3307 -6.28359 C 25.4682 -5.74609, 25.2619 -5.34609, 24.7119 -5.08359 L 5.75566 3.41641, 15.9557 21.0164 C 16.2307 21.5539, 16.1619 22.0227, 15.7494 22.4164 L 15.5432 22.5164 C 14.9932 22.8539, 14.5119 22.7914, 14.0994 22.3164 L -0.00683784 7.51641, -14.1193 22.3164 C -14.4631 22.7914, -14.9443 22.8539, -15.5631 22.5164 L -15.7693 22.4164 C -16.1068 21.9539, -16.1756 21.4914, -15.9756 21.0164 L -5.77559 3.41641, -24.7318 -5.08359 C -25.2756 -5.34609, -25.4818 -5.74609, -25.3443 -6.28359 L -25.2443 -6.48359 C -24.9693 -7.07734, -24.5568 -7.27734, -24.0068 -7.08359 L -3.61309 -3.18359, -1.14434 -23.2836 C -1.00684 -23.8773, -0.663088 -24.1773, -0.113089 -24.1836 L 0.0931606 -24.1836 C 0.643162 -24.1773, 0.986912 -23.8773, 1.12441 -23.2836 L 3.59316 -3.18359, 23.9869 -7.08359 C 24.6119 -7.20859, 25.0244 -7.00859, 25.2244 -6.48359 L 25.3307 -6.28359 Z" stroke="none" fill="#000000" transform="matrix(0.11256 0 0 0.11256 70.4621 8.55472)" />
			<path d="M 1.74295 10.7447 C -4.80965 5.90956, -4.80965 -5.90956, 1.74295 -10.7447 L 2.77207 -10.7447 C -3.13733 -5.90956, -3.13733 5.90956, 2.77207 10.7447" stroke="none" fill="#000000" transform="matrix(1 0 -0 1 21.0457 13.7597)" />
			<path d="M 1.74295 10.7447 C -4.80965 5.90956, -4.80965 -5.90956, 1.74295 -10.7447 L 2.77207 -10.7447 C -3.13733 -5.90956, -3.13733 5.90956, 2.77207 10.7447" stroke="none" fill="#000000" transform="matrix(-1 1.50996e-007 -1.50996e-007 -1 80.2966 13.7597)" />
			<rect />
		</svg>
	</g>
	<path d="M 0 0 L 131.613 0" fill="none" stroke="#000000" stroke-width="1.79999995" stroke-linecap="round" stroke-linejoin="round" marker-end="url(#CustomMarker-01)" transform="matrix(0.555556 0 0 0.555556 156.125 278.429)" />
	<g transform="matrix(1 0 -0 1 233.261 264.547)">
		<svg width="372.041809" height="132.096344">
			<defs />
			<path d="M 8.30364 9.77637 C 8.48582 9.95364, 8.60053 10.2021, 8.64715 10.5223, 8.66064 10.6799, 8.66739 10.8302, 8.66739 10.9737, 8.66739 11.1578, 8.6539 11.3406, 8.62691 11.5233, 8.58642 11.8902, 8.52447 12.2619, 8.43982 12.6379, 8.35578 13.0145, 8.27359 13.3494, 8.19262 13.6433, 8.05767 14.2002, 7.87733 14.7824, 7.65159 15.3909, 7.42586 15.9993, 7.14799 16.5588, 6.81798 17.0691, 6.48797 17.5795, 6.10214 18.0082, 5.66049 18.3548, 5.21884 18.7014, 4.70849 18.8744, 4.12882 18.8744, 3.67061 18.8744, 3.23754 18.7928, 2.82963 18.629, 2.42233 18.4658, 2.10398 18.2009, 1.87456 17.834, 1.62552 17.4617, 1.50407 17.0366, 1.5102 16.5582, 1.5102 16.5324, 1.51695 16.5066, 1.53044 16.4796, 1.53044 16.0159, 1.58442 15.5479, 1.69238 15.0762, 1.80034 14.6253, 1.95737 14.1285, 2.16286 13.585, 2.36835 13.0421, 2.56525 12.5152, 2.75357 12.0043, 2.95599 11.462, 3.0572 11.0167, 3.0572 10.6695, 3.0572 10.3757, 2.93268 10.2284, 2.68303 10.2278, 2.45423 10.2284, 2.2469 10.2941, 2.06165 10.4247, 1.8764 10.556, 1.70772 10.7376, 1.55621 10.9694, 1.4047 11.2019, 1.26791 11.4767, 1.14645 11.7939, 1.025 12.1116, 0.924401 12.4496, 0.843432 12.809, 0.76921 12.9863, 0.644689 13.0777, 0.469256 13.0838 L 0.236776 13.0838 C 0.0748376 13.0845, -0.00613165 13.0029, -0.00613165 12.8385 L -0.00613165 12.7698 C 0.0883325 12.4103, 0.213467 12.0429, 0.368044 11.6663, 0.523235 11.2903, 0.718911 10.9486, 0.954458 10.6407, 1.19062 10.3333, 1.46052 10.0782, 1.76354 9.87513, 2.06656 9.67271, 2.41374 9.57088, 2.80448 9.57027, 3.14185 9.57088, 3.42954 9.64326, 3.66877 9.7868, 3.90799 9.93095, 4.09018 10.1223, 4.2147 10.3609, 4.33983 10.6002, 4.40853 10.8695, 4.42203 11.17 L 4.42203 11.2387 C 4.42203 11.5209, 4.36498 11.8116, 4.24966 12.1122, 4.0546 12.6232, 3.86138 13.1452, 3.66877 13.6782, 3.47677 14.2119, 3.32649 14.691, 3.21853 15.1154, 3.11118 15.5608, 3.03696 15.9865, 2.99648 16.3913, 2.98298 16.4833, 2.97624 16.5717, 2.97624 16.6563, 2.97624 16.9513, 3.02715 17.2292, 3.12775 17.4905, 3.21546 17.7199, 3.359 17.9003, 3.55774 18.0309, 3.75648 18.1622, 3.9908 18.2272, 4.26009 18.2266, 4.65757 18.2272, 5.01641 18.0984, 5.33661 17.8396, 5.65681 17.5813, 5.94204 17.2329, 6.19108 16.7943, 6.44012 16.3563, 6.66095 15.857, 6.85294 15.2976, 7.04555 14.7382, 7.21547 14.1739, 7.3633 13.604, 7.43077 13.3169, 7.46451 13.0421, 7.46451 12.7796, 7.46451 12.5839, 7.45101 12.3974, 7.42402 12.2202, 7.33692 11.7957, 7.14124 11.4356, 6.83761 11.1406, 6.69653 11.0038, 6.6223 10.8468, 6.61556 10.6695, 6.61556 10.6045, 6.62598 10.5425, 6.64561 10.483, 6.70695 10.2548, 6.82657 10.0567, 7.00507 9.88985, 7.18357 9.72301, 7.39397 9.61689, 7.63626 9.57027, 7.67674 9.558, 7.72398 9.55125, 7.77796 9.55064, 7.97363 9.55125, 8.14906 9.6267, 8.30364 9.77637 Z" stroke="none" fill="#000000" />
			<path d="M 3.05515 -0.399786 C 3.05515 0.128183, 3.0184 0.65306, 2.94489 1.17519, 2.87138 1.69732, 2.68932 2.1875, 2.39871 2.64505, 2.19123 2.97894, 1.91368 3.23519, 1.5664 3.4145, 1.21946 3.59416, 0.841943 3.68381, 0.434201 3.68381, 0.0419176 3.68381, -0.329069 3.59416, -0.678071 3.4145, -1.02707 3.23519, -1.30566 2.97894, -1.51313 2.64505, -1.80374 2.1875, -1.9858 1.69732, -2.05931 1.17519, -2.13282 0.65306, -2.16992 0.128183, -2.16992 -0.399786, -2.16992 -0.934281, -2.13282 -1.46843, -2.05931 -2.00155, -1.9858 -2.53467, -1.80374 -3.03379, -1.51313 -3.49958, -1.30566 -3.83622, -1.0281 -4.09831, -0.680819 -4.28518, -0.333534 -4.47205, 0.0381389 -4.56548, 0.434201 -4.56582, 0.838164 -4.56548, 1.21465 -4.47205, 1.56365 -4.28518, 1.91265 -4.09831, 2.19123 -3.83622, 2.39871 -3.49958, 2.68932 -3.03379, 2.87138 -2.53467, 2.94489 -2.00155, 3.0184 -1.46843, 3.05515 -0.934281, 3.05515 -0.399786 Z M 1.93429 -0.592149 C 1.93429 -0.822641, 1.93257 -1.06619, 1.9288 -1.32279, 1.92502 -1.57904, 1.9154 -1.83014, 1.90028 -2.07575, 1.88517 -2.32101, 1.85803 -2.55288, 1.81819 -2.77101, 1.77868 -2.98879, 1.73059 -3.17497, 1.67391 -3.3292, 1.5609 -3.5779, 1.39499 -3.78229, 1.17583 -3.94167, 0.957017 -4.10106, 0.709693 -4.18076, 0.434201 -4.1811, 0.166267 -4.18076, -0.0759051 -4.10003, -0.293001 -3.93893, -0.510097 -3.77748, -0.675323 -3.57447, -0.78868 -3.3292, -0.845015 -3.17497, -0.893106 -2.98879, -0.932952 -2.77101, -0.972455 -2.55288, -0.999936 -2.32101, -1.01505 -2.07575, -1.03016 -1.83014, -1.03944 -1.57904, -1.04322 -1.32279, -1.047 -1.06619, -1.04906 -0.822641, -1.04906 -0.592149, -1.04906 -0.335206, -1.047 -0.0648673, -1.04322 0.218868, -1.03944 0.502948, -1.03016 0.777753, -1.01505 1.04328, -0.999936 1.30916, -0.972455 1.56095, -0.932952 1.799, -0.893106 2.03739, -0.845015 2.23697, -0.78868 2.39773, -0.68288 2.66566, -0.519371 2.8855, -0.29884 3.0576, -0.077966 3.23004, 0.166267 3.31592, 0.434201 3.31557, 0.713815 3.31592, 0.963887 3.23004, 1.18442 3.0576, 1.40529 2.8855, 1.56846 2.66566, 1.67391 2.39773, 1.73059 2.23697, 1.77868 2.03739, 1.81819 1.799, 1.85803 1.56095, 1.88517 1.30916, 1.90028 1.04328, 1.9154 0.777753, 1.92502 0.502948, 1.9288 0.218868, 1.93257 -0.0648673, 1.93429 -0.335206, 1.93429 -0.592149 Z" stroke="none" fill="#000000" transform="matrix(1.12 0 0 1 11.8899 18.0741)" />
			<polyline points="-7.035 -2.1105 7.035 -2.1105" fill="none" stroke="#000000" stroke-width="0.80400002" stroke-linecap="round" stroke-linejoin="round" transform="matrix(1 0 0 1 28.5956 12.611)" />
			<polyline points="-7.035 2.1105 7.035 2.1105" fill="none" stroke="#000000" stroke-width="0.80400002" stroke-linecap="round" stroke-linejoin="round" transform="matrix(1 0 0 1 28.5956 12.611)" />
			<path d="M 53.4946 9.74693 C 53.7037 9.93095, 53.8387 10.1892, 53.8988 10.5223, 53.9123 10.6928, 53.919 10.8695, 53.919 11.0523, 53.919 11.2166, 53.9123 11.3798, 53.8988 11.543, 53.8583 11.9098, 53.7927 12.2846, 53.7019 12.6673, 53.6111 13.0501, 53.5252 13.3955, 53.4443 13.7022, 53.2823 14.3241, 53.0566 14.9412, 52.7671 15.5528, 52.4776 16.165, 52.1285 16.7158, 51.7206 17.2065, 51.3133 17.6972, 50.8484 18.0984, 50.3257 18.4088, 49.8031 18.7192, 49.2357 18.8744, 48.6223 18.8744, 47.9684 18.8744, 47.49 18.6867, 47.1869 18.3107, 46.8839 17.9346, 46.7085 17.5531, 46.6606 17.1667, 46.3846 17.5862, 45.9871 17.9757, 45.4682 18.3352, 44.9493 18.6946, 44.3561 18.8744, 43.6887 18.8744, 43.0827 18.8744, 42.6091 18.7112, 42.2687 18.3843, 41.9289 18.0573, 41.7013 17.6451, 41.5866 17.147, 41.5056 16.8207, 41.4621 16.4576, 41.4547 16.0576, 41.4547 15.8687, 41.4614 15.6785, 41.4749 15.4884, 41.5289 14.8805, 41.6338 14.272, 41.7884 13.6629, 41.9638 13.0158, 42.2067 12.3846, 42.5165 11.7693, 42.8269 11.1547, 43.1974 10.5621, 43.628 9.99229, 43.6955 9.89476, 43.7832 9.8328, 43.8911 9.80581 L 43.9617 9.80581 C 44.0157 9.80643, 44.0696 9.81624, 44.1236 9.83526, 44.2113 9.87513, 44.2653 9.94383, 44.2855 10.0414 L 44.2855 10.0904 C 44.2855 10.1499, 44.2586 10.2186, 44.2046 10.2965, 43.8138 10.8468, 43.4703 11.405, 43.1735 11.9705, 42.8772 12.5367, 42.6545 13.1139, 42.5061 13.7022, 42.3852 14.1542, 42.3245 14.5861, 42.3245 14.9977 L 42.3447 15.0173 C 42.3447 15.4761, 42.4104 15.8656, 42.5416 16.1858, 42.6729 16.5066, 42.8649 16.76, 43.1176 16.9464, 43.3703 17.1329, 43.6856 17.2262, 44.0629 17.2255, 44.5683 17.2262, 45.0456 17.0777, 45.4933 16.7796, 45.9417 16.4821, 46.3208 16.0907, 46.6306 15.6062, 46.6576 15.2995, 46.7067 14.9805, 46.7772 14.6499, 46.8483 14.3198, 46.9238 13.9905, 47.0048 13.6629, 47.0183 13.6114, 47.0403 13.5279, 47.0704 13.4132, 47.1011 13.2991, 47.1465 13.1863, 47.2072 13.0746, 47.2679 12.9636, 47.3489 12.8575, 47.4495 12.7557, 47.5507 12.6545, 47.6924 12.6035, 47.874 12.6029, 48.0494 12.6035, 48.1727 12.6594, 48.2432 12.7704, 48.3144 12.882, 48.3493 12.9992, 48.3493 13.1231, 48.3493 13.2347, 48.3358 13.3464, 48.3089 13.4574, 48.2819 13.569, 48.2616 13.6506, 48.2481 13.7022, 48.1672 14.0432, 48.0647 14.3836, 47.9396 14.7235, 47.8151 15.0639, 47.682 15.3878, 47.5403 15.6945, 47.5942 16.1398, 47.7378 16.5066, 47.9703 16.7943, 48.2027 17.0826, 48.5413 17.2262, 48.9861 17.2255, 49.397 17.2262, 49.8019 17.1299, 50.1994 16.9366, 50.5969 16.744, 50.9643 16.4852, 51.301 16.1613, 51.6384 15.8374, 51.9298 15.4583, 52.1758 15.0228, 52.4217 14.5879, 52.6021 14.1346, 52.7162 13.6629, 52.7836 13.4151, 52.8211 13.1697, 52.8272 12.9268, 52.8272 12.7048, 52.7971 12.4925, 52.7364 12.2889, 52.6088 11.8576, 52.3794 11.4945, 52.0488 11.1995, 51.874 11.0559, 51.7862 10.886, 51.7862 10.6891, 51.7862 10.6376, 51.793 10.5916, 51.8065 10.5517, 51.8537 10.3168, 51.9635 10.1125, 52.1353 9.93892, 52.307 9.76594, 52.5174 9.64265, 52.7665 9.57027, 52.8339 9.558, 52.9014 9.55125, 52.9689 9.55064, 53.1646 9.55125, 53.34 9.61689, 53.4946 9.74693 Z" stroke="none" fill="#000000" />
			<path d="M 78.5689 16.6661 C 78.4953 16.9612, 78.3843 17.2507, 78.2358 17.5353, 78.0874 17.8199, 77.9058 18.0769, 77.6899 18.3057, 77.474 18.5352, 77.2329 18.7222, 76.9667 18.8695, 76.7005 19.0167, 76.4128 19.0903, 76.1024 19.0903, 75.1252 19.0903, 74.3904 18.832, 73.8984 18.3149, 73.5617 17.9622, 73.393 17.5175, 73.393 16.9802, 73.393 16.706, 73.4372 16.4085, 73.5249 16.0871 L 73.9794 14.3303 C 74.0334 14.1082, 74.0604 13.8991, 74.0604 13.7022, 74.0604 13.6046, 74.0536 13.5034, 74.0401 13.3979, 73.9996 13.1237, 73.9058 12.882, 73.7574 12.6722, 73.6089 12.4631, 73.4188 12.2981, 73.1863 12.1766, 72.9538 12.0558, 72.679 11.9951, 72.3619 11.9944 L 70.0775 11.9944, 68.733 17.2255 C 68.706 17.3507, 68.6925 17.4519, 68.6925 17.5298, 68.6925 17.6285, 68.7127 17.6942, 68.7532 17.7261, 68.8409 17.7788, 69.0231 17.8101, 69.2991 17.8199, 69.5758 17.8297, 69.8721 17.8347, 70.1886 17.834, 70.3775 17.8347, 70.472 17.9132, 70.472 18.0696, 70.472 18.1095, 70.4652 18.1518, 70.4517 18.1972 L 70.4112 18.3542 C 70.3376 18.5505, 70.2057 18.6486, 70.0168 18.6486, 69.1881 18.6094, 68.3527 18.5898, 67.5098 18.5898, 66.6676 18.5898, 65.8218 18.6094, 64.9728 18.6486, 64.7912 18.6486, 64.6937 18.564, 64.6796 18.3935 L 64.6796 18.3149, 64.7201 18.1481 C 64.7741 17.9328, 64.9053 17.8279, 65.1139 17.834, 65.431 17.8347, 65.731 17.8297, 66.0137 17.8199, 66.2971 17.8101, 66.5057 17.7758, 66.6406 17.7163, 66.7689 17.6451, 66.8664 17.4684, 66.9339 17.1863 L 69.7745 6.12539 C 69.815 5.98186, 69.8346 5.87083, 69.8346 5.7917, 69.8346 5.7138, 69.8181 5.6678, 69.7843 5.6543, 69.6899 5.59603, 69.5065 5.56045, 69.2335 5.54696, 68.9605 5.53407, 68.6624 5.52733, 68.3385 5.52671, 68.1502 5.52733, 68.0558 5.439, 68.0558 5.26172 L 68.0558 5.18321, 68.1165 5.01636 C 68.157 4.82069, 68.2821 4.72254, 68.4907 4.72193 L 74.1818 4.72193 C 74.8222 4.72254, 75.4319 4.8078, 76.0116 4.97772, 76.5913 5.14824, 77.0967 5.42918, 77.5279 5.82115, 77.8849 6.13582, 78.1444 6.52165, 78.3064 6.97925, 78.4076 7.22829, 78.4615 7.48715, 78.4677 7.75459, 78.4677 7.9975, 78.4309 8.23612, 78.3567 8.47105, 78.2291 8.9949, 77.9628 9.46967, 77.558 9.89476, 77.1538 10.3205, 76.6986 10.683, 76.1932 10.9835, 75.8429 11.1872, 75.4878 11.3559, 75.1271 11.4896, 74.7664 11.6239, 74.5088 11.7074, 74.3536 11.7393, 74.7376 11.8902, 75.1019 12.1846, 75.4454 12.6226, 75.7356 13.0029, 75.8803 13.4574, 75.8803 13.9868, 75.8803 14.0984, 75.8736 14.2101, 75.8601 14.3205 L 75.6675 16.0871 C 75.6141 16.5459, 75.5871 16.9446, 75.5871 17.2844, 75.5871 17.5077, 75.6006 17.704, 75.6276 17.8733, 75.6749 18.2597, 75.8767 18.453, 76.2337 18.4523, 76.5575 18.453, 76.8538 18.2781, 77.1237 17.9279, 77.3936 17.5782, 77.5924 17.1446, 77.7199 16.6269, 77.7942 16.4312, 77.9254 16.3361, 78.1144 16.3422 L 78.2757 16.3422 C 78.4579 16.3429, 78.5554 16.4281, 78.5689 16.5974 L 78.5689 16.6661 Z M 76.1932 8.41216 C 76.3011 8.0202, 76.3619 7.62762, 76.3754 7.23443 L 76.3754 7.17554 C 76.3754 6.84246, 76.2711 6.55478, 76.0619 6.31187, 75.8129 6.0248, 75.4878 5.82176, 75.0866 5.70399, 74.6854 5.58621, 74.2456 5.52733, 73.7672 5.52671 L 72.4226 5.52671 C 72.0791 5.52733, 71.8736 5.5537, 71.8061 5.60584, 71.7386 5.6586, 71.6681 5.84446, 71.5939 6.16465 L 70.2597 11.3565, 72.2104 11.3565 C 72.6888 11.3571, 73.1611 11.2982, 73.6261 11.1805, 74.091 11.0627, 74.5327 10.8535, 74.9498 10.5517, 75.3074 10.2972, 75.5773 9.97695, 75.7589 9.59051, 75.9411 9.20468, 76.0858 8.8121, 76.1932 8.41216 Z" stroke="none" fill="#000000" />
			<polyline points="-7.035 0 7.035 0" fill="none" stroke="#000000" stroke-width="0.80400002" stroke-linecap="round" stroke-linejoin="round" transform="matrix(1 0 0 1 91.4307 12.611)" />
			<polyline points="0 -7.035 0 7.035" fill="none" stroke="#000000" stroke-width="0.80400002" stroke-linecap="round" stroke-linejoin="round" transform="matrix(1 0 0 1 91.4307 12.611)" />
			<path d="M 114.041 15.665 C 113.946 16.0257, 113.822 16.3938, 113.667 16.7698, 113.512 17.1464, 113.316 17.4881, 113.081 17.7954, 112.845 18.1033, 112.575 18.3597, 112.272 18.5652, 111.969 18.7713, 111.622 18.8744, 111.231 18.8744, 110.894 18.8744, 110.606 18.8026, 110.367 18.6585, 110.127 18.5149, 109.942 18.3254, 109.811 18.0898, 109.679 17.8543, 109.613 17.5924, 109.613 17.3041, 109.6 17.2918, 109.593 17.2587, 109.593 17.2059, 109.593 16.925, 109.654 16.6305, 109.775 16.3226, 109.997 15.754, 110.206 15.1847, 110.401 14.6155, 110.597 14.0463, 110.769 13.477, 110.917 12.9072, 111.012 12.522, 111.082 12.149, 111.13 11.7883, 111.143 11.6841, 111.15 11.573, 111.15 11.4546, 111.15 11.2326, 111.123 11.0302, 111.069 10.8461, 110.947 10.4346, 110.692 10.2284, 110.3 10.2278, 109.613 10.2284, 109.024 10.4628, 108.532 10.9302, 108.04 11.3982, 107.601 12.0245, 107.217 12.809 L 105.843 18.1481 C 105.783 18.391, 105.659 18.572, 105.474 18.6928, 105.289 18.8143, 105.102 18.8744, 104.913 18.8744, 104.718 18.8744, 104.556 18.8093, 104.428 18.6781, 104.34 18.5934, 104.296 18.4757, 104.296 18.3248, 104.296 18.2536, 104.302 18.1812, 104.316 18.1088 L 107.359 6.31187 C 107.413 6.09657, 107.447 5.93279, 107.46 5.82115 L 107.46 5.7917 C 107.46 5.73343, 107.447 5.6911, 107.42 5.66412, 107.339 5.61259, 107.187 5.5764, 106.965 5.55677, 106.743 5.53714, 106.486 5.52733, 106.197 5.52671, 106.095 5.52733, 106.021 5.49482, 105.974 5.42857, 105.933 5.38992, 105.913 5.34085, 105.913 5.28135, 105.913 5.24271, 105.924 5.20652, 105.944 5.17339 L 105.974 5.01636 C 106.028 4.85994, 106.156 4.7618, 106.358 4.72193 L 108.997 4.50601, 109.037 4.50601 C 109.118 4.50662, 109.185 4.533, 109.239 4.58453, 109.28 4.64403, 109.3 4.69617, 109.3 4.74156, 109.3 4.78143, 109.29 4.81762, 109.27 4.84952 L 107.763 10.6989 C 107.952 10.4769, 108.286 10.2334, 108.764 9.96837, 109.243 9.70338, 109.795 9.57088, 110.422 9.57027, 110.82 9.57088, 111.191 9.64449, 111.534 9.79171, 111.878 9.93892, 112.144 10.1763, 112.332 10.5026, 112.535 10.8369, 112.635 11.213, 112.635 11.6313 L 112.635 11.6804 C 112.622 12.0999, 112.562 12.522, 112.454 12.9464, 112.299 13.5427, 112.117 14.1285, 111.908 14.7038, 111.699 15.2798, 111.484 15.865, 111.261 16.46, 111.059 16.971, 110.958 17.3997, 110.958 17.7457, 110.958 17.6942, 110.965 17.6678, 110.978 17.6672, 110.978 18.0408, 111.103 18.2272, 111.352 18.2266, 111.581 18.2272, 111.785 18.1585, 111.964 18.0211, 112.142 17.8837, 112.309 17.6991, 112.464 17.4666, 112.619 17.2347, 112.756 16.9599, 112.873 16.6422, 112.991 16.3251, 113.101 15.9895, 113.202 15.6356, 113.242 15.4663, 113.357 15.381, 113.546 15.3804 L 113.778 15.3804 C 113.954 15.381, 114.041 15.4528, 114.041 15.5963 L 114.041 15.665 Z" stroke="none" fill="#000000" />
			<path d="M 1.65718 9.59598 C -4.89542 5.27779, -4.89542 -5.27779, 1.65718 -9.59598 L 2.6863 -9.59598 C -3.2231 -5.27779, -3.2231 5.27779, 2.6863 9.59598" stroke="none" fill="#000000" transform="matrix(1 0 -0 1 60.959 12.611)" />
			<path d="M 1.65718 9.59598 C -4.89542 5.27779, -4.89542 -5.27779, 1.65718 -9.59598 L 2.6863 -9.59598 C -3.2231 -5.27779, -3.2231 5.27779, 2.6863 9.59598" stroke="none" fill="#000000" transform="matrix(-1 1.50996e-007 -1.50996e-007 -1 117.758 12.611)" />
			<rect />
		</svg>
	</g>
	<path d="M -24.3831 44.185 L 24.3831 44.185" fill="none" stroke="#000000" stroke-width="1.3499999" stroke-linecap="round" stroke-linejoin="round" marker-start="url(#CustomMarker-02)" marker-end="url(#CustomMarker-03)" transform="matrix(4.19433e-008 0.555556 -0.555556 4.19433e-008 118.915 264.883)" />
	<path d="M -24.3831 -66.9774 L -24.3831 66.9774" fill="none" stroke="#000000" stroke-width="0.899999976" stroke-linecap="round" stroke-linejoin="round" transform="matrix(4.19433e-008 0.555556 -0.555556 4.19433e-008 118.915 264.883)" />
	<path d="M 24.3831 -66.9774 L 24.3831 66.9774" fill="none" stroke="#000000" stroke-width="0.899999976" stroke-linecap="round" stroke-linejoin="round" transform="matrix(4.19433e-008 0.555556 -0.555556 4.19433e-008 118.915 264.883)" />
	<g transform="matrix(1 0 -0 1 76.8329 252.875)">
		<svg width="32.9720879" height="51.0124207">
			<defs />
			<path d="M 9.74606 15.062 C 9.65159 15.4227, 9.52707 15.7908, 9.37188 16.1668, 9.2173 16.5434, 9.02163 16.8851, 8.78608 17.1924, 8.55054 17.5003, 8.28064 17.7567, 7.977 17.9622, 7.67398 18.1683, 7.3268 18.2714, 6.93606 18.2714, 6.5993 18.2714, 6.311 18.1996, 6.07177 18.0555, 5.83255 17.9119, 5.6473 17.7224, 5.51603 17.4868, 5.38476 17.2513, 5.31851 16.9894, 5.31851 16.7011, 5.30502 16.6888, 5.29827 16.6557, 5.29827 16.6029, 5.29827 16.322, 5.359 16.0275, 5.48045 15.7196, 5.7025 15.151, 5.91167 14.5817, 6.10674 14.0125, 6.30241 13.4433, 6.47417 12.874, 6.62261 12.3042, 6.71707 11.919, 6.78761 11.546, 6.83485 11.1853, 6.84834 11.0811, 6.85509 10.97, 6.85509 10.8516, 6.85509 10.6296, 6.8281 10.4272, 6.77412 10.2431, 6.65267 9.83155, 6.39688 9.62545, 6.00553 9.62484, 5.31851 9.62545, 4.72903 9.85977, 4.23708 10.3272, 3.74513 10.7952, 3.30655 11.4215, 2.92256 12.206 L 1.54792 17.5451 C 1.48781 17.788, 1.36452 17.969, 1.17927 18.0898, 0.994021 18.2113, 0.806933 18.2714, 0.618005 18.2714, 0.422942 18.2714, 0.261004 18.2063, 0.132803 18.0751, 0.0450861 17.9904, 0.000921011 17.8727, 0.000921011 17.7218, 0.000921011 17.6506, 0.00766847 17.5782, 0.0211633 17.5058 L 3.06426 5.70887 C 3.11824 5.49356, 3.15197 5.32979, 3.16547 5.21815 L 3.16547 5.1887 C 3.16547 5.13043, 3.15197 5.0881, 3.12498 5.06112, 3.04401 5.00959, 2.8925 4.9734, 2.66984 4.95377, 2.44779 4.93414, 2.19138 4.92433, 1.90186 4.92371, 1.80065 4.92433, 1.72642 4.89182, 1.67919 4.82557, 1.63871 4.78692, 1.61847 4.73785, 1.61847 4.67835, 1.61847 4.63971, 1.62889 4.60352, 1.64914 4.57039 L 1.67919 4.41336 C 1.73317 4.25694, 1.86137 4.1588, 2.06318 4.11893 L 4.70204 3.90301, 4.74191 3.90301 C 4.82288 3.90362, 4.89036 3.93, 4.94434 3.98153, 4.98482 4.04103, 5.00506 4.09316, 5.00506 4.13856, 5.00506 4.17843, 4.99525 4.21462, 4.97501 4.24652 L 3.46849 10.0959 C 3.65742 9.87388, 3.99111 9.63036, 4.46956 9.36537, 4.94802 9.10038, 5.50069 8.96788, 6.12698 8.96727, 6.52508 8.96788, 6.89619 9.04149, 7.23969 9.18871, 7.5832 9.33592, 7.84942 9.57331, 8.03773 9.89964, 8.24015 10.2339, 8.34075 10.61, 8.34075 11.0283 L 8.34075 11.0774 C 8.32726 11.4969, 8.26714 11.919, 8.15918 12.3434, 8.00461 12.9397, 7.82243 13.5255, 7.61326 14.1008, 7.4047 14.6768, 7.18878 15.262, 6.96611 15.857, 6.76431 16.368, 6.66309 16.7967, 6.66309 17.1427, 6.66309 17.0912, 6.66984 17.0648, 6.68334 17.0642, 6.68334 17.4378, 6.80786 17.6242, 7.0569 17.6236, 7.28631 17.6242, 7.49057 17.5555, 7.66908 17.4181, 7.84758 17.2807, 8.01442 17.0961, 8.169 16.8636, 8.32419 16.6317, 8.46098 16.3569, 8.57875 16.0392, 8.69653 15.7221, 8.80632 15.3865, 8.90692 15.0326, 8.94741 14.8633, 9.06211 14.778, 9.25104 14.7774 L 9.48352 14.7774 C 9.65895 14.778, 9.74606 14.8498, 9.74606 14.9933 L 9.74606 15.062 Z" stroke="none" fill="#000000" />
			<rect />
		</svg>
	</g>
	<path d="M -85.9005 44.185 L 85.9005 44.185" fill="none" stroke="#000000" stroke-width="1.3499999" stroke-linecap="round" stroke-linejoin="round" marker-start="url(#CustomMarker-04)" marker-end="url(#CustomMarker-05)" transform="matrix(4.19433e-008 0.555556 -0.555556 4.19433e-008 118.915 203.746)" />
	<path d="M -85.9005 -66.9774 L -85.9005 66.9774" fill="none" stroke="#000000" stroke-width="0.899999976" stroke-linecap="round" stroke-linejoin="round" transform="matrix(4.19433e-008 0.555556 -0.555556 4.19433e-008 118.915 203.746)" />
	<path d="M 85.9005 -66.9774 L 85.9005 66.9774" fill="none" stroke="#000000" stroke-width="0.899999976" stroke-linecap="round" stroke-linejoin="round" transform="matrix(4.19433e-008 0.555556 -0.555556 4.19433e-008 118.915 203.746)" />
	<g transform="matrix(1 0 -0 1 74.7608 195.651)">
		<svg width="45.0279007" height="48.158535">
			<defs />
			<path d="M 13.8914 16.0631 C 13.8178 16.3582, 13.7068 16.6477, 13.5584 16.9323, 13.4099 17.2169, 13.2284 17.4739, 13.0124 17.7027, 12.7965 17.9322, 12.5554 18.1192, 12.2892 18.2665, 12.023 18.4137, 11.7353 18.4873, 11.4249 18.4873, 10.4478 18.4873, 9.71294 18.229, 9.22099 17.7119, 8.88423 17.3592, 8.71554 16.9145, 8.71554 16.3772, 8.71554 16.103, 8.75971 15.8055, 8.84742 15.4841 L 9.30196 13.7273 C 9.35594 13.5052, 9.38293 13.2961, 9.38293 13.0992, 9.38293 13.0016, 9.37618 12.9004, 9.36268 12.7949, 9.3222 12.5207, 9.22835 12.279, 9.0799 12.0692, 8.93146 11.8601, 8.74131 11.6951, 8.50883 11.5736, 8.27635 11.4528, 8.00154 11.3921, 7.68441 11.3914 L 5.4001 11.3914, 4.05552 16.6225 C 4.02853 16.7477, 4.01503 16.8489, 4.01503 16.9268, 4.01503 17.0255, 4.03528 17.0912, 4.07576 17.1231, 4.16348 17.1758, 4.34566 17.2071, 4.62169 17.2169, 4.89833 17.2267, 5.19461 17.2316, 5.51113 17.231, 5.70005 17.2316, 5.79452 17.3102, 5.79452 17.4666, 5.79452 17.5065, 5.78777 17.5488, 5.77427 17.5942 L 5.73379 17.7512 C 5.66018 17.9475, 5.5283 18.0456, 5.33937 18.0456, 4.51066 18.0064, 3.67521 17.9867, 2.83239 17.9867, 1.99019 17.9867, 1.14431 18.0064, 0.295357 18.0456, 0.113789 18.0456, 0.0162583 17.961, 0.00215002 17.7905 L 0.00215002 17.7119, 0.0426346 17.5451 C 0.0966141 17.3298, 0.227882 17.2249, 0.43644 17.231, 0.753569 17.2316, 1.05352 17.2267, 1.3363 17.2169, 1.61969 17.2071, 1.82825 17.1728, 1.9632 17.1133, 2.0914 17.0421, 2.18893 16.8654, 2.25641 16.5833 L 5.09708 5.52239 C 5.13756 5.37886, 5.15719 5.26783, 5.15719 5.1887, 5.15719 5.1108, 5.14063 5.0648, 5.10689 5.0513, 5.01243 4.99303, 4.82902 4.95745, 4.55606 4.94395, 4.28309 4.93107, 3.98498 4.92433, 3.6611 4.92371, 3.47279 4.92433, 3.37832 4.836, 3.37832 4.65872 L 3.37832 4.58021, 3.43905 4.41336 C 3.47953 4.21769, 3.60467 4.11954, 3.81322 4.11893 L 9.50438 4.11893 C 10.1448 4.11954, 10.7545 4.2048, 11.3342 4.37472, 11.9138 4.54524, 12.4193 4.82618, 12.8505 5.21815, 13.2075 5.53282, 13.467 5.91865, 13.6289 6.37625, 13.7301 6.62529, 13.7841 6.88415, 13.7902 7.15159, 13.7902 7.3945, 13.7534 7.63311, 13.6792 7.86805, 13.5516 8.3919, 13.2854 8.86667, 12.8806 9.29176, 12.4763 9.71746, 12.0212 10.08, 11.5157 10.3805, 11.1655 10.5842, 10.8103 10.7529, 10.4496 10.8866, 10.089 11.0209, 9.83132 11.1044, 9.67613 11.1363, 10.0601 11.2872, 10.4245 11.5816, 10.768 12.0196, 11.0581 12.3999, 11.2029 12.8544, 11.2029 13.3838, 11.2029 13.4954, 11.1961 13.607, 11.1827 13.7175 L 10.99 15.4841 C 10.9367 15.9429, 10.9097 16.3416, 10.9097 16.6814, 10.9097 16.9047, 10.9232 17.101, 10.9502 17.2703, 10.9974 17.6567, 11.1992 17.85, 11.5562 17.8493, 11.8801 17.85, 12.1764 17.6751, 12.4463 17.3249, 12.7162 16.9752, 12.9149 16.5416, 13.0425 16.0239, 13.1167 15.8282, 13.248 15.7331, 13.4369 15.7392 L 13.5982 15.7392 C 13.7804 15.7399, 13.8779 15.8251, 13.8914 15.9944 L 13.8914 16.0631 Z M 11.5157 7.80916 C 11.6237 7.4172, 11.6844 7.02462, 11.6979 6.63143 L 11.6979 6.57254 C 11.6979 6.23946, 11.5936 5.95178, 11.3845 5.70887, 11.1354 5.4218, 10.8103 5.21876, 10.4092 5.10099, 10.008 4.98321, 9.56817 4.92433, 9.08972 4.92371 L 7.74514 4.92371 C 7.40163 4.92433, 7.19614 4.9507, 7.12867 5.00284, 7.0612 5.05559, 6.99065 5.24146, 6.91643 5.56165 L 5.58228 10.7535, 7.5329 10.7535 C 8.01136 10.7541, 8.48368 10.6952, 8.94864 10.5775, 9.4136 10.4597, 9.85525 10.2505, 10.2724 9.94871, 10.63 9.69415, 10.8999 9.37395, 11.0814 8.98751, 11.2636 8.60168, 11.4084 8.2091, 11.5157 7.80916 Z" stroke="none" fill="#000000" />
			<rect />
		</svg>
	</g>
	<path d="M -263.926 -0 L 263.926 -0" fill="none" stroke="#000000" stroke-width="1.3499999" stroke-linecap="round" stroke-linejoin="round" marker-end="url(#CustomMarker-06)" transform="matrix(0.555556 -1.67773e-007 -1.67773e-007 -0.555556 156.125 156.024)" />
	<path d="M 0 263.742 L 0 -263.742" fill="none" stroke="#000000" stroke-width="1.3499999" stroke-linecap="round" stroke-linejoin="round" marker-end="url(#CustomMarker-07)" transform="matrix(0.555556 -1.67773e-007 -1.67773e-007 -0.555556 156.125 156.024)" />
	<g transform="matrix(1 0 -0 1 163.523 277.608)">
		<svg width="45.0279007" height="59.909832">
			<defs />
			<path d="M 13.1345 11.1559 C 12.8916 12.1054, 12.499 13.0212, 11.9568 13.9046, 11.4145 14.7879, 10.7318 15.5957, 9.90984 16.3281, 9.12836 17.0157, 8.31928 17.5426, 7.48321 17.9082, 7.49671 18.1438, 7.52063 18.3861, 7.55437 18.6345, 7.58811 18.8835, 7.64699 19.0976, 7.73103 19.2773, 7.81568 19.4577, 7.93161 19.6, 8.08006 19.7043, 8.2285 19.8092, 8.43031 19.8613, 8.6861 19.8613, 8.92226 19.8613, 9.14983 19.811, 9.36882 19.7092, 9.5878 19.608, 9.79513 19.4706, 9.99019 19.297, 10.1859 19.124, 10.3576 18.9161, 10.5061 18.6738, 10.6545 18.4321, 10.7588 18.183, 10.8195 17.9279, 10.8398 17.8432, 10.8851 17.7714, 10.9557 17.7126, 11.0268 17.6537, 11.109 17.6242, 11.2035 17.6236, 11.298 17.6242, 11.3826 17.6604, 11.4562 17.7316, 11.4832 17.7843, 11.4967 17.8303, 11.4967 17.869, 11.4967 17.9088, 11.4869 17.945, 11.466 17.9769, 11.3654 18.4223, 11.2188 18.875, 11.0268 19.3362, 10.8349 19.7975, 10.6005 20.2232, 10.3245 20.6121, 10.0485 21.0016, 9.72152 21.3206, 9.34367 21.569, 8.96642 21.8181, 8.53827 21.942, 8.05981 21.942, 7.52063 21.942, 7.12989 21.8211, 6.88699 21.5788, 6.64469 21.3372, 6.49318 21.0194, 6.43184 20.6268, 6.40485 20.4502, 6.39136 20.2606, 6.39136 20.0576, 6.39136 19.8484, 6.40485 19.6325, 6.43184 19.4098, 6.48582 18.9651, 6.53305 18.5725, 6.57354 18.2321, 6.04846 18.4026, 5.4688 18.4873, 4.83515 18.4873, 3.94572 18.4873, 3.15504 18.2916, 2.46435 17.899, 1.77366 17.5065, 1.22282 16.9765, 0.81184 16.3085, 0.360375 15.5699, 0.100906 14.7517, 0.0334312 13.8549, 0.00644135 13.6396, -0.00705349 13.4236, -0.00705349 13.2071, -0.00705349 12.5336, 0.0806632 11.8368, 0.255483 11.1166, 0.511886 10.1554, 0.907531 9.22183, 1.44365 8.31522, 1.97976 7.40922, 2.66493 6.58972, 3.50039 5.85609, 4.24199 5.19606, 5.0523 4.66424, 5.93192 4.26185, 6.81154 3.85946, 7.69913 3.65826, 8.59531 3.65765, 9.48475 3.65826, 10.2717 3.8613, 10.9557 4.26676, 11.6402 4.67283, 12.1874 5.20895, 12.5984 5.87571, 13.0498 6.61548, 13.3161 7.43989, 13.397 8.34896, 13.4105 8.57224, 13.4173 8.79122, 13.4173 9.00653, 13.4173 9.70703, 13.3234 10.4235, 13.1345 11.1559 Z M 11.1127 6.28792 C 10.8907 5.73893, 10.557 5.27949, 10.1116 4.9096, 9.66693 4.54034, 9.11425 4.35509, 8.45362 4.35447, 7.80034 4.35509, 7.15014 4.5434, 6.503 4.91942, 5.85647 5.29605, 5.27987 5.76162, 4.77443 6.31736, 4.1279 7.03137, 3.62061 7.80364, 3.25318 8.63419, 2.88576 9.46535, 2.59071 10.3057, 2.36804 11.1559, 2.14599 11.9938, 2.01472 12.8219, 1.97424 13.6389, 1.96074 13.7573, 1.954 13.8751, 1.954 13.9923, 1.954 14.6731, 2.07545 15.308, 2.31774 15.8963, 2.47294 16.2631, 2.66861 16.5906, 2.90416 16.8783, 3.14032 17.1666, 3.3593 17.3525, 3.56111 17.4371, 3.55498 17.4249, 3.5513 17.3267, 3.5513 17.1427, 3.5513 16.9863, 3.57154 16.8262, 3.61141 16.6618, 3.67275 16.4336, 3.77028 16.2128, 3.90523 15.9999, 4.04018 15.7877, 4.1966 15.5975, 4.3751 15.4307, 4.5536 15.2639, 4.75725 15.1301, 4.98666 15.0283, 5.21608 14.9271, 5.4553 14.8762, 5.70434 14.8756, 6.05521 14.8762, 6.33983 14.9418, 6.55882 15.0725, 6.7778 15.2037, 6.95139 15.3706, 7.07898 15.573, 7.20718 15.776, 7.2949 16.0098, 7.34213 16.2747, 7.38936 16.5397, 7.41635 16.7575, 7.42249 16.9268, 7.57093 16.8293, 7.75802 16.6857, 7.98375 16.4956, 8.20948 16.306, 8.42724 16.0962, 8.6358 15.8668, 9.28294 15.1675, 9.78838 14.41, 10.1521 13.5954, 10.5165 12.7808, 10.806 11.9545, 11.0213 11.1166, 11.244 10.2603, 11.382 9.4126, 11.436 8.57469, 11.4495 8.45078, 11.4562 8.32013, 11.4562 8.18211, 11.4562 7.51534, 11.3421 6.88415, 11.1127 6.28792 Z M 6.67475 17.3684 C 6.68824 17.2188, 6.69499 17.055, 6.69499 16.8777 L 6.69499 16.6422 C 6.6815 16.414, 6.63794 16.2177, 6.56372 16.0539, 6.4895 15.8908, 6.37663 15.7595, 6.22512 15.6613, 6.07361 15.5632, 5.86322 15.5141, 5.59332 15.5135, 5.30379 15.5141, 5.03205 15.6307, 4.77933 15.8625, 4.52661 16.095, 4.3567 16.3747, 4.26898 16.7011, 4.24199 16.8127, 4.2285 16.9207, 4.2285 17.0249, 4.2285 17.1629, 4.25242 17.2905, 4.29904 17.4077, 4.38001 17.6113, 4.51189 17.7389, 4.69346 17.7905 L 4.95599 17.7905 C 5.5559 17.7911, 6.12882 17.6506, 6.67475 17.3684 Z" stroke="none" fill="#000000" />
			<rect />
		</svg>
	</g>
	<ellipse cx="548.91933584213257" cy="546.84639883041382" rx="4.7249999046325684" ry="4.7249999046325684" stroke="none" fill="#000000" transform="matrix(0.555556 0 0 0.555556 -148.83 -25.3745)" />
</svg>
