<?xml version="1.0"?>
<svg xmlns="http://www.w3.org/2000/svg" xmlns:xlink="http://www.w3.org/1999/xlink" width="196.823029" height="189.778793">
	<defs>
		<marker id="CustomMarker-01" markerUnits="strokeWidth" markerWidth="15.000001" markerHeight="9" viewBox="-15 -4.5 15 9" orient="auto-start-reverse">
			<path d="M 0 -0 L -10 -3, -8 -0.5, -8 0.5, -10 3 Z" fill="#000000" stroke="#000000" stroke-linejoin="round" />
		</marker>
		<marker id="CustomMarker-02" markerUnits="strokeWidth" markerWidth="15.000001" markerHeight="9" viewBox="-15 -4.5 15 9" orient="auto-start-reverse">
			<path d="M 0 -0 L -10 -3, -8 -0.5, -8 0.5, -10 3 Z" fill="#000000" stroke="#000000" stroke-linejoin="round" />
		</marker>
		<marker id="CustomMarker-03" markerUnits="strokeWidth" markerWidth="15.000001" markerHeight="9" viewBox="-15 -4.5 15 9" orient="auto-start-reverse">
			<path d="M 0 -0 L -10 -3, -8 -0.5, -8 0.5, -10 3 Z" fill="#000000" stroke="#000000" stroke-linejoin="round" />
		</marker>
		<marker id="CustomMarker-04" markerUnits="strokeWidth" markerWidth="21" markerHeight="12" viewBox="-21 -6 21 12" orient="auto-start-reverse">
			<path d="M 0 -0 L -14 -4, -14 -0.5, -14 0.5, -14 4 Z" fill="#000000" stroke="#000000" stroke-linejoin="round" />
		</marker>
		<marker id="CustomMarker-05" markerUnits="strokeWidth" markerWidth="21" markerHeight="12" viewBox="-21 -6 21 12" orient="auto-start-reverse">
			<path d="M 0 -0 L -14 -4, -14 -0.5, -14 0.5, -14 4 Z" fill="#000000" stroke="#000000" stroke-linejoin="round" />
		</marker>
		<marker id="CustomMarker-06" markerUnits="strokeWidth" markerWidth="21" markerHeight="12" viewBox="-21 -6 21 12" orient="auto-start-reverse">
			<path d="M 0 -0 L -14 -4, -14 -0.5, -14 0.5, -14 4 Z" fill="#000000" stroke="#000000" stroke-linejoin="round" />
		</marker>
	</defs>
	<path d="M -199.257 -87.5176 L -120.084 86.5078, 199.257 87.5176, 120.084 -86.5078 Z" stroke="none" fill="#00FF92" fill-opacity="0.843137205" transform="matrix(0.333333 0 0 0.333333 123.841 75.2996)" />
	<path d="M -199.257 -87.5176 L -120.084 86.5078, 199.257 87.5176, 120.084 -86.5078 Z" fill="none" stroke="#000000" stroke-width="1" stroke-linecap="round" stroke-linejoin="round" transform="matrix(0.333333 0 0 0.333333 123.841 75.2996)" />
	<g transform="matrix(1 0 -0 1 147.48 50.5979)">
		<svg width="45.0279007" height="23.9844513">
			<defs />
			<path d="M 3.25942 3.91832 C 3.23488 4.01667, 3.18479 4.09028, 3.10955 4.13935, 3.0343 4.18842, 2.95865 4.21296, 2.88218 4.21275, 2.80366 4.21296, 2.73844 4.18781, 2.68671 4.13751, 2.64868 4.1007, 2.62843 4.05265, 2.62598 3.99356, 2.62598 3.96984, 2.63048 3.93917, 2.63947 3.90196, 2.66422 3.81936, 2.70245 3.75658, 2.75398 3.71406, 2.80571 3.67153, 2.84169 3.64699, 2.86194 3.64024, 2.81941 3.60773, 2.73169 3.59137, 2.59899 3.59117, 2.48224 3.59137, 2.37776 3.6519, 2.28575 3.77294, 2.19374 3.89399, 2.12503 4.03957, 2.08005 4.20948 L 1.77008 5.40684 C 1.73859 5.52707, 1.71508 5.64157, 1.69933 5.75035, 1.69034 5.78756, 1.68584 5.82028, 1.68584 5.84849, 1.68584 5.91638, 1.69708 5.98058, 1.71957 6.04151, 1.74207 6.10715, 1.7758 6.15949, 1.82079 6.19875, 1.86577 6.23801, 1.92302 6.25763, 1.99254 6.25743, 2.0825 6.25763, 2.16899 6.23432, 2.25201 6.1873, 2.33523 6.14047, 2.4117 6.07729, 2.48122 5.99755, 2.55074 5.91801, 2.61249 5.82539, 2.66646 5.71947, 2.72044 5.61377, 2.76297 5.50519, 2.79446 5.39376, 2.80796 5.33732, 2.84619 5.3089, 2.90896 5.3087 L 2.98646 5.3087 C 3.04493 5.3089, 3.07417 5.33078, 3.07417 5.37413, 3.07417 5.38742, 3.0709 5.39948, 3.06415 5.41012, 3.03267 5.54118, 2.98155 5.6704, 2.9108 5.79799, 2.84006 5.92558, 2.75766 6.03844, 2.66319 6.13659, 2.56873 6.23473, 2.46159 6.3155, 2.34136 6.37847, 2.22113 6.44186, 2.09252 6.47335, 1.95553 6.47335, 1.81629 6.47335, 1.69606 6.4435, 1.59505 6.38338, 1.49405 6.32368, 1.41185 6.24557, 1.34887 6.14947, 1.32884 6.12575, 1.31309 6.10122, 1.30185 6.07607, 1.2906 6.05112, 1.28713 6.04724, 1.29162 6.06441, 1.23785 6.15397, 1.15259 6.24455, 1.03563 6.33615, 0.918879 6.42775, 0.784134 6.47335, 0.631193 6.47335, 0.545929 6.47335, 0.461689 6.46251, 0.37847 6.44063, 0.295456 6.41896, 0.22287 6.38522, 0.161121 6.33942, 0.0993719 6.29362, 0.0527533 6.23801, 0.0212652 6.17237, 0.00572569 6.13332, -0.00204408 6.09079, -0.00224855 6.04478, -0.00204408 6.01227, 0.00245421 5.97404, 0.0112463 5.93028, 0.0359869 5.83234, 0.0864905 5.75873, 0.162961 5.70966, 0.239432 5.66059, 0.315699 5.63605, 0.391965 5.63585, 0.470685 5.63605, 0.53816 5.6612, 0.594184 5.71109, 0.632419 5.7483, 0.651435 5.79635, 0.651435 5.85504, 0.651435 5.88571, 0.646937 5.91638, 0.63794 5.94664, 0.617902 6.02311, 0.581302 6.08486, 0.52855 6.13168, 0.475797 6.17871, 0.437971 6.20427, 0.415479 6.20836, 0.458213 6.24353, 0.544703 6.25988, 0.674949 6.25743, 0.791904 6.25763, 0.89741 6.1967, 0.991669 6.07443, 1.08613 5.95236, 1.15463 5.80617, 1.19736 5.63585 L 1.51061 4.43194 C 1.5421 4.31867, 1.56684 4.20744, 1.58483 4.09825, 1.58933 4.06349, 1.59158 4.03078, 1.59158 4.00011, 1.59158 3.93263, 1.58156 3.86945, 1.56111 3.81036, 1.53882 3.74513, 1.50407 3.69238, 1.45683 3.6519, 1.4096 3.61162, 1.35112 3.59137, 1.2816 3.59117, 1.19164 3.59137, 1.10454 3.61489, 1.02029 3.66171, 0.936054 3.70874, 0.859174 3.77131, 0.789655 3.84982, 0.720136 3.92834, 0.658387 4.01953, 0.604407 4.12299, 0.550428 4.22666, 0.51117 4.33625, 0.486225 4.45157, 0.461689 4.51066, 0.420182 4.54113, 0.361704 4.54317 L 0.287482 4.54317 C 0.233707 4.54338, 0.206717 4.51618, 0.206717 4.46138 L 0.206717 4.43848 C 0.240455 4.30354, 0.292185 4.17206, 0.361704 4.04448, 0.431223 3.91689, 0.514441 3.80402, 0.61095 3.70588, 0.707663 3.60773, 0.815623 3.52758, 0.934623 3.46542, 1.05362 3.40326, 1.18285 3.37218, 1.32188 3.37198, 1.45683 3.37218, 1.57583 3.40163, 1.67909 3.46052, 1.78255 3.5194, 1.86679 3.59792, 1.93181 3.69586, 1.94531 3.71998, 1.95778 3.74575, 1.96903 3.77294, 1.98027 3.80034, 1.98354 3.80729, 1.97904 3.794, 2.03527 3.69831, 2.12176 3.60405, 2.23851 3.51122, 2.35547 3.4186, 2.48899 3.37218, 2.63947 3.37198, 2.72494 3.37218, 2.80959 3.38261, 2.89383 3.40326, 2.97807 3.42412, 3.05127 3.45724, 3.11302 3.50304, 3.17477 3.54885, 3.22037 3.60548, 3.2494 3.67296, 3.26515 3.71242, 3.27292 3.7572, 3.27292 3.80709, 3.27292 3.84001, 3.26842 3.87702, 3.25942 3.91832 Z" stroke="none" fill="#000000" />
			<path d="M 25.3307 -6.28359 C 25.4682 -5.74609, 25.2619 -5.34609, 24.7119 -5.08359 L 5.75566 3.41641, 15.9557 21.0164 C 16.2307 21.5539, 16.1619 22.0227, 15.7494 22.4164 L 15.5432 22.5164 C 14.9932 22.8539, 14.5119 22.7914, 14.0994 22.3164 L -0.00683784 7.51641, -14.1193 22.3164 C -14.4631 22.7914, -14.9443 22.8539, -15.5631 22.5164 L -15.7693 22.4164 C -16.1068 21.9539, -16.1756 21.4914, -15.9756 21.0164 L -5.77559 3.41641, -24.7318 -5.08359 C -25.2756 -5.34609, -25.4818 -5.74609, -25.3443 -6.28359 L -25.2443 -6.48359 C -24.9693 -7.07734, -24.5568 -7.27734, -24.0068 -7.08359 L -3.61309 -3.18359, -1.14434 -23.2836 C -1.00684 -23.8773, -0.663088 -24.1773, -0.113089 -24.1836 L 0.0931606 -24.1836 C 0.643162 -24.1773, 0.986912 -23.8773, 1.12441 -23.2836 L 3.59316 -3.18359, 23.9869 -7.08359 C 24.6119 -7.20859, 25.0244 -7.00859, 25.2244 -6.48359 L 25.3307 -6.28359 Z" stroke="none" fill="#000000" transform="matrix(0.03752 0 0 0.03752 5.38084 2.65057)" />
			<path d="M 10.1045 6.37193 C 10.0574 6.55513, 9.98322 6.73016, 9.88221 6.897, 9.78121 7.06385, 9.662 7.21229, 9.52501 7.34193, 9.38802 7.47176, 9.23426 7.57706, 9.06353 7.65762, 8.89279 7.73839, 8.71532 7.77867, 8.53109 7.77867, 8.42109 7.77867, 8.32008 7.75863, 8.22807 7.71815, 8.13606 7.67787, 8.06081 7.62327, 8.00234 7.55457, 7.94386 7.48587, 7.9046 7.4047, 7.88436 7.31085, 7.87536 7.26955, 7.87086 7.22702, 7.87086 7.18326, 7.87086 7.12662, 7.87761 7.06876, 7.89111 7.00987, 7.91585 6.91173, 7.96635 6.83812, 8.04262 6.78905, 8.11909 6.73997, 8.19433 6.71544, 8.26835 6.71544, 8.34707 6.71544, 8.41332 6.74059, 8.46709 6.79068, 8.50533 6.82789, 8.52434 6.87574, 8.52434 6.93463, 8.52434 6.95875, 8.51985 6.9882, 8.51085 7.02296, 8.48631 7.1211, 8.43581 7.19471, 8.35934 7.24378, 8.28307 7.29285, 8.22234 7.31739, 8.17736 7.31739, 8.19086 7.37628, 8.23298 7.43148, 8.30372 7.4826, 8.37447 7.53392, 8.46505 7.55948, 8.57505 7.55948, 8.6963 7.55948, 8.80978 7.52677, 8.91529 7.46134, 9.02079 7.39591, 9.11751 7.30819, 9.20502 7.19798, 9.29253 7.08798, 9.36941 6.96039, 9.43566 6.81522, 9.5019 6.67025, 9.55527 6.51813, 9.59575 6.35885 L 9.616 6.28033 C 9.58246 6.311, 9.51172 6.35087, 9.40376 6.39974, 9.29601 6.44881, 9.17803 6.47335, 9.05003 6.47335, 8.89729 6.47335, 8.76091 6.44513, 8.64069 6.38829, 8.52046 6.33186, 8.42559 6.24455, 8.35607 6.12657, 8.28859 6.00021, 8.25608 5.86076, 8.25833 5.70782 L 8.25833 5.68165 C 8.26283 5.52257, 8.28307 5.36452, 8.31885 5.20728, 8.35484 5.057, 8.40718 4.89138, 8.47568 4.71022, 8.54418 4.52927, 8.60981 4.35363, 8.67258 4.18331, 8.74006 4.00256, 8.77379 3.85412, 8.77379 3.73839, 8.77379 3.64045, 8.73229 3.59137, 8.64907 3.59117, 8.5728 3.59137, 8.50369 3.61325, 8.44194 3.6568, 8.38019 3.70056, 8.32417 3.76108, 8.27346 3.83837, 8.22296 3.91586, 8.17757 4.00747, 8.13708 4.11318, 8.0966 4.21909, 8.06286 4.33175, 8.03587 4.45157, 8.01133 4.51066, 7.96983 4.54113, 7.91135 4.54317 L 7.83386 4.54317 C 7.77988 4.54338, 7.75289 4.51618, 7.75289 4.46138 L 7.75289 4.43848 C 7.78438 4.31867, 7.82609 4.19619, 7.87761 4.07065, 7.92934 3.94531, 7.99457 3.83142, 8.07308 3.72878, 8.1516 3.62634, 8.24156 3.54128, 8.34257 3.4736, 8.44358 3.40613, 8.55931 3.37218, 8.68955 3.37198, 8.80201 3.37218, 8.89791 3.39631, 8.97765 3.44416, 9.05739 3.49221, 9.11791 3.556, 9.15942 3.63554, 9.20113 3.71528, 9.22403 3.80504, 9.22853 3.90523 L 9.22853 3.92813 C 9.22853 4.02219, 9.20952 4.11911, 9.17128 4.2193, 9.10626 4.38962, 9.04165 4.56362, 8.97765 4.7413, 8.91365 4.91919, 8.86376 5.07888, 8.82777 5.22057, 8.79179 5.36247, 8.76705 5.50294, 8.75355 5.64239, 8.74456 5.6796, 8.73903 5.72009, 8.73658 5.76344, 8.73658 5.8487, 8.7513 5.93273, 8.78054 6.01534, 8.80078 6.08977, 8.83779 6.14865, 8.89177 6.1922, 8.94575 6.23596, 9.00975 6.25763, 9.08377 6.25743, 9.22751 6.25763, 9.35326 6.21511, 9.46101 6.13005, 9.56897 6.04499, 9.66323 5.93376, 9.74399 5.79615 L 10.2864 3.68604 C 10.3067 3.60548, 10.3476 3.54619, 10.4093 3.50795, 10.4711 3.46992, 10.5334 3.4507, 10.5962 3.4505, 10.6614 3.4507, 10.7154 3.47033, 10.7579 3.50938, 10.7874 3.53801, 10.8019 3.57604, 10.8019 3.62388, 10.8019 3.64801, 10.7997 3.67316, 10.7952 3.69913 Z" stroke="none" fill="#000000" />
			<path d="M 25.3307 -6.28359 C 25.4682 -5.74609, 25.2619 -5.34609, 24.7119 -5.08359 L 5.75566 3.41641, 15.9557 21.0164 C 16.2307 21.5539, 16.1619 22.0227, 15.7494 22.4164 L 15.5432 22.5164 C 14.9932 22.8539, 14.5119 22.7914, 14.0994 22.3164 L -0.00683784 7.51641, -14.1193 22.3164 C -14.4631 22.7914, -14.9443 22.8539, -15.5631 22.5164 L -15.7693 22.4164 C -16.1068 21.9539, -16.1756 21.4914, -15.9756 21.0164 L -5.77559 3.41641, -24.7318 -5.08359 C -25.2756 -5.34609, -25.4818 -5.74609, -25.3443 -6.28359 L -25.2443 -6.48359 C -24.9693 -7.07734, -24.5568 -7.27734, -24.0068 -7.08359 L -3.61309 -3.18359, -1.14434 -23.2836 C -1.00684 -23.8773, -0.663088 -24.1773, -0.113089 -24.1836 L 0.0931606 -24.1836 C 0.643162 -24.1773, 0.986912 -23.8773, 1.12441 -23.2836 L 3.59316 -3.18359, 23.9869 -7.08359 C 24.6119 -7.20859, 25.0244 -7.00859, 25.2244 -6.48359 L 25.3307 -6.28359 Z" stroke="none" fill="#000000" transform="matrix(0.03752 0 0 0.03752 12.9092 2.65057)" />
			<rect />
		</svg>
	</g>
	<path d="M 148.031 -0 C 148.031 81.7548, 81.755 148.03, -0 148.03, -81.755 148.03, -148.031 81.7548, -148.031 -0, -148.031 -81.7548, -81.755 -148.03, -0 -148.03, 81.755 -148.03, 148.031 -81.7548, 148.031 -0 Z" stroke="none" fill="#E5393C" fill-opacity="0.392156839" transform="matrix(0.333333 0 -0 0.333333 83.8004 104.135)" />
	<path d="M 148.031 -0 C 148.031 81.7548, 81.755 148.03, -0 148.03, -81.755 148.03, -148.031 81.7548, -148.031 -0, -148.031 -81.7548, -81.755 -148.03, -0 -148.03, 81.755 -148.03, 148.031 -81.7548, 148.031 -0 Z" fill="none" stroke="#000000" stroke-width="3" stroke-linecap="round" stroke-linejoin="round" transform="matrix(0.333333 0 -0 0.333333 83.8004 104.135)" />
	<path d="M 148.031 -4.86336e-006 C 148.031 28.3824, 81.755 51.3908, 2.78182e-005 51.3908, -81.755 51.3908, -148.031 28.3824, -148.031 -0, -148.031 -0, -148.031 -0, -148.031 -0" fill="none" stroke="#000000" stroke-width="1.5" stroke-linecap="round" stroke-linejoin="round" transform="matrix(0.333333 0 -0 0.333333 83.8004 104.135)" />
	<path d="M -148.031 1.5653e-005 C -148.031 -28.3824, -81.7551 -51.3908, -0.000103345 -51.3908, 81.7549 -51.3908, 148.031 -28.3824, 148.031 -0, 148.031 -0, 148.031 -0, 148.031 -0" fill="none" stroke="#000000" stroke-width="1.5" stroke-linecap="round" stroke-linejoin="round" stroke-dasharray="2.2575, 3.7425" transform="matrix(0.333333 0 -0 0.333333 83.8004 104.135)" />
	<path d="M 148.031 -0 C 148.031 28.3824, 81.755 51.3908, -0 51.3908, -81.755 51.3908, -148.031 28.3824, -148.031 -0, -148.031 -28.3824, -81.755 -51.3908, -0 -51.3908, 81.755 -51.3908, 148.031 -28.3824, 148.031 -0 Z" stroke="none" fill="#E5393C" fill-opacity="0.392156839" transform="matrix(0.333333 0 -0 0.333333 83.8004 104.135)" />
	<path d="M 3.72067e-005 148.03 C -28.049 148.03, -50.7872 81.7549, -50.7872 0.000138576, -50.7872 -81.7547, -28.0491 -148.03, -6.09264e-005 -148.03" fill="none" stroke="#000000" stroke-width="1.5" stroke-linecap="round" stroke-linejoin="round" transform="matrix(0.333333 0 -0 0.333333 83.8004 104.135)" />
	<path d="M -8.30625e-005 -148.03 C 28.0489 -148.03, 50.7871 -81.7551, 50.7872 -0.000211241, 50.7872 81.7546, 28.0491 148.03, 0.000109986 148.03, 0.00010595 148.03, 0.000101914 148.03, 9.78776e-005 148.03" fill="none" stroke="#000000" stroke-width="1.5" stroke-linecap="round" stroke-linejoin="round" stroke-dasharray="2.2575, 3.7425" transform="matrix(0.333333 0 -0 0.333333 83.8004 104.135)" />
	<path d="M 50.7872 -0 C 50.7872 81.7548, 28.049 148.03, -0 148.03, -28.049 148.03, -50.7872 81.7548, -50.7872 -0, -50.7872 -81.7548, -28.049 -148.03, -0 -148.03, 28.049 -148.03, 50.7872 -81.7548, 50.7872 -0 Z" stroke="none" fill="#E5393C" fill-opacity="0.392156839" transform="matrix(0.333333 0 -0 0.333333 83.8004 104.135)" />
	<g transform="matrix(1 0 -0 1 88.8171 74.3526)">
		<svg width="15.0558109" height="23.9844513">
			<defs />
			<path d="M 3.62869 4.55286 C 3.57021 4.76469, 3.46982 4.96486, 3.3271 5.15338, 3.18438 5.3421, 3.01549 5.50609, 2.82002 5.64553, 2.62005 5.78539, 2.41006 5.89274, 2.18985 5.96798, 1.96984 6.04322, 1.75638 6.08616, 1.54966 6.097 L 1.24644 7.30418 C 1.2217 7.36306, 1.18019 7.39373, 1.12171 7.39578 L 1.08797 7.39578 C 1.0295 7.39578, 1.00026 7.3741, 1.00026 7.33035, 1.00026 7.31951, 1.00251 7.30418, 1.00701 7.28455 L 1.30696 6.09373 C 1.12498 6.08718, 0.941984 6.04588, 0.757759 5.96962, 0.573738 5.89335, 0.415275 5.78416, 0.282576 5.64226, 0.156828 5.50077, 0.0715651 5.3327, 0.0265822 5.13845, 0.00858906 5.05585, -0.000407517 4.96854, -0.000407517 4.87674, -0.000407517 4.76796, 0.0130874 4.65448, 0.0400771 4.5365, 0.0985549 4.31854, 0.198949 4.11468, 0.341667 3.92494, 0.484386 3.73519, 0.653276 3.5706, 0.848747 3.43074, 1.04872 3.29129, 1.2583 3.18395, 1.47728 3.1087, 1.69627 3.03346, 1.90687 2.99154, 2.10888 2.98255 L 2.52334 1.38606 C 2.53683 1.32963, 2.5763 1.30121, 2.64132 1.301 L 2.67505 1.301 C 2.73128 1.30121, 2.76154 1.32513, 2.76604 1.37298 L 2.76604 1.39588, 2.35486 2.98582 C 2.54133 2.99257, 2.72678 3.03346, 2.91101 3.1087, 3.09523 3.18395, 3.25083 3.29252, 3.3776 3.43422, 3.50458 3.57612, 3.5927 3.74174, 3.64219 3.93128, 3.66468 4.01879, 3.67592 4.11039, 3.67592 4.20608, 3.67592 4.31527, 3.66018 4.431, 3.62869 4.55286 Z M 3.08951 4.53323 C 3.13224 4.39174, 3.15351 4.24984, 3.15351 4.10794 L 3.15351 4.01306 C 3.14001 3.84969, 3.09176 3.70677, 3.00874 3.5845, 2.92778 3.46918, 2.82391 3.3786, 2.69693 3.31317, 2.57016 3.24774, 2.43807 3.21073, 2.30108 3.20174 L 1.60691 5.88108 C 1.74391 5.87474, 1.89399 5.83712, 2.05674 5.76842, 2.2197 5.69972, 2.37081 5.60873, 2.51005 5.49505, 2.66279 5.37093, 2.78567 5.22494, 2.87891 5.05687, 2.97214 4.889, 3.04248 4.71439, 3.08951 4.53323 Z M 2.05838 3.20501 C 1.75065 3.22484, 1.44968 3.35345, 1.15545 3.59104, 1.00271 3.71556, 0.879213 3.86176, 0.784749 4.02963, 0.690489 4.1977, 0.620766 4.37088, 0.575783 4.54959, 0.535298 4.70457, 0.515056 4.85179, 0.515056 4.99124 L 0.515056 5.06975 C 0.524052 5.23353, 0.572511 5.37748, 0.660023 5.50159, 0.736494 5.61302, 0.839137 5.70197, 0.968361 5.76842, 1.09758 5.83508, 1.22967 5.87249, 1.36421 5.88108 L 2.05838 3.20501 Z" stroke="none" fill="#000000" />
			<rect />
		</svg>
	</g>
	<g transform="matrix(1 0 -0 1 67.758 100.133)">
		<svg width="15.0558109" height="23.9844513">
			<defs />
			<path d="M 3.62869 4.55286 C 3.57021 4.76469, 3.46982 4.96486, 3.3271 5.15338, 3.18438 5.3421, 3.01549 5.50609, 2.82002 5.64553, 2.62005 5.78539, 2.41006 5.89274, 2.18985 5.96798, 1.96984 6.04322, 1.75638 6.08616, 1.54966 6.097 L 1.24644 7.30418 C 1.2217 7.36306, 1.18019 7.39373, 1.12171 7.39578 L 1.08797 7.39578 C 1.0295 7.39578, 1.00026 7.3741, 1.00026 7.33035, 1.00026 7.31951, 1.00251 7.30418, 1.00701 7.28455 L 1.30696 6.09373 C 1.12498 6.08718, 0.941984 6.04588, 0.757759 5.96962, 0.573738 5.89335, 0.415275 5.78416, 0.282576 5.64226, 0.156828 5.50077, 0.0715651 5.3327, 0.0265822 5.13845, 0.00858906 5.05585, -0.000407517 4.96854, -0.000407517 4.87674, -0.000407517 4.76796, 0.0130874 4.65448, 0.0400771 4.5365, 0.0985549 4.31854, 0.198949 4.11468, 0.341667 3.92494, 0.484386 3.73519, 0.653276 3.5706, 0.848747 3.43074, 1.04872 3.29129, 1.2583 3.18395, 1.47728 3.1087, 1.69627 3.03346, 1.90687 2.99154, 2.10888 2.98255 L 2.52334 1.38606 C 2.53683 1.32963, 2.5763 1.30121, 2.64132 1.301 L 2.67505 1.301 C 2.73128 1.30121, 2.76154 1.32513, 2.76604 1.37298 L 2.76604 1.39588, 2.35486 2.98582 C 2.54133 2.99257, 2.72678 3.03346, 2.91101 3.1087, 3.09523 3.18395, 3.25083 3.29252, 3.3776 3.43422, 3.50458 3.57612, 3.5927 3.74174, 3.64219 3.93128, 3.66468 4.01879, 3.67592 4.11039, 3.67592 4.20608, 3.67592 4.31527, 3.66018 4.431, 3.62869 4.55286 Z M 3.08951 4.53323 C 3.13224 4.39174, 3.15351 4.24984, 3.15351 4.10794 L 3.15351 4.01306 C 3.14001 3.84969, 3.09176 3.70677, 3.00874 3.5845, 2.92778 3.46918, 2.82391 3.3786, 2.69693 3.31317, 2.57016 3.24774, 2.43807 3.21073, 2.30108 3.20174 L 1.60691 5.88108 C 1.74391 5.87474, 1.89399 5.83712, 2.05674 5.76842, 2.2197 5.69972, 2.37081 5.60873, 2.51005 5.49505, 2.66279 5.37093, 2.78567 5.22494, 2.87891 5.05687, 2.97214 4.889, 3.04248 4.71439, 3.08951 4.53323 Z M 2.05838 3.20501 C 1.75065 3.22484, 1.44968 3.35345, 1.15545 3.59104, 1.00271 3.71556, 0.879213 3.86176, 0.784749 4.02963, 0.690489 4.1977, 0.620766 4.37088, 0.575783 4.54959, 0.535298 4.70457, 0.515056 4.85179, 0.515056 4.99124 L 0.515056 5.06975 C 0.524052 5.23353, 0.572511 5.37748, 0.660023 5.50159, 0.736494 5.61302, 0.839137 5.70197, 0.968361 5.76842, 1.09758 5.83508, 1.22967 5.87249, 1.36421 5.88108 L 2.05838 3.20501 Z" stroke="none" fill="#000000" />
			<rect />
		</svg>
	</g>
	<g transform="matrix(1 0 -0 1 27.8404 148.838)">
		<svg width="21.0837173" height="21.1305656">
			<defs />
			<path d="M 5.21508 5.65668 C 5.17582 5.81404, 5.09567 5.93182, 4.97528 6.01033, 4.85488 6.08885, 4.73384 6.12811, 4.61149 6.12778, 4.48586 6.12811, 4.3815 6.08787, 4.29873 6.00739, 4.23788 5.9485, 4.20549 5.87162, 4.20157 5.77708, 4.20157 5.73913, 4.20877 5.69005, 4.22316 5.63051, 4.26275 5.49834, 4.32392 5.39791, 4.40636 5.32986, 4.48913 5.26182, 4.54671 5.22256, 4.5791 5.21176, 4.51105 5.15975, 4.3707 5.13357, 4.15839 5.13325, 3.97158 5.13357, 3.80441 5.23041, 3.65719 5.42408, 3.50998 5.61775, 3.40006 5.85068, 3.32808 6.12254 L 2.83213 8.03833 C 2.78174 8.23069, 2.74412 8.41389, 2.71893 8.58793, 2.70454 8.64748, 2.69734 8.69982, 2.69734 8.74497, 2.69734 8.85358, 2.71533 8.9563, 2.75132 9.05379, 2.78731 9.15881, 2.84129 9.24256, 2.91326 9.30537, 2.98523 9.36818, 3.07683 9.39959, 3.18806 9.39926, 3.33201 9.39959, 3.47039 9.3623, 3.60321 9.28705, 3.73636 9.21213, 3.85872 9.11104, 3.96995 8.98346, 4.08118 8.8562, 4.17998 8.708, 4.26634 8.53854, 4.35271 8.3694, 4.42076 8.19568, 4.47114 8.01739, 4.49273 7.92709, 4.55391 7.88162, 4.65434 7.88129 L 4.77833 7.88129 C 4.8719 7.88162, 4.91868 7.91663, 4.91868 7.98598, 4.91868 8.00725, 4.91344 8.02655, 4.90265 8.04356, 4.85227 8.25326, 4.77048 8.46002, 4.65729 8.66416, 4.54409 8.8683, 4.41225 9.04889, 4.26111 9.20592, 4.10997 9.36295, 3.93854 9.49217, 3.74618 9.59293, 3.55382 9.69435, 3.34804 9.74473, 3.12885 9.74473, 2.90606 9.74473, 2.7137 9.69697, 2.55209 9.60079, 2.39048 9.50526, 2.25896 9.38029, 2.1582 9.22653, 2.12614 9.18858, 2.10095 9.14932, 2.08296 9.10908, 2.06496 9.06917, 2.0594 9.06295, 2.0666 9.09044, 1.98056 9.23373, 1.84414 9.37865, 1.65701 9.52522, 1.47021 9.67178, 1.25462 9.74473, 1.00991 9.74473, 0.873488 9.74473, 0.738703 9.72739, 0.605554 9.69239, 0.472731 9.65771, 0.356594 9.60373, 0.257795 9.53045, 0.158996 9.45717, 0.0844062 9.36818, 0.0340253 9.26317, 0.00916206 9.20068, -0.00326958 9.13264, -0.00359673 9.05903, -0.00326958 9.00701, 0.00392769 8.94584, 0.0179951 8.87582, 0.05758 8.71912, 0.138386 8.60135, 0.260739 8.52283, 0.383093 8.44432, 0.505119 8.40506, 0.627145 8.40473, 0.753098 8.40506, 0.861057 8.4453, 0.950695 8.52512, 1.01187 8.58466, 1.0423 8.66154, 1.0423 8.75543, 1.0423 8.80451, 1.0351 8.85358, 1.0207 8.902, 0.988644 9.02435, 0.930085 9.12315, 0.845681 9.19807, 0.761276 9.27331, 0.700754 9.3142, 0.664768 9.32075, 0.733142 9.37702, 0.871525 9.40319, 1.07992 9.39926, 1.26705 9.39959, 1.43586 9.3021, 1.58667 9.10647, 1.73781 8.91116, 1.84741 8.67725, 1.91578 8.40473 L 2.41697 6.47848 C 2.46736 6.29724, 2.50694 6.11927, 2.53573 5.94458, 2.54293 5.88896, 2.54653 5.83662, 2.54653 5.78754, 2.54653 5.67958, 2.53049 5.5785, 2.49778 5.48395, 2.46212 5.37959, 2.40651 5.29519, 2.33093 5.23041, 2.25536 5.16596, 2.1618 5.13357, 2.05057 5.13325, 1.90662 5.13357, 1.76726 5.1712, 1.63247 5.24611, 1.49769 5.32136, 1.37468 5.42146, 1.26345 5.54709, 1.15222 5.67272, 1.05342 5.81862, 0.967053 5.98416, 0.880685 6.15002, 0.817873 6.32538, 0.777961 6.50989, 0.738703 6.60443, 0.672292 6.65318, 0.578727 6.65645 L 0.459973 6.65645 C 0.373933 6.65678, 0.330749 6.61327, 0.330749 6.52559 L 0.330749 6.48895 C 0.384728 6.27303, 0.467497 6.06268, 0.578727 5.85854, 0.689958 5.65439, 0.823107 5.47381, 0.977521 5.31678, 1.13226 5.15975, 1.305 5.0315, 1.4954 4.93205, 1.6858 4.8326, 1.89256 4.78287, 2.11502 4.78254, 2.33093 4.78287, 2.52133 4.82998, 2.68654 4.9242, 2.85208 5.01842, 2.98687 5.14404, 3.0909 5.30075, 3.11249 5.33935, 3.13245 5.38057, 3.15044 5.42408, 3.16843 5.46792, 3.17367 5.47904, 3.16647 5.45778, 3.25644 5.30467, 3.39482 5.15386, 3.58162 5.00533, 3.76875 4.85713, 3.98238 4.78287, 4.22316 4.78254, 4.35991 4.78287, 4.49535 4.79956, 4.63013 4.8326, 4.76492 4.86597, 4.88204 4.91896, 4.98084 4.99225, 5.07964 5.06553, 5.15259 5.15615, 5.19904 5.26411, 5.22424 5.32725, 5.23667 5.39889, 5.23667 5.47872, 5.23667 5.53139, 5.22947 5.5906, 5.21508 5.65668 Z" stroke="none" fill="#000000" />
			<rect />
		</svg>
	</g>
	<g transform="matrix(1 0 -0 1 175.688 97.828)">
		<svg width="18.0697632" height="27.0062103">
			<defs />
			<path d="M 3.75992 9.58247 C 3.68467 9.87559, 3.56592 10.1556, 3.40431 10.4226, 3.2427 10.6895, 3.05197 10.927, 2.83278 11.1345, 2.61359 11.3422, 2.36757 11.5107, 2.09441 11.6396, 1.82124 11.7688, 1.53727 11.8332, 1.24251 11.8332, 1.0665 11.8332, 0.904893 11.8012, 0.757677 11.7364, 0.61046 11.672, 0.490069 11.5846, 0.396505 11.4747, 0.30294 11.3648, 0.240128 11.2349, 0.20774 11.0847, 0.193346 11.0186, 0.186148 10.9506, 0.186148 10.8806, 0.186148 10.79, 0.196944 10.6974, 0.218536 10.6032, 0.258121 10.4461, 0.338927 10.3284, 0.460953 10.2498, 0.583307 10.1713, 0.703697 10.1321, 0.822125 10.1321, 0.948077 10.1321, 1.05407 10.1723, 1.14011 10.2525, 1.20129 10.312, 1.23171 10.3886, 1.23171 10.4828, 1.23171 10.5214, 1.22452 10.5685, 1.21012 10.6241, 1.17087 10.7811, 1.09006 10.8989, 0.967706 10.9774, 0.84568 11.0559, 0.748517 11.0952, 0.676544 11.0952, 0.698136 11.1894, 0.765528 11.2777, 0.878722 11.3595, 0.991915 11.4417, 1.13684 11.4825, 1.31285 11.4825, 1.50685 11.4825, 1.68841 11.4302, 1.85722 11.3255, 2.02603 11.2208, 2.18077 11.0805, 2.32079 10.9041, 2.46081 10.7281, 2.58382 10.524, 2.68982 10.2917, 2.79581 10.0598, 2.8812 9.81638, 2.94597 9.56153 L 2.97836 9.4359 C 2.92471 9.48498, 2.81151 9.54877, 2.63878 9.62696, 2.46637 9.70547, 2.27761 9.74473, 2.07281 9.74473, 1.82843 9.74473, 1.61023 9.69958, 1.41786 9.60864, 1.2255 9.51834, 1.0737 9.37865, 0.962472 9.18989, 0.854513 8.98771, 0.802496 8.7646, 0.806095 8.51989 L 0.806095 8.47801 C 0.813292 8.22349, 0.84568 7.97061, 0.902931 7.71903, 0.960509 7.47857, 1.04426 7.21358, 1.15385 6.92373, 1.26345 6.6342, 1.36846 6.35318, 1.4689 6.08067, 1.57686 5.79147, 1.63084 5.55396, 1.63084 5.36879, 1.63084 5.21209, 1.56442 5.13357, 1.43128 5.13325, 1.30925 5.13357, 1.19867 5.16858, 1.09987 5.23826, 1.00108 5.30827, 0.911436 5.40511, 0.830304 5.52877, 0.749498 5.65276, 0.676871 5.79932, 0.612096 5.96846, 0.54732 6.13792, 0.493341 6.31818, 0.450157 6.50989, 0.410899 6.60443, 0.344488 6.65318, 0.250924 6.65645 L 0.126935 6.65645 C 0.0405674 6.65678, -0.00261621 6.61327, -0.00261621 6.52559 L -0.00261621 6.48895 C 0.0477646 6.29724, 0.114503 6.10128, 0.196944 5.90041, 0.279713 5.69987, 0.384073 5.51765, 0.509698 5.35342, 0.635323 5.18952, 0.779269 5.05342, 0.94088 4.94514, 1.10249 4.83718, 1.28766 4.78287, 1.49605 4.78254, 1.67598 4.78287, 1.82941 4.82148, 1.957 4.89803, 2.08459 4.97491, 2.18143 5.07698, 2.24784 5.20424, 2.31458 5.33183, 2.35122 5.47544, 2.35841 5.63575 L 2.35841 5.67239 C 2.35841 5.82288, 2.32799 5.97794, 2.26681 6.13825, 2.16278 6.41076, 2.0594 6.68917, 1.957 6.97346, 1.85461 7.25808, 1.77478 7.51358, 1.7172 7.74029, 1.65962 7.96733, 1.62004 8.19209, 1.59845 8.4152, 1.58405 8.47474, 1.57522 8.53952, 1.57129 8.60887, 1.57129 8.74529, 1.59485 8.87975, 1.64163 9.01192, 1.67402 9.131, 1.73323 9.22522, 1.8196 9.2949, 1.90597 9.36491, 2.00837 9.39959, 2.12679 9.39926, 2.35678 9.39959, 2.55797 9.33154, 2.73038 9.19545, 2.90312 9.05936, 3.05393 8.88139, 3.18316 8.66122 L 4.05108 5.28504 C 4.08347 5.15615, 4.1489 5.06127, 4.2477 5.0001, 4.34649 4.93925, 4.44627 4.9085, 4.54671 4.90817, 4.65107 4.9085, 4.73744 4.9399, 4.80548 5.00239, 4.85259 5.04819, 4.87582 5.10904, 4.87582 5.18559, 4.87582 5.22419, 4.87222 5.26443, 4.86503 5.30598 Z" stroke="none" fill="#000000" />
			<rect />
		</svg>
	</g>
	<g transform="matrix(1 0 -0 1 81.515 16.1397)">
		<svg width="18.0697632" height="21.1305656">
			<defs />
			<path d="M 4.54998 4.99715 C 4.34159 5.36749, 4.09459 5.71034, 3.80899 6.02604, 3.52339 6.34206, 3.22438 6.64631, 2.91162 6.93943, 2.59887 7.23256, 2.28644 7.52405, 1.97369 7.81357, 1.66093 8.10343, 1.40576 8.36318, 1.20783 8.59317, 1.19736 8.59709, 1.23695 8.59873, 1.32659 8.5984, 1.46693 8.59873, 1.5919 8.61705, 1.7015 8.65369, 1.81109 8.69033, 1.91513 8.73221, 2.01393 8.77932, 2.11273 8.82643, 2.21251 8.86666, 2.31327 8.89971, 2.41403 8.93308, 2.51446 8.94943, 2.6149 8.94911, 2.74085 8.94943, 2.86746 8.92588, 2.99504 8.87877, 3.12263 8.83166, 3.23648 8.76558, 3.33724 8.67986, 3.438 8.59448, 3.52764 8.49502, 3.60681 8.3815, 3.68598 8.26831, 3.74323 8.15021, 3.77922 8.02786, 3.80081 7.93037, 3.86199 7.88162, 3.96242 7.88129 L 4.08641 7.88129 C 4.17998 7.88162, 4.22643 7.9199, 4.22643 7.99645, 4.22643 8.01771, 4.2212 8.03702, 4.2104 8.05403, 4.16002 8.26373, 4.0802 8.46885, 3.9706 8.66939, 3.86101 8.87026, 3.72884 9.04889, 3.57442 9.20592, 3.42001 9.36295, 3.24662 9.49217, 3.05426 9.59293, 2.8619 9.69435, 2.65808 9.74473, 2.44249 9.74473, 2.26648 9.74473, 2.1281 9.70024, 2.02734 9.61125, 1.9269 9.5226, 1.83988 9.42576, 1.76595 9.32107, 1.69234 9.21639, 1.61873 9.12675, 1.5448 9.0515, 1.47119 8.97659, 1.37501 8.93896, 1.25658 8.93864, 1.10216 8.93896, 0.95462 9.00701, 0.8146 9.14311, 0.674581 9.2792, 0.548628 9.44506, 0.437071 9.64004, 0.397813 9.70646, 0.340235 9.74146, 0.264664 9.74473 L 0.108287 9.74473 C 0.0366412 9.71005, 0.000982065 9.66622, 0.000654917 9.61387, 0.000982065 9.58966, 0.00981507 9.56349, 0.0274811 9.53536, 0.236202 9.17615, 0.481563 8.83788, 0.763565 8.52022, 1.04557 8.20288, 1.33935 7.89732, 1.6449 7.6042, 1.95046 7.31107, 2.25929 7.02253, 2.57204 6.73791, 2.8848 6.45362, 3.15044 6.18568, 3.36963 5.93411 L 3.42328 5.93411 C 3.28326 5.93443, 3.15862 5.91448, 3.04902 5.87424, 2.93943 5.83433, 2.83441 5.79245, 2.73365 5.74861, 2.63289 5.7051, 2.53311 5.66486, 2.43431 5.62822, 2.33551 5.59158, 2.2341 5.57326, 2.12974 5.57293, 1.95013 5.57326, 1.78656 5.62299, 1.63934 5.72244, 1.49212 5.82189, 1.39856 5.94327, 1.35898 6.0859, 1.33738 6.18405, 1.27457 6.23443, 1.17021 6.2377 L 1.04622 6.2377 C 0.960181 6.23803, 0.916998 6.19452, 0.916998 6.10684 L 0.916998 6.0702 C 0.956583 5.90303, 1.0194 5.74436, 1.10576 5.5942, 1.19213 5.44437, 1.29616 5.30893, 1.41819 5.18854, 1.54054 5.06814, 1.67696 4.97065, 1.82778 4.89541, 1.97892 4.82049, 2.1389 4.78287, 2.30771 4.78254, 2.48371 4.78287, 2.62111 4.82834, 2.71991 4.91896, 2.81871 5.00991, 2.90704 5.10577, 2.98425 5.20686, 3.06146 5.30827, 3.13605 5.39791, 3.20802 5.47643, 3.27999 5.55494, 3.37323 5.5942, 3.48806 5.59387, 3.59602 5.5942, 3.70005 5.52975, 3.80081 5.40053, 3.90157 5.27163, 4.01477 5.09857, 4.14039 4.882, 4.18717 4.81591, 4.24279 4.78287, 4.30724 4.78254 L 4.42599 4.78254 C 4.48357 4.78287, 4.52512 4.80741, 4.54998 4.85583, 4.55718 4.87349, 4.56437 4.89279, 4.57157 4.9134, 4.57157 4.93827, 4.56437 4.96607, 4.54998 4.99715 Z" stroke="none" fill="#000000" />
			<rect />
		</svg>
	</g>
	<g transform="matrix(1 0 -0 1 128.186 7.5)">
		<svg width="32.9720879" height="30.0279713">
			<defs />
			<path d="M 4.54949 5.60978 C 4.3411 5.98011, 4.0941 6.32296, 3.80817 6.63866, 3.52257 6.95469, 3.22323 7.25893, 2.91048 7.55206, 2.59772 7.84518, 2.2853 8.13667, 1.97254 8.4262, 1.65979 8.71605, 1.40461 8.97581, 1.20669 9.20579, 1.19622 9.20972, 1.2358 9.21136, 1.32544 9.21103, 1.46546 9.21136, 1.59043 9.22968, 1.70003 9.26632, 1.80995 9.30296, 1.91398 9.34483, 2.01278 9.39194, 2.11158 9.43905, 2.21136 9.47929, 2.31212 9.51233, 2.41288 9.5457, 2.51332 9.56206, 2.61375 9.56173, 2.73971 9.56206, 2.86631 9.5385, 2.9939 9.49139, 3.12149 9.44429, 3.23566 9.3782, 3.33642 9.29249, 3.43719 9.2071, 3.52682 9.10765, 3.60599 8.99413, 3.68516 8.88094, 3.74242 8.76284, 3.7784 8.64048, 3.79999 8.54299, 3.86117 8.49425, 3.96161 8.49392 L 4.08592 8.49392 C 4.17949 8.49425, 4.22594 8.53252, 4.22594 8.60908, 4.22594 8.63034, 4.22071 8.64964, 4.20991 8.66665, 4.15953 8.87636, 4.07971 9.08148, 3.97011 9.28202, 3.86052 9.48289, 3.72835 9.66151, 3.57361 9.81854, 3.41919 9.97557, 3.2458 10.1048, 3.05344 10.2056, 2.86108 10.307, 2.65726 10.3574, 2.44135 10.3574, 2.26534 10.3574, 2.12728 10.3129, 2.02652 10.2239, 1.92576 10.1352, 1.83874 10.0384, 1.7648 9.9337, 1.6912 9.82901, 1.61759 9.73937, 1.54365 9.66413, 1.47004 9.58921, 1.37386 9.55159, 1.25543 9.55126, 1.10102 9.55159, 0.953475 9.61964, 0.813129 9.75573, 0.673109 9.89182, 0.547157 10.0577, 0.435927 10.2527, 0.396342 10.3191, 0.338763 10.3541, 0.263192 10.3574 L 0.106815 10.3574 C 0.0351697 10.3227, -0.000489455 10.2788, -0.000816602 10.2265, -0.000489455 10.2023, 0.00834355 10.1761, 0.0260096 10.148, 0.23473 9.78877, 0.480092 9.4505, 0.762093 9.13284, 1.0441 8.81551, 1.33787 8.50995, 1.64343 8.21682, 1.94899 7.9237, 2.25814 7.63515, 2.5709 7.35054, 2.88365 7.06624, 3.14962 6.79831, 3.36881 6.54673 L 3.42246 6.54673 C 3.28244 6.54706, 3.1578 6.5271, 3.04788 6.48686, 2.93828 6.44695, 2.83327 6.40508, 2.73251 6.36124, 2.63207 6.31773, 2.53229 6.27749, 2.43349 6.24085, 2.3347 6.20421, 2.23295 6.18589, 2.12859 6.18556, 1.94899 6.18589, 1.78541 6.23561, 1.6382 6.33507, 1.49098 6.43452, 1.39742 6.55589, 1.35783 6.69853, 1.33624 6.79667, 1.27343 6.84705, 1.16907 6.85033 L 1.04508 6.85033 C 0.95871 6.85065, 0.915526 6.80714, 0.915526 6.71947 L 0.915526 6.68283 C 0.955438 6.51565, 1.01825 6.35699, 1.10462 6.20682, 1.19098 6.05699, 1.29502 5.92155, 1.41704 5.80116, 1.5394 5.68077, 1.67582 5.58328, 1.82696 5.50804, 1.9781 5.43312, 2.13775 5.3955, 2.30656 5.39517, 2.48289 5.3955, 2.6203 5.44097, 2.7191 5.53159, 2.81789 5.62254, 2.90622 5.71839, 2.98343 5.81948, 3.06064 5.9209, 3.13523 6.01054, 3.2072 6.08905, 3.27917 6.16757, 3.37241 6.20682, 3.48724 6.2065, 3.5952 6.20682, 3.69956 6.14238, 3.80032 6.01315, 3.90108 5.88426, 4.01395 5.71119, 4.13957 5.49462, 4.18668 5.42854, 4.2423 5.3955, 4.30675 5.39517 L 4.4255 5.39517 C 4.48308 5.3955, 4.5243 5.42003, 4.54949 5.46845, 4.55669 5.48612, 4.56389 5.50542, 4.57108 5.52603, 4.57108 5.55089, 4.56389 5.5787, 4.54949 5.60978 Z" stroke="none" fill="#000000" />
			<path d="M 25.3307 -6.28359 C 25.4682 -5.74609, 25.2619 -5.34609, 24.7119 -5.08359 L 5.75566 3.41641, 15.9557 21.0164 C 16.2307 21.5539, 16.1619 22.0227, 15.7494 22.4164 L 15.5432 22.5164 C 14.9932 22.8539, 14.5119 22.7914, 14.0994 22.3164 L -0.00683784 7.51641, -14.1193 22.3164 C -14.4631 22.7914, -14.9443 22.8539, -15.5631 22.5164 L -15.7693 22.4164 C -16.1068 21.9539, -16.1756 21.4914, -15.9756 21.0164 L -5.77559 3.41641, -24.7318 -5.08359 C -25.2756 -5.34609, -25.4818 -5.74609, -25.3443 -6.28359 L -25.2443 -6.48359 C -24.9693 -7.07734, -24.5568 -7.27734, -24.0068 -7.08359 L -3.61309 -3.18359, -1.14434 -23.2836 C -1.00684 -23.8773, -0.663088 -24.1773, -0.113089 -24.1836 L 0.0931606 -24.1836 C 0.643162 -24.1773, 0.986912 -23.8773, 1.12441 -23.2836 L 3.59316 -3.18359, 23.9869 -7.08359 C 24.6119 -7.20859, 25.0244 -7.00859, 25.2244 -6.48359 L 25.3307 -6.28359 Z" stroke="none" fill="#000000" transform="matrix(0.060032 0 0 0.060032 7.94099 4.24092)" />
			<rect />
		</svg>
	</g>
	<g transform="matrix(1 0 -0 1 40.534 7.5)">
		<svg width="35.9860382" height="30.0279713">
			<defs />
			<path d="M 5.21557 6.26931 C 5.17631 6.42667, 5.09616 6.54444, 4.97577 6.62296, 4.85538 6.70147, 4.73433 6.74073, 4.61198 6.7404, 4.48635 6.74073, 4.38199 6.70049, 4.29922 6.62001, 4.23837 6.56113, 4.20599 6.48425, 4.20206 6.3897, 4.20206 6.35175, 4.20926 6.30268, 4.22365 6.24314, 4.26356 6.11097, 4.32474 6.01054, 4.40718 5.94249, 4.48995 5.87444, 4.54753 5.83518, 4.57959 5.82439, 4.51154 5.77237, 4.3712 5.7462, 4.1592 5.74587, 3.9724 5.7462, 3.80523 5.84304, 3.65801 6.03671, 3.5108 6.23038, 3.40087 6.46331, 3.3289 6.73517 L 2.83294 8.65095 C 2.78289 8.84331, 2.74527 9.02652, 2.71975 9.20056, 2.70568 9.2601, 2.69849 9.31244, 2.69849 9.35759, 2.69849 9.4662, 2.71648 9.56893, 2.75214 9.66642, 2.78812 9.77143, 2.8421 9.85518, 2.91408 9.918, 2.98605 9.98081, 3.07765 10.0122, 3.18888 10.0119, 3.33283 10.0122, 3.47121 9.97492, 3.60403 9.89968, 3.73685 9.82476, 3.85921 9.72367, 3.97044 9.59608, 4.082 9.46882, 4.1808 9.32062, 4.26716 9.15116, 4.35353 8.98202, 4.42158 8.80831, 4.47163 8.63001, 4.49322 8.53972, 4.5544 8.49425, 4.65516 8.49392 L 4.77882 8.49392 C 4.87239 8.49425, 4.91917 8.52925, 4.91917 8.59861, 4.91917 8.61987, 4.91393 8.63917, 4.90281 8.65619, 4.85276 8.86589, 4.77097 9.07265, 4.65778 9.27678, 4.54458 9.48093, 4.41274 9.66151, 4.2616 9.81854, 4.11079 9.97557, 3.93936 10.1048, 3.747 10.2056, 3.55463 10.307, 3.34886 10.3574, 3.12967 10.3574, 2.90688 10.3574, 2.71452 10.3096, 2.5529 10.2134, 2.39129 10.1179, 2.26011 9.99291, 2.15934 9.83915, 2.12728 9.8012, 2.10209 9.76195, 2.0841 9.72171, 2.06611 9.6818, 2.06055 9.67558, 2.06774 9.70306, 1.98138 9.84635, 1.84496 9.99128, 1.65815 10.1378, 1.47135 10.2844, 1.25576 10.3574, 1.01105 10.3574, 0.874633 10.3574, 0.739848 10.34, 0.607026 10.305, 0.474203 10.2703, 0.358066 10.2164, 0.259267 10.1431, 0.160468 10.0698, 0.0858782 9.98081, 0.0354973 9.87579, 0.0106341 9.81331, -0.00179758 9.74526, -0.00212473 9.67165, -0.00179758 9.61964, 0.00539968 9.55846, 0.0194671 9.48845, 0.059052 9.33175, 0.139858 9.21397, 0.261884 9.13546, 0.384238 9.05694, 0.506264 9.01768, 0.628617 9.01736, 0.754242 9.01768, 0.862201 9.05792, 0.95184 9.13775, 1.01302 9.19729, 1.04344 9.27417, 1.04344 9.36806, 1.04344 9.41713, 1.03624 9.4662, 1.02185 9.51462, 0.989789 9.63698, 0.93123 9.73577, 0.846825 9.81069, 0.762421 9.88594, 0.702226 9.92683, 0.66624 9.93337, 0.734614 9.98964, 0.872997 10.0158, 1.08139 10.0119, 1.26819 10.0122, 1.437 9.91472, 1.58782 9.71909, 1.73896 9.52378, 1.84855 9.28987, 1.9166 9.01736 L 2.41812 7.09111 C 2.4685 6.90987, 2.50776 6.7319, 2.53655 6.5572, 2.54374 6.50159, 2.54734 6.44924, 2.54734 6.40017, 2.54734 6.29221, 2.53131 6.19112, 2.49892 6.09658, 2.46294 5.99222, 2.40732 5.90781, 2.33175 5.84304, 2.25651 5.77859, 2.16294 5.7462, 2.05139 5.74587, 1.90777 5.7462, 1.76873 5.78382, 1.63394 5.85874, 1.49916 5.93398, 1.37615 6.03409, 1.26459 6.15972, 1.15336 6.28534, 1.05456 6.43125, 0.968198 6.59679, 0.88183 6.76265, 0.819018 6.938, 0.779433 7.12251, 0.740175 7.21706, 0.673437 7.2658, 0.579872 7.26908 L 0.461445 7.26908 C 0.375077 7.2694, 0.331894 7.22589, 0.331894 7.13822 L 0.331894 7.10158 C 0.385873 6.88566, 0.468642 6.6753, 0.579872 6.47116, 0.69143 6.26702, 0.824579 6.08643, 0.978993 5.9294, 1.13341 5.77237, 1.30614 5.64413, 1.49654 5.54468, 1.68694 5.44522, 1.8937 5.3955, 2.11616 5.39517, 2.33208 5.3955, 2.52248 5.44261, 2.68769 5.53682, 2.8529 5.63104, 2.98768 5.75667, 3.09172 5.91337, 3.11331 5.95198, 3.13327 5.9932, 3.15126 6.03671, 3.16925 6.08055, 3.17449 6.09167, 3.16729 6.0704, 3.25726 5.9173, 3.39564 5.76648, 3.58244 5.61796, 3.76924 5.46976, 3.98287 5.3955, 4.22365 5.39517, 4.3604 5.3955, 4.49617 5.41218, 4.63095 5.44522, 4.76574 5.47859, 4.8822 5.53159, 4.981 5.60487, 5.0798 5.67815, 5.15275 5.76877, 5.19954 5.87673, 5.22473 5.93987, 5.23716 6.01152, 5.23716 6.09134, 5.23716 6.14401, 5.22996 6.20323, 5.21557 6.26931 Z" stroke="none" fill="#000000" />
			<path d="M 25.3307 -6.28359 C 25.4682 -5.74609, 25.2619 -5.34609, 24.7119 -5.08359 L 5.75566 3.41641, 15.9557 21.0164 C 16.2307 21.5539, 16.1619 22.0227, 15.7494 22.4164 L 15.5432 22.5164 C 14.9932 22.8539, 14.5119 22.7914, 14.0994 22.3164 L -0.00683784 7.51641, -14.1193 22.3164 C -14.4631 22.7914, -14.9443 22.8539, -15.5631 22.5164 L -15.7693 22.4164 C -16.1068 21.9539, -16.1756 21.4914, -15.9756 21.0164 L -5.77559 3.41641, -24.7318 -5.08359 C -25.2756 -5.34609, -25.4818 -5.74609, -25.3443 -6.28359 L -25.2443 -6.48359 C -24.9693 -7.07734, -24.5568 -7.27734, -24.0068 -7.08359 L -3.61309 -3.18359, -1.14434 -23.2836 C -1.00684 -23.8773, -0.663088 -24.1773, -0.113089 -24.1836 L 0.0931606 -24.1836 C 0.643162 -24.1773, 0.986912 -23.8773, 1.12441 -23.2836 L 3.59316 -3.18359, 23.9869 -7.08359 C 24.6119 -7.20859, 25.0244 -7.00859, 25.2244 -6.48359 L 25.3307 -6.28359 Z" stroke="none" fill="#000000" transform="matrix(0.060032 0 0 0.060032 8.60837 4.24092)" />
			<rect />
		</svg>
	</g>
	<g transform="matrix(1 0 -0 1 176.349 109.699)">
		<svg width="32.9720879" height="35.9036179">
			<defs />
			<path d="M 3.76433 10.1951 C 3.68909 10.4882, 3.57033 10.7683, 3.40872 11.0352, 3.24711 11.3022, 3.05638 11.5397, 2.83719 11.7471, 2.61801 11.9548, 2.37199 12.1233, 2.09882 12.2522, 1.82565 12.3814, 1.54169 12.4459, 1.2466 12.4459, 1.07059 12.4459, 0.908982 12.4138, 0.761438 12.349, 0.614221 12.2846, 0.493831 12.1972, 0.400266 12.0873, 0.306702 11.9774, 0.243889 11.8475, 0.211502 11.6974, 0.197107 11.6313, 0.18991 11.5632, 0.18991 11.4932, 0.18991 11.4026, 0.200706 11.31, 0.222298 11.2158, 0.261883 11.0588, 0.342688 10.941, 0.465042 10.8625, 0.587395 10.784, 0.707786 10.7447, 0.826214 10.7447, 0.952166 10.7447, 1.05816 10.7849, 1.1442 10.8651, 1.20538 10.9246, 1.2358 11.0012, 1.2358 11.0954, 1.2358 11.134, 1.22861 11.1811, 1.21421 11.2367, 1.17495 11.3938, 1.09415 11.5115, 0.971795 11.5901, 0.849441 11.6686, 0.752605 11.7078, 0.680632 11.7078, 0.702224 11.802, 0.769617 11.8904, 0.88281 11.9722, 0.996004 12.0543, 1.1406 12.0952, 1.31661 12.0952, 1.51094 12.0952, 1.6925 12.0428, 1.86131 11.9381, 2.03045 11.8335, 2.18519 11.6931, 2.32521 11.5168, 2.46523 11.3408, 2.58823 11.1366, 2.69423 10.9043, 2.80023 10.6724, 2.88561 10.429, 2.95039 10.1742 L 2.98278 10.0485 C 2.92912 10.0976, 2.81593 10.1614, 2.6432 10.2396, 2.47079 10.3181, 2.28202 10.3574, 2.0769 10.3574, 1.83285 10.3574, 1.61431 10.3122, 1.42195 10.2213, 1.22959 10.131, 1.07779 9.99128, 0.966233 9.80251, 0.858601 9.60034, 0.806585 9.37722, 0.809856 9.13251 L 0.809856 9.09064 C 0.817053 8.83612, 0.849441 8.58323, 0.907019 8.33165, 0.964597 8.0912, 1.04835 7.82621, 1.15794 7.53636, 1.26754 7.24683, 1.37255 6.96581, 1.47299 6.69329, 1.58094 6.4041, 1.63492 6.16659, 1.63492 5.98142, 1.63492 5.82472, 1.56851 5.7462, 1.43536 5.74587, 1.31334 5.7462, 1.20276 5.7812, 1.10396 5.85089, 1.00516 5.9209, 0.915198 6.01773, 0.834392 6.1414, 0.753587 6.26538, 0.680632 6.41195, 0.615857 6.58108, 0.551082 6.75055, 0.497429 6.9308, 0.454246 7.12251, 0.414661 7.21706, 0.34825 7.2658, 0.254685 7.26908 L 0.130696 7.26908 C 0.0443288 7.2694, 0.00114521 7.22589, 0.00114521 7.13822 L 0.00114521 7.10158 C 0.0515261 6.90987, 0.118264 6.7139, 0.200706 6.51304, 0.283474 6.31249, 0.387835 6.13027, 0.51346 5.96604, 0.639412 5.80214, 0.783357 5.66605, 0.944968 5.55776, 1.10658 5.4498, 1.29175 5.3955, 1.50014 5.39517, 1.68007 5.3955, 1.8335 5.4341, 1.96109 5.51065, 2.08868 5.58753, 2.18584 5.6896, 2.25225 5.81686, 2.31899 5.94445, 2.35563 6.08807, 2.36283 6.24837 L 2.36283 6.28501 C 2.36283 6.4355, 2.3324 6.59057, 2.2709 6.75087, 2.16687 7.02339, 2.06382 7.30179, 1.96109 7.58608, 1.85869 7.8707, 1.77887 8.1262, 1.72129 8.35292, 1.66371 8.57996, 1.62413 8.80471, 1.60254 9.02783, 1.58814 9.08737, 1.57931 9.15214, 1.57571 9.2215, 1.57571 9.35792, 1.59927 9.49238, 1.64572 9.62454, 1.67811 9.74363, 1.73732 9.83784, 1.82369 9.90753, 1.91006 9.97754, 2.01245 10.0122, 2.13088 10.0119, 2.36119 10.0122, 2.56239 9.94417, 2.7348 9.80807, 2.90753 9.67198, 3.05835 9.49401, 3.18757 9.27384 L 4.0555 5.89767 C 4.08821 5.76877, 4.15364 5.6739, 4.25244 5.61272, 4.35124 5.55187, 4.45102 5.52112, 4.55145 5.52079, 4.65581 5.52112, 4.74218 5.55253, 4.81055 5.61501, 4.85734 5.66081, 4.88056 5.72166, 4.88056 5.79822, 4.88056 5.83682, 4.87697 5.87706, 4.86977 5.91861 Z" stroke="none" fill="#000000" />
			<path d="M 25.3307 -6.28359 C 25.4682 -5.74609, 25.2619 -5.34609, 24.7119 -5.08359 L 5.75566 3.41641, 15.9557 21.0164 C 16.2307 21.5539, 16.1619 22.0227, 15.7494 22.4164 L 15.5432 22.5164 C 14.9932 22.8539, 14.5119 22.7914, 14.0994 22.3164 L -0.00683784 7.51641, -14.1193 22.3164 C -14.4631 22.7914, -14.9443 22.8539, -15.5631 22.5164 L -15.7693 22.4164 C -16.1068 21.9539, -16.1756 21.4914, -15.9756 21.0164 L -5.77559 3.41641, -24.7318 -5.08359 C -25.2756 -5.34609, -25.4818 -5.74609, -25.3443 -6.28359 L -25.2443 -6.48359 C -24.9693 -7.07734, -24.5568 -7.27734, -24.0068 -7.08359 L -3.61309 -3.18359, -1.14434 -23.2836 C -1.00684 -23.8773, -0.663088 -24.1773, -0.113089 -24.1836 L 0.0931606 -24.1836 C 0.643162 -24.1773, 0.986912 -23.8773, 1.12441 -23.2836 L 3.59316 -3.18359, 23.9869 -7.08359 C 24.6119 -7.20859, 25.0244 -7.00859, 25.2244 -6.48359 L 25.3307 -6.28359 Z" stroke="none" fill="#000000" transform="matrix(0.060032 0 0 0.060032 8.24851 4.24092)" />
			<rect />
		</svg>
	</g>
	<ellipse cx="309.49832153320312" cy="302.6529541015625" rx="7.875" ry="7.875" stroke="none" fill="#000000" transform="matrix(0.333333 0 0 0.333333 -45.7436 -54.7573)" />
	<g transform="matrix(1 0 -0 1 45.4572 39.7228)">
		<svg width="26.9441814" height="32.8818588">
			<defs />
			<path d="M 7.00507 5.94981 C 6.87552 6.45624, 6.66614 6.94467, 6.37694 7.41576, 6.08774 7.88686, 5.72363 8.31771, 5.28525 8.70833, 4.86846 9.07506, 4.43695 9.35608, 3.99105 9.55106, 3.99825 9.67668, 4.01101 9.80591, 4.029 9.9384, 4.04699 10.0712, 4.0784 10.1854, 4.12322 10.2813, 4.16836 10.3774, 4.2302 10.4533, 4.30937 10.509, 4.38854 10.5649, 4.49617 10.5927, 4.63259 10.5927, 4.75854 10.5927, 4.87991 10.5659, 4.9967 10.5116, 5.1135 10.4576, 5.22407 10.3843, 5.32811 10.2917, 5.43247 10.1995, 5.52407 10.0886, 5.60324 9.95934, 5.68241 9.83044, 5.73802 9.69762, 5.77041 9.56153, 5.78121 9.51638, 5.80542 9.47811, 5.84304 9.4467, 5.88099 9.41529, 5.92482 9.39959, 5.9752 9.39926, 6.02559 9.39959, 6.07073 9.41889, 6.10999 9.45684, 6.12438 9.48498, 6.13158 9.50951, 6.13158 9.53012, 6.13158 9.55139, 6.12635 9.57069, 6.11522 9.5877, 6.06157 9.82521, 5.98338 10.0666, 5.88099 10.3127, 5.77859 10.5587, 5.65362 10.7857, 5.5064 10.9931, 5.35918 11.2009, 5.18481 11.371, 4.98329 11.5035, 4.78209 11.6363, 4.55374 11.7024, 4.29857 11.7024, 4.01101 11.7024, 3.80261 11.6379, 3.67306 11.5087, 3.54384 11.3798, 3.46303 11.2104, 3.43032 11.001, 3.41592 10.9068, 3.40873 10.8057, 3.40873 10.6974, 3.40873 10.5858, 3.41592 10.4707, 3.43032 10.3519, 3.45911 10.1147, 3.4843 9.90536, 3.50589 9.72379, 3.22585 9.81474, 2.91669 9.85989, 2.57875 9.85989, 2.10438 9.85989, 1.68269 9.75553, 1.31432 9.54615, 0.945952 9.33678, 0.652173 9.05412, 0.432984 8.69786, 0.192202 8.30397, 0.0538186 7.86755, 0.0178323 7.38926, 0.00343776 7.27443, -0.0037595 7.15928, -0.0037595 7.04379, -0.0037595 6.68459, 0.0430227 6.31294, 0.13626 5.92887, 0.273008 5.41623, 0.484019 4.91831, 0.769947 4.43479, 1.05587 3.95159, 1.4213 3.51452, 1.86688 3.12325, 2.2624 2.77124, 2.69456 2.4876, 3.16369 2.27299, 3.63282 2.05838, 4.10621 1.95107, 4.58417 1.95075, 5.05854 1.95107, 5.47827 2.05936, 5.84304 2.27561, 6.20813 2.49218, 6.49995 2.77811, 6.71914 3.13372, 6.95992 3.52826, 7.1019 3.96794, 7.14509 4.45278, 7.15229 4.57186, 7.15588 4.68865, 7.15588 4.80348, 7.15588 5.17709, 7.10583 5.55919, 7.00507 5.94981 Z M 5.92679 3.35356 C 5.80836 3.06076, 5.63039 2.81573, 5.39288 2.61846, 5.1557 2.42151, 4.86094 2.32271, 4.5086 2.32239, 4.16019 2.32271, 3.81341 2.42315, 3.46827 2.62369, 3.12345 2.82456, 2.81593 3.07287, 2.54636 3.36926, 2.20155 3.75006, 1.931 4.16194, 1.73503 4.6049, 1.53907 5.04819, 1.38171 5.49638, 1.26296 5.94981, 1.14453 6.39669, 1.07452 6.83835, 1.05293 7.27411, 1.04573 7.33725, 1.04213 7.40006, 1.04213 7.46254, 1.04213 7.82568, 1.10691 8.16428, 1.23613 8.47801, 1.3189 8.67365, 1.42326 8.84834, 1.54889 9.00178, 1.67484 9.15554, 1.79163 9.25466, 1.89926 9.29981, 1.89599 9.29327, 1.89403 9.24092, 1.89403 9.14278, 1.89403 9.05936, 1.90482 8.97397, 1.92609 8.88629, 1.9588 8.7646, 2.01082 8.64682, 2.08279 8.5333, 2.15477 8.42011, 2.23819 8.31869, 2.33339 8.22971, 2.42859 8.14072, 2.5372 8.0694, 2.65956 8.0151, 2.78191 7.96112, 2.9095 7.93397, 3.04232 7.93364, 3.22945 7.93397, 3.38125 7.96897, 3.49804 8.03865, 3.61483 8.10866, 3.70741 8.19765, 3.77546 8.30561, 3.84383 8.41389, 3.89062 8.53854, 3.91581 8.67986, 3.941 8.82119, 3.95539 8.93733, 3.95866 9.02762, 4.03783 8.97561, 4.13761 8.89905, 4.258 8.79764, 4.37839 8.69655, 4.49453 8.58466, 4.60576 8.46231, 4.9509 8.08936, 5.22047 7.68533, 5.41447 7.25088, 5.6088 6.81643, 5.76321 6.37576, 5.87804 5.92887, 5.9968 5.47217, 6.07041 5.02005, 6.09919 4.57317, 6.10639 4.50709, 6.10999 4.4374, 6.10999 4.36379, 6.10999 4.00818, 6.04914 3.67155, 5.92679 3.35356 Z M 3.55987 9.26317 C 3.56707 9.18334, 3.57066 9.096, 3.57066 9.00145 L 3.57066 8.87582 C 3.56347 8.75413, 3.54024 8.64944, 3.50065 8.56209, 3.46107 8.47507, 3.40087 8.40506, 3.32007 8.35271, 3.23926 8.30037, 3.12705 8.2742, 2.98311 8.27387, 2.82869 8.2742, 2.68376 8.33636, 2.54898 8.46002, 2.41419 8.58401, 2.32357 8.73319, 2.27679 8.90723, 2.2624 8.96677, 2.2552 9.02435, 2.2552 9.07997, 2.2552 9.15357, 2.26796 9.22162, 2.29282 9.28411, 2.33601 9.39272, 2.40634 9.46077, 2.50318 9.48825 L 2.6432 9.48825 C 2.96315 9.48857, 3.26871 9.41366, 3.55987 9.26317 Z" stroke="none" fill="#000000" />
			<rect />
		</svg>
	</g>
	<path d="M -53.5078 0 L 53.5084 0" fill="none" stroke="#000000" stroke-width="3" stroke-linecap="round" stroke-linejoin="round" marker-end="url(#CustomMarker-01)" transform="matrix(0.333333 0 0 0.333333 75.2584 46.127)" />
	<g transform="matrix(1 0 -0 1 89.4746 37.7834)">
		<svg width="132.097641" height="81.0621643">
			<defs />
			<path d="M 2.2143 2.60703 C 2.26289 2.65431, 2.29347 2.72055, 2.30591 2.80594, 2.3095 2.84798, 2.3113 2.88805, 2.3113 2.92633, 2.3113 2.9754, 2.3077 3.02415, 2.30051 3.07289, 2.28971 3.17071, 2.27319 3.26984, 2.25062 3.37011, 2.22821 3.47054, 2.20629 3.55985, 2.1847 3.6382, 2.14871 3.78673, 2.10062 3.94196, 2.04042 4.10423, 1.98023 4.26649, 1.90613 4.41567, 1.81813 4.55177, 1.73012 4.68786, 1.62724 4.8022, 1.50946 4.89462, 1.39169 4.98704, 1.2556 5.03317, 1.10102 5.03317, 0.978828 5.03317, 0.863345 5.01141, 0.754568 4.96774, 0.645955 4.92423, 0.56106 4.85356, 0.499883 4.75574, 0.433472 4.65645, 0.401084 4.5431, 0.40272 4.41551, 0.40272 4.40864, 0.404519 4.40177, 0.408118 4.39457, 0.408118 4.27091, 0.422512 4.1461, 0.451301 4.02031, 0.48009 3.90009, 0.521965 3.76759, 0.576763 3.62267, 0.63156 3.4779, 0.684067 3.33739, 0.734285 3.20113, 0.788264 3.05654, 0.815254 2.93778, 0.815254 2.8452, 0.815254 2.76684, 0.782048 2.72759, 0.715474 2.72742, 0.65446 2.72759, 0.599172 2.74509, 0.549773 2.77993, 0.500374 2.81494, 0.455391 2.86335, 0.414988 2.92518, 0.374585 2.98718, 0.338108 3.06046, 0.30572 3.14503, 0.273333 3.22976, 0.246506 3.31989, 0.224915 3.41574, 0.205122 3.46302, 0.171917 3.48739, 0.125134 3.48903 L 0.0631397 3.48903 C 0.0199561 3.48919, -0.00163567 3.46743, -0.00163567 3.4236 L -0.00163567 3.40528 C 0.0235548 3.30942, 0.0569239 3.21144, 0.0981446 3.11101, 0.139529 3.01073, 0.191709 2.91962, 0.254522 2.83751, 0.317498 2.75556, 0.38947 2.68751, 0.470276 2.63337, 0.551082 2.57939, 0.643665 2.55224, 0.747861 2.55207, 0.837827 2.55224, 0.914543 2.57154, 0.978337 2.60981, 1.04213 2.64825, 1.09071 2.69929, 1.12392 2.76292, 1.15729 2.82671, 1.17561 2.89852, 1.17921 2.97867 L 1.17921 2.99699 C 1.17921 3.07224, 1.16399 3.14977, 1.13324 3.22992, 1.08123 3.36618, 1.0297 3.50538, 0.978337 3.64753, 0.927139 3.78984, 0.887063 3.91759, 0.858274 4.03078, 0.829648 4.14954, 0.809856 4.26306, 0.79906 4.37102, 0.795461 4.39555, 0.793662 4.41911, 0.793662 4.44168, 0.793662 4.52036, 0.807239 4.59446, 0.834065 4.66414, 0.857456 4.72532, 0.895732 4.77341, 0.948731 4.80825, 1.00173 4.84326, 1.06421 4.86059, 1.13602 4.86043, 1.24202 4.86059, 1.33771 4.82624, 1.4231 4.75722, 1.50848 4.68835, 1.58454 4.59544, 1.65095 4.47849, 1.71737 4.36169, 1.77625 4.22854, 1.82745 4.07936, 1.87881 3.93018, 1.92412 3.7797, 1.96354 3.62774, 1.98154 3.55118, 1.99053 3.4779, 1.99053 3.40789, 1.99053 3.35571, 1.98694 3.30599, 1.97974 3.25871, 1.95651 3.14552, 1.90433 3.0495, 1.82336 2.97082, 1.78574 2.93435, 1.76595 2.89247, 1.76415 2.8452, 1.76415 2.82786, 1.76693 2.81134, 1.77216 2.79547, 1.78852 2.73462, 1.82042 2.68179, 1.86802 2.63729, 1.91562 2.5928, 1.97172 2.5645, 2.03634 2.55207, 2.04713 2.5488, 2.05973 2.547, 2.07412 2.54684, 2.1263 2.547, 2.17308 2.56712, 2.2143 2.60703 Z" stroke="none" fill="#000000" />
			<path d="M 0.969889 -0.126916 C 0.969889 0.0406933, 0.958221 0.207321, 0.934885 0.373076, 0.911548 0.538831, 0.853752 0.694445, 0.761496 0.839699, 0.69563 0.945695, 0.607518 1.02705, 0.497269 1.08397, 0.387129 1.141, 0.267284 1.16946, 0.137842 1.16946, 0.0133073 1.16946, -0.104466 1.141, -0.21526 1.08397, -0.326055 1.02705, -0.414494 0.945695, -0.48036 0.839699, -0.572616 0.694445, -0.630412 0.538831, -0.653748 0.373076, -0.677085 0.207321, -0.688862 0.0406933, -0.688862 -0.126916, -0.688862 -0.296597, -0.677085 -0.466169, -0.653748 -0.635414, -0.630412 -0.804658, -0.572616 -0.963107, -0.48036 -1.11098, -0.414494 -1.21785, -0.326382 -1.30105, -0.216133 -1.36037, -0.105884 -1.4197, 0.0121078 -1.44936, 0.137842 -1.44947, 0.266084 -1.44936, 0.385602 -1.4197, 0.496397 -1.36037, 0.607191 -1.30105, 0.69563 -1.21785, 0.761496 -1.11098, 0.853752 -0.963107, 0.911548 -0.804658, 0.934885 -0.635414, 0.958221 -0.466169, 0.969889 -0.296597, 0.969889 -0.126916 Z M 0.614061 -0.187984 C 0.614061 -0.261156, 0.613516 -0.338472, 0.612316 -0.419932, 0.611117 -0.501283, 0.608063 -0.580998, 0.603265 -0.658968, 0.598467 -0.73683, 0.589852 -0.810438, 0.577202 -0.879684, 0.564662 -0.948822, 0.549395 -1.00793, 0.531401 -1.05689, 0.495524 -1.13584, 0.442853 -1.20073, 0.37328 -1.25133, 0.303815 -1.30192, 0.225299 -1.32722, 0.137842 -1.32733, 0.0527833 -1.32722, -0.0240966 -1.3016, -0.0930159 -1.25045, -0.161935 -1.1992, -0.214388 -1.13475, -0.250374 -1.05689, -0.268258 -1.00793, -0.283525 -0.948822, -0.296175 -0.879684, -0.308716 -0.810438, -0.31744 -0.73683, -0.322238 -0.658968, -0.327036 -0.580998, -0.32998 -0.501283, -0.33118 -0.419932, -0.332379 -0.338472, -0.333034 -0.261156, -0.333034 -0.187984, -0.333034 -0.106415, -0.332379 -0.0205926, -0.33118 0.0694823, -0.32998 0.159666, -0.327036 0.246906, -0.322238 0.331201, -0.31744 0.415605, -0.308716 0.495539, -0.296175 0.57111, -0.283525 0.64679, -0.268258 0.710148, -0.250374 0.761183, -0.216787 0.846242, -0.16488 0.916033, -0.0948697 0.970667, -0.0247509 1.02541, 0.0527833 1.05267, 0.137842 1.05256, 0.226608 1.05267, 0.305996 1.02541, 0.376006 0.970667, 0.446125 0.916033, 0.497923 0.846242, 0.531401 0.761183, 0.549395 0.710148, 0.564662 0.64679, 0.577202 0.57111, 0.589852 0.495539, 0.598467 0.415605, 0.603265 0.331201, 0.608063 0.246906, 0.611117 0.159666, 0.612316 0.0694823, 0.613516 -0.0205926, 0.614061 -0.106415, 0.614061 -0.187984 Z" stroke="none" fill="#000000" transform="matrix(1.12 0 0 1 3.30338 5.15849)" />
			<polyline points="-1.876 -0.5628 1.876 -0.5628" fill="none" stroke="#000000" stroke-width="0.214399993" stroke-linecap="round" stroke-linejoin="round" transform="matrix(1 0 0 1 7.92274 3.36293)" />
			<polyline points="-1.876 0.5628 1.876 0.5628" fill="none" stroke="#000000" stroke-width="0.214399993" stroke-linecap="round" stroke-linejoin="round" transform="matrix(1 0 0 1 7.92274 3.36293)" />
			<path d="M 14.5625 2.59918 C 14.6182 2.64825, 14.6542 2.71712, 14.6703 2.80594, 14.6739 2.85141, 14.6757 2.89852, 14.6757 2.94727, 14.6757 2.99111, 14.6739 3.03462, 14.6703 3.07813, 14.6595 3.17594, 14.642 3.27589, 14.6178 3.37796, 14.5935 3.48003, 14.5706 3.57212, 14.5491 3.65391, 14.5059 3.81977, 14.4457 3.98433, 14.3685 4.14741, 14.2913 4.31066, 14.1982 4.45755, 14.0894 4.58841, 13.9808 4.71927, 13.8568 4.82624, 13.7174 4.90901, 13.5781 4.99178, 13.4268 5.03317, 13.2632 5.03317, 13.0888 5.03317, 12.9612 4.98311, 12.8804 4.88284, 12.7996 4.78257, 12.7528 4.68083, 12.7401 4.57778, 12.6665 4.68966, 12.5605 4.79353, 12.4221 4.88938, 12.2837 4.98524, 12.1255 5.03317, 11.9476 5.03317, 11.786 5.03317, 11.6597 4.98966, 11.5689 4.90247, 11.4783 4.81528, 11.4176 4.70536, 11.387 4.57254, 11.3654 4.48552, 11.3538 4.38868, 11.3518 4.28203, 11.3518 4.23165, 11.3536 4.18094, 11.3572 4.13024, 11.3716 3.96813, 11.3996 3.80587, 11.4408 3.64344, 11.4876 3.47087, 11.5524 3.30255, 11.635 3.13849, 11.7177 2.97458, 11.8165 2.81657, 11.9314 2.66461, 11.9494 2.6386, 11.9728 2.62208, 12.0015 2.61488 L 12.0204 2.61488 C 12.0348 2.61505, 12.0491 2.61767, 12.0635 2.62274, 12.0869 2.63337, 12.1013 2.65169, 12.1067 2.6777 L 12.1067 2.69078 C 12.1067 2.70665, 12.0995 2.72497, 12.0851 2.74574, 11.9809 2.89247, 11.8893 3.04132, 11.8102 3.19214, 11.7312 3.34312, 11.6718 3.49704, 11.6322 3.65391, 11.6 3.77446, 11.5838 3.88962, 11.5838 3.99938 L 11.5892 4.00461 C 11.5892 4.12696, 11.6067 4.23083, 11.6417 4.31622, 11.6767 4.40177, 11.7279 4.46933, 11.7953 4.51905, 11.8627 4.56878, 11.9468 4.59364, 12.0473 4.59348, 12.1821 4.59364, 12.3094 4.55406, 12.4288 4.47456, 12.5484 4.39523, 12.6495 4.29087, 12.7321 4.16164, 12.7393 4.07985, 12.7524 3.9948, 12.7712 3.90663, 12.7901 3.81863, 12.8103 3.73079, 12.8319 3.64344, 12.8355 3.6297, 12.8413 3.60745, 12.8494 3.57686, 12.8575 3.54644, 12.8696 3.51634, 12.8858 3.48657, 12.902 3.45696, 12.9236 3.42867, 12.9504 3.40151, 12.9774 3.37452, 13.0152 3.36095, 13.0636 3.36078, 13.1104 3.36095, 13.1433 3.37583, 13.1621 3.40544, 13.1811 3.43521, 13.1904 3.46645, 13.1904 3.49949, 13.1904 3.52926, 13.1868 3.55904, 13.1796 3.58864, 13.1724 3.61841, 13.167 3.64017, 13.1634 3.65391, 13.1418 3.74486, 13.1145 3.83564, 13.0811 3.92626, 13.0479 4.01704, 13.0124 4.10341, 12.9747 4.1852, 12.989 4.30395, 13.0273 4.40177, 13.0893 4.47849, 13.1513 4.55537, 13.2416 4.59364, 13.3602 4.59348, 13.4698 4.59364, 13.5778 4.56796, 13.6837 4.51643, 13.7897 4.46507, 13.8877 4.39604, 13.9775 4.30968, 14.0675 4.22331, 14.1452 4.12222, 14.2108 4.00608, 14.2764 3.89011, 14.3245 3.76923, 14.3549 3.64344, 14.3729 3.57736, 14.3829 3.51193, 14.3845 3.44715, 14.3845 3.38794, 14.3765 3.33134, 14.3603 3.27703, 14.3263 3.16204, 14.2651 3.0652, 14.1769 2.98653, 14.1303 2.94825, 14.1069 2.90294, 14.1069 2.85043, 14.1069 2.83669, 14.1087 2.82442, 14.1123 2.81379, 14.1249 2.75114, 14.1542 2.69667, 14.2 2.65038, 14.2458 2.60425, 14.3019 2.57137, 14.3683 2.55207, 14.3863 2.5488, 14.4043 2.547, 14.4223 2.54684, 14.4745 2.547, 14.5212 2.5645, 14.5625 2.59918 Z" stroke="none" fill="#000000" />
			<path d="M 21.249 4.4443 C 21.2293 4.52298, 21.1997 4.60018, 21.1601 4.67608, 21.1205 4.75198, 21.0721 4.82052, 21.0145 4.88153, 20.957 4.94271, 20.8927 4.9926, 20.8217 5.03186, 20.7507 5.07112, 20.674 5.09074, 20.5912 5.09074, 20.3306 5.09074, 20.1347 5.02188, 20.0035 4.88399, 19.9137 4.78993, 19.8687 4.67134, 19.8687 4.52805, 19.8687 4.45493, 19.8805 4.3756, 19.9039 4.28988 L 20.0251 3.82141 C 20.0395 3.76219, 20.0467 3.70642, 20.0467 3.65391, 20.0467 3.6279, 20.0449 3.60091, 20.0413 3.57278, 20.0305 3.49966, 20.0055 3.43521, 19.9659 3.37927, 19.9263 3.32349, 19.8756 3.27949, 19.8136 3.2471, 19.7516 3.21487, 19.6783 3.19868, 19.5937 3.19852 L 18.9846 3.19852, 18.626 4.59348 C 18.6188 4.62685, 18.6152 4.65384, 18.6152 4.67461, 18.6152 4.70095, 18.6206 4.71845, 18.6314 4.72695, 18.6548 4.74102, 18.7034 4.74936, 18.777 4.75198, 18.8508 4.7546, 18.9298 4.75591, 19.0142 4.75574, 19.0646 4.75591, 19.0898 4.77684, 19.0898 4.81856, 19.0898 4.82919, 19.088 4.84048, 19.0844 4.85258 L 19.0736 4.89445 C 19.0539 4.9468, 19.0188 4.97297, 18.9684 4.97297, 18.7474 4.9625, 18.5246 4.95727, 18.2999 4.95727, 18.0753 4.95727, 17.8497 4.9625, 17.6233 4.97297, 17.5749 4.97297, 17.5489 4.9504, 17.5451 4.90492 L 17.5451 4.88399, 17.5559 4.83949 C 17.5703 4.78208, 17.6053 4.75411, 17.6609 4.75574, 17.7455 4.75591, 17.8255 4.7546, 17.9009 4.75198, 17.9765 4.74936, 18.0321 4.7402, 18.0681 4.72434, 18.1023 4.70536, 18.1283 4.65825, 18.1463 4.58301 L 18.9038 1.63344 C 18.9146 1.59516, 18.9198 1.56556, 18.9198 1.54445, 18.9198 1.52368, 18.9154 1.51141, 18.9064 1.50781, 18.8812 1.49227, 18.8323 1.48279, 18.7595 1.47919, 18.6867 1.47575, 18.6072 1.47395, 18.5209 1.47379, 18.4706 1.47395, 18.4455 1.4504, 18.4455 1.40313 L 18.4455 1.38219, 18.4616 1.3377 C 18.4724 1.28552, 18.5058 1.25935, 18.5614 1.25918 L 20.0791 1.25918 C 20.2498 1.25935, 20.4124 1.28208, 20.567 1.32739, 20.7216 1.37287, 20.8564 1.44778, 20.9714 1.55231, 21.0666 1.63622, 21.1358 1.73911, 21.1789 1.86113, 21.2059 1.92755, 21.2203 1.99657, 21.222 2.06789, 21.222 2.13267, 21.2121 2.1963, 21.1924 2.25895, 21.1583 2.39864, 21.0873 2.52525, 20.9794 2.6386, 20.8716 2.75212, 20.7502 2.8488, 20.6154 2.92895, 20.522 2.98325, 20.4273 3.02824, 20.3311 3.0639, 20.235 3.09972, 20.1663 3.12196, 20.1249 3.13047, 20.2273 3.17071, 20.3244 3.24923, 20.416 3.36602, 20.4934 3.46743, 20.532 3.58864, 20.532 3.72981, 20.532 3.75958, 20.5302 3.78935, 20.5266 3.81879 L 20.4752 4.28988 C 20.461 4.41224, 20.4538 4.51856, 20.4538 4.60918, 20.4538 4.66872, 20.4574 4.72107, 20.4646 4.76621, 20.4772 4.86926, 20.531 4.92079, 20.6262 4.92063, 20.7126 4.92079, 20.7916 4.87417, 20.8636 4.78077, 20.9355 4.68753, 20.9885 4.57189, 21.0226 4.43383, 21.0424 4.38165, 21.0774 4.3563, 21.1277 4.35793 L 21.1708 4.35793 C 21.2193 4.3581, 21.2454 4.38083, 21.249 4.42598 L 21.249 4.4443 Z M 20.6154 2.24324 C 20.6442 2.13872, 20.6604 2.03403, 20.664 1.92918 L 20.664 1.91348 C 20.664 1.82466, 20.6362 1.74794, 20.5804 1.68317, 20.514 1.60661, 20.4273 1.55247, 20.3203 1.52106, 20.2134 1.48966, 20.0961 1.47395, 19.9685 1.47379 L 19.6099 1.47379 C 19.5183 1.47395, 19.4635 1.48099, 19.4455 1.49489, 19.4276 1.50896, 19.4087 1.55852, 19.3889 1.64391 L 19.0332 3.0284, 19.5533 3.0284 C 19.6809 3.02856, 19.8069 3.01286, 19.9309 2.98145, 20.0549 2.95005, 20.1726 2.89427, 20.2839 2.81379, 20.3792 2.74591, 20.4512 2.66052, 20.4996 2.55747, 20.5482 2.45458, 20.5868 2.34989, 20.6154 2.24324 Z" stroke="none" fill="#000000" />
			<polyline points="-1.876 0 1.876 0" fill="none" stroke="#000000" stroke-width="0.214399993" stroke-linecap="round" stroke-linejoin="round" transform="matrix(1 0 0 1 24.6788 3.36293)" />
			<polyline points="0 -1.876 0 1.876" fill="none" stroke="#000000" stroke-width="0.214399993" stroke-linecap="round" stroke-linejoin="round" transform="matrix(1 0 0 1 24.6788 3.36293)" />
			<path d="M 30.7081 4.17735 C 30.6829 4.27353, 30.6497 4.37167, 30.6083 4.47194, 30.5671 4.57238, 30.5149 4.66349, 30.4521 4.74544, 30.3893 4.82755, 30.3174 4.89593, 30.2364 4.95072, 30.1556 5.00569, 30.063 5.03317, 29.9588 5.03317, 29.869 5.03317, 29.7921 5.01403, 29.7283 4.97559, 29.6645 4.93731, 29.6151 4.88677, 29.5801 4.82395, 29.5451 4.76114, 29.5275 4.6913, 29.5275 4.61442, 29.5239 4.61114, 29.5221 4.60231, 29.5221 4.58824, 29.5221 4.51333, 29.5382 4.43481, 29.5706 4.3527, 29.6298 4.20106, 29.6856 4.04927, 29.7376 3.89747, 29.7898 3.74567, 29.8356 3.59388, 29.8752 3.44192, 29.9004 3.33919, 29.9192 3.23974, 29.9318 3.14356, 29.9354 3.11575, 29.9372 3.08614, 29.9372 3.05457, 29.9372 2.99536, 29.93 2.94138, 29.9156 2.89231, 29.8832 2.78255, 29.815 2.72759, 29.7107 2.72742, 29.5275 2.72759, 29.3703 2.79007, 29.2391 2.91472, 29.1079 3.03952, 28.9909 3.20653, 28.8885 3.41574 L 28.522 4.83949 C 28.5059 4.90427, 28.4731 4.95252, 28.4237 4.98475, 28.3743 5.01714, 28.3244 5.03317, 28.274 5.03317, 28.222 5.03317, 28.1788 5.01583, 28.1446 4.98082, 28.1212 4.95825, 28.1094 4.92684, 28.1094 4.8866, 28.1094 4.86763, 28.1112 4.84833, 28.1148 4.82903 L 28.9263 1.68317 C 28.9407 1.62575, 28.9497 1.58208, 28.9533 1.55231 L 28.9533 1.54445 C 28.9533 1.52892, 28.9497 1.51763, 28.9425 1.51043, 28.9209 1.49669, 28.8805 1.48704, 28.8211 1.48181, 28.7619 1.47657, 28.6935 1.47395, 28.6163 1.47379, 28.5894 1.47395, 28.5696 1.46528, 28.557 1.44762, 28.5462 1.43731, 28.5408 1.42423, 28.5408 1.40836, 28.5408 1.39806, 28.5436 1.38841, 28.5489 1.37957 L 28.557 1.3377 C 28.5714 1.29599, 28.6055 1.26981, 28.6594 1.25918 L 29.3631 1.2016, 29.3737 1.2016 C 29.3953 1.20177, 29.4133 1.2088, 29.4277 1.22254, 29.4385 1.23841, 29.4439 1.25231, 29.4439 1.26442, 29.4439 1.27505, 29.4412 1.2847, 29.4358 1.2932 L 29.0341 2.85305 C 29.0845 2.79383, 29.1735 2.7289, 29.3011 2.65823, 29.4287 2.58757, 29.576 2.55224, 29.743 2.55207, 29.8492 2.55224, 29.9482 2.57186, 30.0398 2.61112, 30.1314 2.65038, 30.2024 2.71368, 30.2526 2.8007, 30.3066 2.88985, 30.3334 2.99012, 30.3334 3.10168 L 30.3334 3.11477 C 30.3298 3.22665, 30.3138 3.33919, 30.285 3.45238, 30.2437 3.61138, 30.1952 3.76759, 30.1394 3.92102, 30.0838 4.07462, 30.0262 4.23067, 29.9668 4.38934, 29.913 4.52559, 29.886 4.63993, 29.886 4.73219, 29.886 4.71845, 29.8878 4.71142, 29.8914 4.71125, 29.8914 4.81087, 29.9246 4.86059, 29.991 4.86043, 30.0522 4.86059, 30.1067 4.84227, 30.1543 4.80563, 30.2019 4.76899, 30.2464 4.71976, 30.2876 4.65776, 30.329 4.59593, 30.3654 4.52265, 30.3968 4.43792, 30.4283 4.35335, 30.4575 4.26388, 30.4844 4.16949, 30.4952 4.12435, 30.5257 4.10161, 30.5761 4.10145 L 30.6381 4.10145 C 30.6849 4.10161, 30.7081 4.12075, 30.7081 4.15903 L 30.7081 4.17735 Z" stroke="none" fill="#000000" />
			<path d="M 0.441915 2.55893 C -1.30545 1.40741, -1.30545 -1.40741, 0.441915 -2.55893 L 0.716347 -2.55893 C -0.859493 -1.40741, -0.859493 1.40741, 0.716347 2.55893" stroke="none" fill="#000000" transform="matrix(1 0 -0 1 16.553 3.36293)" />
			<path d="M 0.441915 2.55893 C -1.30545 1.40741, -1.30545 -1.40741, 0.441915 -2.55893 L 0.716347 -2.55893 C -0.859493 -1.40741, -0.859493 1.40741, 0.716347 2.55893" stroke="none" fill="#000000" transform="matrix(-1 1.50996e-007 -1.50996e-007 -1 31.6995 3.36293)" />
			<rect />
		</svg>
	</g>
	<g transform="matrix(1 0 -0 1 54.8238 49.8113)">
		<svg width="21.0837173" height="27.0062103">
			<defs />
			<path d="M 5.1979 8.03309 C 5.14752 8.22545, 5.08111 8.42174, 4.99834 8.62228, 4.9159 8.82315, 4.81154 9.00538, 4.68591 9.16928, 4.56029 9.33351, 4.41634 9.47025, 4.2544 9.57985, 4.09279 9.68977, 3.90762 9.74473, 3.69923 9.74473, 3.51963 9.74473, 3.36587 9.70646, 3.23828 9.62958, 3.11069 9.55302, 3.01189 9.45193, 2.94188 9.32631, 2.87187 9.20068, 2.83654 9.06099, 2.83654 8.90723, 2.82934 8.90069, 2.82575 8.88302, 2.82575 8.85489, 2.82575 8.70505, 2.85813 8.54802, 2.92291 8.38379, 3.04134 8.08053, 3.15289 7.77693, 3.25693 7.47334, 3.36129 7.16975, 3.45289 6.86615, 3.53206 6.56223, 3.58244 6.35678, 3.62006 6.15788, 3.64525 5.96551, 3.65245 5.9099, 3.65605 5.85068, 3.65605 5.78754, 3.65605 5.66912, 3.64165 5.56116, 3.61286 5.46301, 3.54809 5.2435, 3.41167 5.13357, 3.20295 5.13325, 2.83654 5.13357, 2.52215 5.25854, 2.25978 5.50783, 1.99741 5.75745, 1.76349 6.09146, 1.5587 6.50989 L 0.82556 9.35739 C 0.793499 9.48694, 0.727742 9.58345, 0.628944 9.6479, 0.530145 9.71267, 0.430364 9.74473, 0.329603 9.74473, 0.22557 9.74473, 0.139202 9.71005, 0.0708283 9.64004, 0.0240461 9.5949, 0.00049144 9.53209, 0.00049144 9.45161, 0.00049144 9.41366, 0.00409007 9.37505, 0.0112873 9.33645 L 1.63427 3.04473 C 1.66306 2.9299, 1.68105 2.84255, 1.68825 2.78301 L 1.68825 2.76731 C 1.68825 2.73623, 1.68105 2.71366, 1.66666 2.69926, 1.62347 2.67178, 1.54267 2.65248, 1.42391 2.64201, 1.30549 2.63154, 1.16874 2.62631, 1.01432 2.62598, 0.960345 2.62631, 0.92076 2.60897, 0.89557 2.57364, 0.873978 2.55303, 0.863182 2.52686, 0.863182 2.49512, 0.863182 2.47451, 0.868743 2.45521, 0.879539 2.43754 L 0.89557 2.35379 C 0.924359 2.27037, 0.992733 2.21803, 1.10036 2.19676 L 2.50776 2.08161, 2.52902 2.08161 C 2.57221 2.08193, 2.60819 2.096, 2.63698 2.12348, 2.65857 2.15521, 2.66937 2.18302, 2.66937 2.20723, 2.66937 2.2285, 2.66413 2.2478, 2.65334 2.26481 L 1.84986 5.3845 C 1.95062 5.26607, 2.12859 5.13619, 2.38377 4.99486, 2.63894 4.85354, 2.9337 4.78287, 3.26772 4.78254, 3.48004 4.78287, 3.67797 4.82213, 3.86117 4.90064, 4.04437 4.97916, 4.18636 5.10577, 4.28679 5.27981, 4.39475 5.45811, 4.4484 5.65865, 4.4484 5.88176 L 4.4484 5.90793 C 4.4412 6.1317, 4.40914 6.35678, 4.35156 6.58317, 4.26912 6.90116, 4.17196 7.21358, 4.0604 7.52045, 3.94917 7.82764, 3.83402 8.13974, 3.71526 8.45708, 3.60763 8.72959, 3.55365 8.95827, 3.55365 9.14278, 3.55365 9.1153, 3.55725 9.10123, 3.56445 9.1009, 3.56445 9.30014, 3.63086 9.39959, 3.76368 9.39926, 3.88603 9.39959, 3.99497 9.36295, 4.09017 9.28967, 4.18537 9.21639, 4.27436 9.11792, 4.3568 8.99393, 4.43957 8.87026, 4.51252 8.7237, 4.57533 8.55424, 4.63815 8.3851, 4.69671 8.20615, 4.75036 8.01739, 4.77195 7.92709, 4.83313 7.88162, 4.93389 7.88129 L 5.05788 7.88129 C 5.15144 7.88162, 5.1979 7.9199, 5.1979 7.99645 L 5.1979 8.03309 Z" stroke="none" fill="#000000" />
			<rect />
		</svg>
	</g>
	<path d="M 97.3041 -0 C 97.3041 10.7808, 53.7396 19.5204, -0 19.5204, -53.7396 19.5204, -97.3041 10.7808, -97.3041 -0, -97.3041 -10.7808, -53.7396 -19.5204, -0 -19.5204, 53.7396 -19.5204, 97.3041 -10.7808, 97.3041 -0 Z" stroke="none" fill="#1155F1" fill-opacity="0.392156839" transform="matrix(0.333333 0 0 0.333333 83.8003 68.1078)" />
	<path d="M 97.3041 -0 C 97.3041 10.7808, 53.7396 19.5204, -0 19.5204, -53.7396 19.5204, -97.3041 10.7808, -97.3041 -0, -97.3041 -10.7808, -53.7396 -19.5204, -0 -19.5204, 53.7396 -19.5204, 97.3041 -10.7808, 97.3041 -0 Z" fill="none" stroke="#000000" stroke-width="3" stroke-linecap="round" stroke-linejoin="round" transform="matrix(0.333333 0 0 0.333333 83.8003 68.1078)" />
	<g transform="matrix(1 0 -0 1 58.4383 73.5364)">
		<svg width="26.9441814" height="27.0062103">
			<defs />
			<path d="M 7.41662 4.25387 C 7.33778 4.53686, 7.20299 4.79792, 7.01259 5.03674, 6.82219 5.27588, 6.59548 5.48264, 6.3331 5.65668, 6.04914 5.85232, 5.74653 5.99986, 5.42461 6.09932, 5.10303 6.19877, 4.78406 6.2485, 4.4677 6.24817 L 2.86631 6.24817, 2.19239 8.86536 C 2.17079 8.94256, 2.16 9.00341, 2.16 9.04856, 2.16 9.09076, 2.16916 9.11693, 2.18715 9.12708, 2.23753 9.15881, 2.33633 9.17713, 2.48355 9.18236, 2.63109 9.1876, 2.7891 9.19022, 2.95791 9.18989, 3.05867 9.19022, 3.10906 9.23896, 3.10906 9.33645 L 3.10906 9.37309, 3.08746 9.46731 C 3.04788 9.572, 2.97787 9.62434, 2.87711 9.62434, 2.42793 9.6034, 1.97679 9.59293, 1.52402 9.59293, 1.06765 9.59293, 0.611277 9.6034, 0.154578 9.62434, 0.0577423 9.62434, 0.00572571 9.57919, -0.00179871 9.48825 L -0.00179871 9.44637, 0.0197931 9.35739 C 0.0485822 9.24256, 0.118592 9.18662, 0.229822 9.18989, 0.398958 9.19022, 0.558934 9.1876, 0.709749 9.18236, 0.860892 9.17713, 0.972122 9.15881, 1.04409 9.12708, 1.11247 9.08913, 1.16449 8.99491, 1.20047 8.84442 L 2.7155 2.94528 C 2.73709 2.86873, 2.74756 2.80951, 2.74756 2.76731, 2.74756 2.72576, 2.73872 2.70123, 2.72073 2.69403, 2.67035 2.66295, 2.57253 2.64397, 2.42695 2.63678, 2.28137 2.62991, 2.12238 2.62631, 1.94964 2.62598, 1.84921 2.62631, 1.79883 2.5792, 1.79883 2.48465 L 1.79883 2.44278, 1.83121 2.35379 C 1.85281 2.24943, 1.91954 2.19709, 2.03077 2.19676 L 5.48644 2.19676 C 5.80312 2.19709, 6.0969 2.24682, 6.36811 2.34627, 6.63964 2.44572, 6.87224 2.5949, 7.06624 2.79348, 7.24225 2.97865, 7.36624 3.19849, 7.43821 3.45301, 7.4598 3.57209, 7.4706 3.69249, 7.4706 3.81418, 7.4706 3.9542, 7.45261 4.10077, 7.41662 4.25387 Z M 6.26833 4.2277 C 6.3295 4.00818, 6.37073 3.79521, 6.39232 3.58911 L 6.39232 3.49489 C 6.39232 3.33459, 6.3475 3.18802, 6.25753 3.0552, 6.1391 2.8985, 5.98076 2.78792, 5.78317 2.72314, 5.58557 2.6587, 5.37161 2.62631, 5.14163 2.62598 L 4.1278 2.62598 C 3.94459 2.62631, 3.835 2.64038, 3.79901 2.66818, 3.76303 2.69632, 3.7254 2.79544, 3.68582 2.96622 L 2.93632 5.85559, 4.28417 5.85559 C 4.51776 5.85592, 4.75167 5.82288, 4.98525 5.75646, 5.21884 5.69038, 5.43803 5.57686, 5.64282 5.4159, 5.82635 5.2592, 5.96212 5.076, 6.05012 4.86662, 6.13812 4.65725, 6.21075 4.44427, 6.26833 4.2277 Z" stroke="none" fill="#000000" />
			<rect />
		</svg>
	</g>
	<ellipse cx="348.40017700195313" cy="387.02154541015625" rx="7.875" ry="7.875" stroke="none" fill="#000000" transform="matrix(0.333333 0 0 0.333333 -45.7436 -54.7573)" />
	<path d="M -25.4209 25.4624 C -33.8554 3.47663, -30.0805 -25.3423, -16.8566 -39.9211 L 0 0, 1e-005 0 Z" stroke="none" fill="#E1BE4C" fill-opacity="0.392156839" transform="matrix(0.333333 0 -0 0.333333 83.8004 104.232)" />
	<path d="M -25.4209 25.4624 C -33.8554 3.47663, -30.0805 -25.3423, -16.8566 -39.9211" fill="none" stroke="#000000" stroke-width="2.25" stroke-linecap="round" stroke-linejoin="round" transform="matrix(0.333333 0 -0 0.333333 83.8004 104.232)" />
	<path d="M -6.13429e-005 -65.6928 C 11.0072 -65.6929, 21.7303 -61.277, 30.6244 -53.0815 L 0 0, 1e-005 0 Z" stroke="none" fill="#E1BE4C" fill-opacity="0.392156839" transform="matrix(0.333333 0 -0 0.333333 83.8003 104.232)" />
	<path d="M -6.13429e-005 -65.6928 C 11.0072 -65.6929, 21.7303 -61.277, 30.6244 -53.0815" fill="none" stroke="#000000" stroke-width="2.25" stroke-linecap="round" stroke-linejoin="round" transform="matrix(0.333333 0 -0 0.333333 83.8003 104.232)" />
	<path d="M 57.5162 124.738 L -57.516 -124.738" fill="none" stroke="#000000" stroke-width="3" stroke-linecap="round" stroke-linejoin="round" marker-end="url(#CustomMarker-02)" transform="matrix(0.333333 0 0 0.333333 64.9979 62.5563)" />
	<path d="M -64.6691 122.387 L 64.6689 -122.387" fill="none" stroke="#000000" stroke-width="3" stroke-linecap="round" stroke-linejoin="round" marker-end="url(#CustomMarker-03)" transform="matrix(0.333333 0 0 0.333333 105.726 63.3397)" />
	<path d="M 0 0 L 0 -228.43" fill="none" stroke="#000000" stroke-width="2.25" stroke-linecap="round" stroke-linejoin="round" marker-end="url(#CustomMarker-04)" transform="matrix(0.333333 0 -0 0.333333 83.8004 104.135)" />
	<path d="M 0 0 L -148.031 148.03" fill="none" stroke="#000000" stroke-width="2.25" stroke-linecap="round" stroke-linejoin="round" marker-end="url(#CustomMarker-05)" transform="matrix(0.333333 0 -0 0.333333 83.8004 104.135)" />
	<path d="M 0 0 L 267.483 0" fill="none" stroke="#000000" stroke-width="2.25" stroke-linecap="round" stroke-linejoin="round" marker-end="url(#CustomMarker-06)" transform="matrix(0.333333 0 -0 0.333333 83.8004 104.135)" />
</svg>
